<svg width="100" height="100" viewBox="0 0 100 100" fill="none" xmlns="http://www.w3.org/2000/svg">
<g clip-path="url(#clip0)">
<path d="M53.7977 99.9999C46.6977 99.9999 39.5977 99.9999 32.4977 99.9999C28.1977 99.9999 24.5977 96.3999 24.5977 92.0999C24.5977 81.9999 24.5977 71.8999 24.5977 61.8999C24.5977 57.4999 28.1977 53.8999 32.5977 53.8999C46.6977 53.8999 60.6977 53.8999 74.7977 53.8999C78.9977 53.8999 82.1977 56.5999 82.8977 60.6999C82.9977 60.9999 82.9977 61.3999 82.9977 61.6999C82.9977 71.7999 82.9977 81.8999 82.9977 91.8999C82.9977 95.9999 80.2977 99.2999 76.1977 99.9999C75.6977 99.9999 75.2977 99.9999 74.7977 99.9999C67.7977 99.9999 60.7977 99.9999 53.7977 99.9999ZM53.7977 96.9999C60.8977 96.9999 67.9977 96.9999 75.0977 96.9999C78.2977 96.9999 79.9977 95.2999 79.9977 92.0999C79.9977 81.9999 79.9977 71.8999 79.9977 61.7999C79.9977 58.6999 78.2977 56.8999 75.1977 56.8999C60.8977 56.8999 46.6977 56.8999 32.3977 56.8999C29.4977 56.8999 27.6977 58.6999 27.6977 61.5999C27.6977 71.6999 27.6977 81.8999 27.6977 91.9999C27.6977 95.2999 29.3977 96.9999 32.6977 96.9999C39.6977 96.9999 46.6977 96.9999 53.7977 96.9999Z" fill="#F4C52E"/>
<path d="M15.2984 60C15.2984 70.7 15.2984 81.4 15.2984 92.1C15.2984 95.2 16.9984 97 20.1984 97C21.0984 97 21.9984 97 22.8984 97C23.8984 97 24.5984 97.7 24.5984 98.5C24.5984 99.3 23.8984 100 22.8984 100C21.1984 99.9 19.4984 100 17.9984 99.6C14.5984 98.7 12.3984 95.5 12.3984 92C12.3984 70.7 12.3984 49.3 12.3984 28C12.3984 23.6 15.9984 20 20.3984 20C34.4984 20 48.4984 20 62.5984 20C66.7984 20 69.9984 22.7 70.6984 26.7C70.7984 27.1 70.7984 27.5 70.7984 27.8C70.7984 35.2 70.7984 42.6 70.7984 50C70.7984 50.2 70.7984 50.4 70.7984 50.5C70.7984 51.5 70.0984 52.2 69.2984 52.2C68.4984 52.2 67.7984 51.5 67.7984 50.5C67.7984 48.7 67.7984 47 67.7984 45.2C67.7984 39.4 67.7984 33.7 67.7984 27.9C67.7984 24.7 66.0984 22.9 62.8984 22.9C48.4984 23 34.1984 23 19.9984 23C17.0984 23 15.2984 24.8 15.2984 27.7C15.2984 38.5 15.2984 49.3 15.2984 60Z" fill="#F4C52E"/>
<path d="M8.89844 97C9.49844 97 10.0984 97 10.6984 97C11.4984 97.1 12.0984 97.7 12.0984 98.4C12.0984 99.1 11.4984 99.9 10.7984 99.9C9.39844 99.9 7.89844 100 6.49844 99.8C2.59844 99.2 -0.101562 95.8 -0.101562 91.9C-0.101562 77.8 -0.101562 63.7 -0.101562 49.6C-0.101562 45 3.39844 41.5 7.99844 41.5C8.29844 41.5 8.59844 41.5 8.79844 41.5C9.79844 41.5 10.4984 42.1 10.4984 43C10.4984 43.9 9.79844 44.5 8.69844 44.5C7.99844 44.5 7.29844 44.5 6.59844 44.6C4.49844 45 2.99844 46.7 2.99844 49.1C2.99844 53.7 2.99844 58.4 2.99844 63C2.99844 72.5 2.99844 82 2.99844 91.4C2.99844 92 2.99844 92.7 3.09844 93.3C3.49844 95.5 5.19844 96.9 7.49844 96.9C7.99844 97 8.49844 97 8.89844 97Z" fill="#F4C52E"/>
<path d="M32.2977 29.2002C34.6977 29.2002 37.1977 29.2002 39.5977 29.2002C40.8977 29.2002 41.4977 29.8002 41.4977 31.1002C41.4977 33.9002 41.4977 36.8002 41.4977 39.6002C41.4977 40.9002 40.8977 41.4002 39.6977 41.4002C34.7977 41.4002 29.8977 41.4002 24.9977 41.4002C23.6977 41.4002 23.0977 40.8002 23.0977 39.5002C23.0977 36.7002 23.0977 33.8002 23.0977 31.0002C23.0977 29.7002 23.6977 29.2002 24.8977 29.2002C27.3977 29.2002 29.7977 29.2002 32.2977 29.2002ZM26.1977 38.4002H38.3977V32.3002H26.1977V38.4002Z" fill="#F4C52E"/>
<path d="M41.5 44.6001H59.4C59.5 44.6001 59.7 44.6001 59.8 44.6001C60.7 44.6001 61.4 45.3001 61.4 46.1001C61.4 46.9001 60.7 47.6001 59.8 47.6001C57.7 47.6001 55.6 47.6001 53.5 47.6001C43.5 47.6001 33.6 47.6001 23.6 47.6001C23.4 47.6001 23.3 47.6001 23.1 47.6001C22.2 47.6001 21.5 46.9001 21.5 46.1001C21.5 45.3001 22.2 44.6001 23.1 44.6001C25.4 44.6001 27.7 44.6001 30 44.6001H41.5Z" fill="#F4C52E"/>
<path d="M53 38.5C55.3 38.5 57.6 38.5 59.8 38.5C60.7 38.5 61.4 39.2 61.4 40C61.4 40.8 60.7 41.4 59.8 41.5C59.7 41.5 59.6 41.5 59.5 41.5C55.2 41.5 50.8 41.5 46.5 41.5C46.4 41.5 46.3 41.5 46.2 41.5C45.2 41.5 44.5 40.8 44.5 40C44.5 39.2 45.2 38.5 46.2 38.5C48.1 38.5 50 38.5 52 38.5C52.4 38.5 52.7 38.5 53 38.5Z" fill="#F4C52E"/>
<path d="M64.5969 63.1001C66.9969 63.1001 69.3969 63.1001 71.7969 63.1001C73.1969 63.1001 73.6969 63.7001 73.6969 65.0001C73.6969 67.8001 73.6969 70.7001 73.6969 73.5001C73.6969 74.7001 73.0969 75.3001 71.8969 75.3001C66.9969 75.3001 61.9969 75.3001 57.0969 75.3001C55.8969 75.3001 55.2969 74.7001 55.2969 73.6001C55.2969 70.7001 55.2969 67.8001 55.2969 64.8001C55.2969 63.7001 55.8969 63.1001 57.0969 63.1001C59.5969 63.1001 62.0969 63.1001 64.5969 63.1001ZM58.3969 72.3001H70.6969V66.2001H58.3969V72.3001Z" fill="#F4C52E"/>
<path d="M44.4969 90.7998C41.5969 90.7998 38.5969 90.7998 35.6969 90.7998C34.5969 90.7998 33.7969 90.1998 33.7969 89.2998C33.7969 88.3998 34.4969 87.7998 35.5969 87.7998C41.4969 87.7998 47.3969 87.7998 53.3969 87.7998C54.4969 87.7998 55.2969 88.3998 55.2969 89.2998C55.2969 90.1998 54.5969 90.7998 53.4969 90.7998C50.4969 90.7998 47.4969 90.7998 44.4969 90.7998Z" fill="#F4C52E"/>
<path d="M44.5991 81.6001C47.5991 81.6001 50.5991 81.6001 53.6991 81.6001C54.6991 81.6001 55.3991 82.3001 55.3991 83.1001C55.3991 83.9001 54.6991 84.5001 53.6991 84.6001C53.4991 84.6001 53.2991 84.6001 53.0991 84.6001H37.3991C36.7991 84.6001 36.1991 84.6001 35.5991 84.6001C34.5991 84.6001 33.7991 83.9001 33.8991 83.1001C33.8991 82.3001 34.5991 81.6001 35.5991 81.6001C38.5991 81.6001 41.5991 81.6001 44.5991 81.6001Z" fill="#F4C52E"/>
</g>
<defs>
<clipPath id="clip0">
<rect width="83" height="80" fill="white" transform="translate(0 20)"/>
</clipPath>
</defs>
</svg>
