<svg width="100" height="100" viewBox="0 0 100 100" fill="none" xmlns="http://www.w3.org/2000/svg">
<g clip-path="url(#clip0)">
<path d="M42.7027 89.5997C35.7027 89.5997 29.3027 89.1997 23.0027 88.0997C19.5027 87.4997 16.0027 86.6997 12.9027 84.8997C11.8027 84.1997 10.8027 83.3997 10.0027 82.3997C8.90266 81.0997 9.20266 79.9997 10.3027 78.7997C14.6027 74.4997 18.7027 69.8997 21.7027 64.4997C23.3027 61.6997 24.2027 58.7997 24.1027 55.4997C24.0027 52.3997 24.0027 49.3997 24.1027 46.2997C24.4027 38.4997 27.7027 32.3997 34.6027 28.3997C35.1027 28.0997 35.3027 27.7997 35.3027 27.2997C35.6027 24.0997 38.3027 21.3997 41.4027 21.1997C44.4027 20.9997 47.4027 23.0997 48.2027 26.0997C48.4027 26.6997 48.7027 26.9997 49.3027 27.1997C56.9027 30.0997 61.2027 35.7997 62.2027 43.7997C62.7027 47.3997 62.6027 51.1997 62.4027 54.7997C62.2027 59.7997 63.8027 64.0997 66.3027 68.1997C68.8027 72.0997 71.7027 75.5997 75.0027 78.6997C76.2027 79.8997 76.0027 80.9997 75.3027 82.0997C74.5027 83.2997 73.3027 84.0997 72.1027 84.7997C69.1027 86.3997 65.9027 87.1997 62.6027 87.7997C55.7027 89.1997 48.9027 89.5997 42.7027 89.5997ZM42.0027 86.2997C49.8027 86.2997 57.7027 85.7997 65.3027 83.8997C67.4027 83.3997 69.5027 82.4997 71.5027 81.6997C72.5027 81.2997 72.5027 80.9997 71.7027 80.1997C68.6027 76.9997 65.8027 73.5997 63.5027 69.8997C60.6027 65.2997 58.8027 60.2997 59.1027 54.6997C59.3027 51.7997 59.2027 48.7997 59.1027 45.8997C59.0027 44.3997 58.9027 42.7997 58.5027 41.2997C55.2027 28.9997 41.9027 26.8997 34.3027 32.0997C29.6027 35.2997 27.5027 39.9997 27.3027 45.5997C27.2027 48.7997 27.2027 51.9997 27.3027 55.0997C27.5027 59.1997 26.2027 62.8997 24.2027 66.3997C21.4027 71.2997 17.8027 75.5997 13.9027 79.6997C12.5027 81.1997 12.5027 81.4997 14.5027 82.2997C16.7027 83.0997 18.9027 83.8997 21.2027 84.3997C28.0027 85.8997 35.0027 86.2997 42.0027 86.2997ZM38.8027 26.5997C40.8027 26.3997 42.8027 26.2997 44.8027 26.0997C44.3027 24.7997 42.9027 24.2997 41.1027 24.4997C39.7027 24.6997 38.9027 25.4997 38.8027 26.5997Z" fill="#F4C52E"/>
<path d="M86.0037 44.2999C86.0037 49.8998 85.0038 54.9999 82.9038 59.8999C82.4038 61.0999 81.3038 61.4999 80.4038 60.7999C79.7038 60.2999 79.6037 59.5998 80.0037 58.4999C80.8038 56.0998 81.7037 53.7999 82.2037 51.3999C84.5037 39.2999 81.4037 28.5999 73.1037 19.4999C72.9037 19.2999 72.7037 19.0999 72.5037 18.8999C71.7037 18.0999 71.7038 17.0999 72.4038 16.4999C73.1038 15.7999 74.0038 15.8999 74.8038 16.6999C77.2038 19.0999 79.3038 21.7999 80.9038 24.7999C84.3038 30.8999 86.0037 37.4999 86.0037 44.2999Z" fill="#F4C52E"/>
<path d="M0.00189758 43C0.201898 33.7 3.7019 24.5 11.1019 16.8C11.8019 16 12.5019 15.9 13.3019 16.2C14.3019 16.7 14.4019 17.9 13.6019 18.9C12.2019 20.5 10.7019 22.1 9.5019 23.9C3.9019 32.1 2.0019 41.1 3.8019 50.9C4.3019 53.5 5.3019 56.1 6.1019 58.6C6.4019 59.7 6.2019 60.6 5.2019 61C4.3019 61.4 3.5019 60.9 3.0019 59.9C1.1019 55.5 -0.0981024 49.5 0.00189758 43Z" fill="#F4C52E"/>
<path d="M12 45.4C12.2 36.5 14.9 29.3 20.6 23.4C20.9 23.1 21.3 22.8 21.8 22.7C22.5 22.5 23.1 22.8 23.5 23.5C23.9 24.2 23.8 24.9 23.2 25.5C22.1 26.8 20.8 28.1 19.9 29.6C14.6 37.5 13.8 46 17.3 55C17.4 55.2 17.5 55.4 17.6 55.6C17.9 56.6 17.6 57.4 16.7 57.8C15.9 58.1 14.9 57.8 14.6 56.8C13.8 54.5 13.1 52.1 12.5 49.8C12.1 48.2 12.1 46.5 12 45.4Z" fill="#F4C52E"/>
<path d="M74.2016 44.8999C74.1016 48.9999 73.3016 52.8999 71.7016 56.6999C71.2016 57.7999 70.3016 58.1999 69.4016 57.7999C68.6016 57.3999 68.4016 56.4999 68.7016 55.4999C69.4016 53.1999 70.3016 50.9999 70.6016 48.6999C71.8016 41.4999 70.1016 34.8999 65.9016 28.9999C65.1016 27.7999 64.0016 26.6999 63.1016 25.5999C62.3016 24.5999 62.2016 23.6999 63.0016 22.9999C63.7016 22.2999 64.7016 22.3999 65.5016 23.2999C70.3016 28.2999 73.1016 34.2999 73.9016 41.0999C74.0016 42.3999 74.1016 43.5999 74.2016 44.8999Z" fill="#F4C52E"/>
<path d="M41.8022 99.9999C38.5022 99.9999 35.4022 97.0999 35.2022 93.6999C35.1022 92.4999 35.7022 91.6999 36.7022 91.6999C37.7022 91.5999 38.4022 92.2999 38.5022 93.4999C38.7022 95.9999 40.4022 97.1999 42.9022 96.5999C44.4022 96.1999 45.1022 95.2999 45.2022 93.3999C45.3022 92.6999 45.5022 91.9999 46.2022 91.8999C46.7022 91.7999 47.4022 91.8999 47.8022 92.1999C48.2022 92.4999 48.4022 93.1999 48.4022 93.6999C48.4022 96.8999 45.2022 99.9999 41.8022 99.9999Z" fill="#F4C52E"/>
</g>
<defs>
<clipPath id="clip0">
<rect width="86" height="84" fill="white" transform="translate(0 16)"/>
</clipPath>
</defs>
</svg>
