<svg width="100" height="100" viewBox="0 0 100 100" fill="none" xmlns="http://www.w3.org/2000/svg">
<g clip-path="url(#clip0)">
<path d="M22.1 46.1V52.9C22.1 67.9 22.1 82.8 22.1 97.8C22.1 99.5 21.6 100 19.9 100C14 100 8 100 2.1 100C0.6 100 0 99.5 0 98C0 76.6 0 55.2 0 33.8C0 31.2 0 28.6 0 26C0 24.5 0.5 24 1.9 24C19.4 24 36.9 24 54.4 24C60.8 24 67.3 24 73.7 24C75.5 24 76 24.5 76 26.2C76 32.2 76 38.1 76 44.1C76 45.6 75.5 46.1 73.9 46.1C57 46.1 40 46.1 23.1 46.1H22.1ZM58.6 43V42C58.6 40.3 58.6 38.6 58.6 36.9C58.6 35.9 59.3 35.2 60.2 35.2C61.1 35.2 61.7 35.9 61.7 36.9C61.7 38.6 61.7 40.3 61.7 42V43.1H64.9C64.9 42.6 64.9 42.1 64.9 41.7C64.9 41.1 64.9 40.5 64.9 40C64.9 39.1 65.7 38.4 66.5 38.5C67.3 38.5 68 39.2 68 40C68 41 68 42.1 68 43.1H72.7V27.2H22.2V43H26.9C26.9 42.4 26.9 41.8 26.9 41.2C26.9 40.8 26.9 40.3 26.9 39.9C26.9 39 27.6 38.4 28.4 38.4C29.2 38.4 30 39.1 30 39.9C30 40.9 30 42 30 43H33.2C33.2 42.5 33.2 42 33.2 41.6C33.2 41 33.2 40.4 33.2 39.9C33.2 39 33.9 38.4 34.7 38.4C35.5 38.4 36.2 39.1 36.3 40C36.3 41 36.3 42.1 36.3 43.1H39.5C39.5 41 39.5 39.1 39.5 37.1C39.5 36 40.1 35.3 41 35.3C41.9 35.3 42.6 36 42.6 37.1C42.6 38.8 42.6 40.6 42.6 42.3C42.6 42.6 42.6 42.9 42.7 43.1H45.7C45.7 43 45.8 43 45.8 42.9C45.8 42 45.8 41.2 45.8 40.3C45.8 39.2 46.4 38.4 47.4 38.4C48.3 38.4 49 39.2 49 40.3C49 41.2 49 42.1 49 43.1H52.2C52.2 42.1 52.2 41.2 52.2 40.2C52.2 39.1 52.9 38.4 53.8 38.4C54.7 38.4 55.3 39.1 55.3 40.2C55.3 41.1 55.3 42.1 55.3 43.1H58.6V43ZM3.2 46.2V96.8H19V92.1C17.9 92.1 16.9 92.1 15.9 92.1C15 92.1 14.3 91.4 14.3 90.6C14.3 89.8 15 89.1 15.9 89C16.3 89 16.6 89 17 89C17.7 89 18.3 89 19 89V85.8H18.1C16.3 85.8 14.6 85.8 12.8 85.8C11.8 85.8 11.1 85.1 11.1 84.2C11.1 83.3 11.8 82.7 12.8 82.6C14.1 82.6 15.5 82.6 16.8 82.6H19V79.5C18.9 79.5 18.8 79.4 18.8 79.4C18 79.4 17.2 79.4 16.3 79.4C15 79.4 14.3 78.8 14.3 77.8C14.3 76.8 15.1 76.3 16.3 76.3C17.2 76.3 18.1 76.3 19 76.3V73.1C18 73.1 17.2 73.1 16.3 73.1C15.1 73.1 14.3 72.5 14.4 71.5C14.4 70.6 15.2 70 16.3 70C17.2 70 18.1 70 19.1 70V66.8C17 66.8 15 66.8 13 66.8C12 66.8 11.3 66.2 11.2 65.3C11.2 64.4 11.9 63.7 13 63.7C14.7 63.7 16.5 63.7 18.2 63.7C18.5 63.7 18.8 63.7 19 63.7V60.5C18 60.5 17 60.5 16 60.5C15.1 60.5 14.5 60 14.3 59.2C14.1 58.3 14.9 57.4 15.9 57.4C16.9 57.4 17.9 57.4 19 57.4V54.2C17.9 54.2 16.9 54.2 15.9 54.2C15 54.2 14.3 53.5 14.3 52.6C14.3 51.8 15 51.1 15.9 51C16.2 51 16.6 51 16.9 51C17.6 51 18.3 51 19 51V46.2H3.2ZM19 27.2H3.2V43H19V27.2Z" fill="#F4C52E"/>
<path d="M47.5007 59.4998C46.4007 60.5998 45.6007 61.5998 44.7007 62.4998C41.5007 65.6998 38.2007 68.8998 35.0007 72.0998C34.9007 72.1998 34.8007 72.2998 34.7007 72.3998C34.0007 72.9998 33.1007 72.9998 32.5007 72.3998C31.9007 71.7998 31.9007 70.8998 32.6007 70.1998C33.9007 68.7998 35.3007 67.4998 36.6007 66.1998C39.8007 63.0998 42.9007 59.8998 46.1007 56.7998C47.2007 55.7998 48.0007 55.7998 49.0007 56.7998C51.0007 58.7998 52.9007 60.6998 54.9007 62.6998C55.0007 62.7998 55.2007 62.8998 55.5007 63.0998V59.7998C55.5007 59.4998 55.5007 59.1998 55.5007 58.8998C55.5007 57.8998 56.2007 57.1998 57.0007 57.1998C57.9007 57.1998 58.6007 57.8998 58.6007 58.8998C58.6007 61.0998 58.6007 63.1998 58.6007 65.3998C58.6007 65.9998 58.7007 66.3998 59.2007 66.7998C60.3007 67.7998 61.3007 68.8998 62.4007 69.9998C63.2007 70.7998 63.2007 71.6998 62.6007 72.3998C61.9007 73.0998 61.0007 72.9998 60.2007 72.1998C56.2007 68.2998 52.2007 64.2998 48.3007 60.3998C48.0007 60.1998 47.9007 59.9998 47.5007 59.4998Z" fill="#F4C52E"/>
<path d="M39.5984 81H55.3984C55.3984 80.7 55.3984 80.4 55.3984 80.1C55.3984 77.9 55.3984 75.6 55.3984 73.4C55.3984 72.3 56.0984 71.5 56.9984 71.5C57.8984 71.5 58.4984 72.3 58.4984 73.4C58.4984 76.4 58.4984 79.4 58.4984 82.3C58.4984 83.5 57.8984 84.1 56.6984 84.1C50.4984 84.1 44.3984 84.1 38.1984 84.1C36.9984 84.1 36.3984 83.5 36.3984 82.3C36.3984 79.3 36.3984 76.3 36.3984 73.3C36.3984 72.3 36.9984 71.5 37.8984 71.5C38.7984 71.5 39.4984 72.2 39.4984 73.3C39.4984 75.5 39.4984 77.7 39.4984 80V81H39.5984Z" fill="#F4C52E"/>
<path d="M72.8992 96.9002C72.8992 96.3002 72.8992 95.8002 72.8992 95.3002C72.8992 94.4002 73.5992 93.7002 74.4992 93.7002C75.2992 93.7002 75.9992 94.4002 75.9992 95.3002C75.9992 96.3002 75.9992 97.3002 75.9992 98.3002C75.9992 99.3002 75.3992 99.9002 74.3992 100C73.3992 100 72.3992 100 71.3992 100C70.3992 100 69.6992 99.3002 69.6992 98.4002C69.6992 97.5002 70.3992 96.9002 71.2992 96.8002C71.7992 96.9002 72.2992 96.9002 72.8992 96.9002Z" fill="#F4C52E"/>
<path d="M51.1016 99.9999C50.2016 99.9999 49.3016 99.9999 48.3016 99.9999C47.3016 99.9999 46.6016 99.2999 46.6016 98.3999C46.6016 97.4999 47.3016 96.8999 48.3016 96.8999C50.1016 96.8999 52.0016 96.8999 53.8016 96.8999C54.8016 96.8999 55.5016 97.5999 55.4016 98.4999C55.4016 99.3999 54.7016 99.9999 53.7016 100.1C53.0016 99.9999 52.1016 99.9999 51.1016 99.9999Z" fill="#F4C52E"/>
<path d="M62.6986 96.8999C63.5986 96.8999 64.4986 96.8999 65.3986 96.8999C66.3986 96.8999 67.0986 97.4999 67.0986 98.3999C67.0986 99.2999 66.3986 99.9999 65.3986 99.9999C63.5986 99.9999 61.6986 99.9999 59.8986 99.9999C58.8986 99.9999 58.1986 99.2999 58.2986 98.4999C58.2986 97.5999 58.9986 96.9999 59.8986 96.8999C60.7986 96.7999 61.7986 96.8999 62.6986 96.8999Z" fill="#F4C52E"/>
<path d="M39.6008 96.8999C40.5008 96.8999 41.4008 96.8999 42.4008 96.8999C43.4008 96.8999 44.0008 97.4999 44.1008 98.3999C44.1008 99.2999 43.4008 99.9999 42.4008 99.9999C40.6008 99.9999 38.8008 99.9999 37.0008 99.9999C36.0008 99.9999 35.3008 99.2999 35.3008 98.3999C35.3008 97.4999 36.0008 96.8999 37.0008 96.8999C37.4008 96.8999 37.9008 96.8999 38.3008 96.8999C38.7008 96.8999 39.1008 96.8999 39.6008 96.8999Z" fill="#F4C52E"/>
<path d="M72.8984 64.6999C72.8984 63.7999 72.8984 62.9999 72.8984 62.0999C72.8984 61.0999 73.5984 60.3999 74.3984 60.3999C75.2984 60.3999 75.9984 61.0999 75.9984 61.9999C75.9984 63.7999 75.9984 65.5999 75.9984 67.3999C75.9984 68.2999 75.2984 69.0999 74.3984 68.9999C73.4984 68.9999 72.8984 68.2999 72.8984 67.2999C72.8984 66.8999 72.8984 66.3999 72.8984 65.9999C72.8984 65.5999 72.8984 65.1999 72.8984 64.6999Z" fill="#F4C52E"/>
<path d="M75.9984 75.9C75.9984 76.8 75.9984 77.6 75.9984 78.5C75.9984 79.5 75.2984 80.2 74.4984 80.2C73.5984 80.2 72.8984 79.5 72.8984 78.5C72.8984 76.7 72.8984 74.9 72.8984 73.1C72.8984 72.2 73.5984 71.5 74.3984 71.5C75.2984 71.5 75.9984 72.2 75.9984 73.1C75.9984 73.6 75.9984 74.1 75.9984 74.5C75.9984 75 75.9984 75.5 75.9984 75.9Z" fill="#F4C52E"/>
<path d="M75.9984 86.9C75.9984 87.8 75.9984 88.7 75.9984 89.6C75.9984 90.6 75.2984 91.3 74.3984 91.2C73.4984 91.2 72.8984 90.5 72.8984 89.5C72.8984 87.7 72.8984 86 72.8984 84.2C72.8984 83.2 73.5984 82.5 74.3984 82.5C75.2984 82.5 75.9984 83.2 75.9984 84.2C75.9984 85.2 75.9984 86.1 75.9984 86.9Z" fill="#F4C52E"/>
<path d="M72.8999 54.8002C72.8999 54.3002 72.8999 53.7002 72.8999 53.2002C72.8999 52.3002 73.5999 51.7002 74.3999 51.7002C75.1999 51.7002 75.9999 52.4002 75.9999 53.2002C75.9999 54.3002 75.9999 55.4002 75.9999 56.4002C75.9999 57.3002 75.2999 57.9002 74.4999 57.9002C73.6999 57.9002 72.9999 57.2002 72.8999 56.4002C72.7999 56.0002 72.8999 55.4002 72.8999 54.8002Z" fill="#F4C52E"/>
<path d="M29.3016 99.9999C28.8016 99.9999 28.2016 99.9999 27.7016 99.9999C26.8016 99.9999 26.1016 99.2999 26.1016 98.3999C26.1016 97.5999 26.8016 96.8999 27.7016 96.8999C28.8016 96.8999 29.8016 96.8999 30.9016 96.8999C31.8016 96.8999 32.4016 97.5999 32.4016 98.3999C32.4016 99.1999 31.7016 99.8999 30.9016 99.9999C30.3016 99.9999 29.8016 99.9999 29.3016 99.9999Z" fill="#F4C52E"/>
</g>
<defs>
<clipPath id="clip0">
<rect width="76" height="76" fill="white" transform="translate(0 24)"/>
</clipPath>
</defs>
</svg>
