<svg width="100" height="100" viewBox="0 0 100 100" fill="none" xmlns="http://www.w3.org/2000/svg">
<g clip-path="url(#clip0)">
<path d="M3.10156 40.3001H75.1016C75.1016 40.1001 75.2016 39.8001 75.2016 39.6001C75.2016 37.7001 75.2016 35.8001 75.2016 34.0001C75.2016 31.2001 73.3016 29.4001 70.5016 29.4001C67.9016 29.4001 65.3016 29.4001 62.7016 29.4001C61.8016 29.4001 61.1016 28.7001 61.1016 27.8001C61.1016 27.0001 61.8016 26.3001 62.7016 26.3001C62.8016 26.3001 62.9016 26.3001 62.9016 26.3001C65.4016 26.3001 67.9016 26.3001 70.4016 26.3001C74.5016 26.3001 78.2016 30.0001 78.2016 34.1001C78.2016 42.8001 78.2016 51.5001 78.2016 60.3001C78.2016 60.5001 78.2016 60.7001 78.2016 60.8001C78.1016 61.6001 77.4016 62.3001 76.6016 62.2001C75.8016 62.2001 75.2016 61.5001 75.1016 60.7001C75.1016 60.0001 75.1016 59.4001 75.1016 58.7001C75.1016 53.9001 75.1016 49.1001 75.1016 44.3001C75.1016 44.0001 75.1016 43.7001 75.1016 43.4001H3.10156C3.10156 43.7001 3.10156 43.9001 3.10156 44.2001C3.10156 56.4001 3.10156 68.6001 3.10156 80.8001C3.10156 83.8001 4.90156 85.7001 8.00156 85.7001C19.7016 85.7001 31.4016 85.7001 43.2016 85.7001C43.4016 85.7001 43.7016 85.7001 43.9016 85.7001C44.8016 85.7001 45.5016 86.4001 45.5016 87.2001C45.5016 88.0001 44.8016 88.7001 43.8016 88.7001C41.7016 88.7001 39.6016 88.7001 37.5016 88.7001C27.8016 88.7001 18.0016 88.7001 8.30156 88.7001C3.60156 88.7001 0.101562 85.1001 0.101562 80.5001C0.101562 65.1001 0.101562 49.7001 0.101562 34.3001C0.101562 29.7001 3.70156 26.1001 8.30156 26.1001C10.1016 26.1001 12.0016 26.1001 13.8016 26.1001C15.0016 26.1001 15.7016 26.7001 15.7016 27.7001C15.7016 28.6001 14.9016 29.2001 13.7016 29.2001C11.8016 29.2001 9.90156 29.2001 8.00156 29.2001C5.00156 29.2001 3.20156 31.0001 3.20156 34.0001C3.10156 36.2001 3.10156 38.2001 3.10156 40.3001Z" fill="#F4C52E"/>
<path d="M85.0001 81.1001C84.9001 91.5001 76.2001 100.1 65.9001 100C55.7001 99.9001 47.1001 91.1001 47.2001 80.8001C47.3001 70.7001 56.1001 62.1001 66.2001 62.2001C76.4001 62.2001 85.1001 71.0001 85.0001 81.1001ZM81.9001 81.1001C81.9001 72.1001 75.0001 65.2001 66.1001 65.2001C57.1001 65.2001 50.2001 72.0001 50.2001 81.0001C50.2001 90.0001 57.0001 96.9001 66.0001 96.9001C75.0001 96.9001 81.9001 90.0001 81.9001 81.1001Z" fill="#F4C52E"/>
<path d="M21.9008 26.3C21.9008 27.8 21.9008 29.3 21.9008 30.8C21.9008 31.8 21.3008 32.5 20.4008 32.5C19.5008 32.5 18.8008 31.8 18.8008 30.7C18.8008 27.7 18.8008 24.8 18.8008 21.8C18.8008 20.7 19.5008 20 20.4008 20C21.3008 20 21.9008 20.7 21.9008 21.8C21.9008 23.3 21.9008 24.8 21.9008 26.3Z" fill="#F4C52E"/>
<path d="M40.7031 26.2C40.7031 27.7 40.7031 29.2 40.7031 30.7C40.7031 31.8 40.1031 32.5 39.2031 32.5C38.3031 32.5 37.7031 31.8 37.7031 30.7C37.7031 27.7 37.7031 24.8 37.7031 21.8C37.7031 20.7 38.4031 20 39.3031 20C40.2031 20 40.8031 20.7 40.8031 21.8C40.7031 23.2 40.7031 24.7 40.7031 26.2Z" fill="#F4C52E"/>
<path d="M56.4023 26.2C56.4023 24.7 56.4023 23.2 56.4023 21.7C56.4023 20.7 57.1023 20 58.0023 20C58.9023 20 59.5023 20.7 59.5023 21.8C59.5023 24.8 59.5023 27.8 59.5023 30.8C59.5023 31.8 58.8023 32.5 58.0023 32.5C57.1023 32.5 56.5023 31.8 56.5023 30.8C56.4023 29.3 56.4023 27.7 56.4023 26.2Z" fill="#F4C52E"/>
<path d="M29.7023 29.3998C28.2023 29.3998 26.7023 29.3998 25.2023 29.3998C24.1023 29.3998 23.4023 28.6998 23.4023 27.7998C23.4023 26.8998 24.1023 26.2998 25.1023 26.2998C28.1023 26.2998 31.1023 26.2998 34.1023 26.2998C35.1023 26.2998 35.8023 26.9998 35.8023 27.7998C35.8023 28.6998 35.1023 29.3998 34.0023 29.3998C32.7023 29.3998 31.2023 29.3998 29.7023 29.3998Z" fill="#F4C52E"/>
<path d="M48.5008 29.3998C47.0008 29.3998 45.6008 29.3998 44.1008 29.3998C43.0008 29.3998 42.3008 28.7998 42.3008 27.8998C42.3008 26.9998 43.0008 26.2998 44.1008 26.2998C47.0008 26.2998 50.0008 26.2998 52.9008 26.2998C54.0008 26.2998 54.7008 26.9998 54.7008 27.8998C54.7008 28.7998 54.0008 29.3998 52.9008 29.3998C51.5008 29.3998 50.0008 29.3998 48.5008 29.3998Z" fill="#F4C52E"/>
<path d="M37.5008 54.7001C37.5008 56.2001 35.9008 57.8001 34.4008 57.8001C32.9008 57.8001 31.3008 56.2001 31.3008 54.7001C31.3008 53.2001 32.9008 51.6001 34.4008 51.6001C35.9008 51.7001 37.5008 53.2001 37.5008 54.7001Z" fill="#F4C52E"/>
<path d="M56.4031 57.8002C54.9031 57.8002 53.3031 56.3002 53.2031 54.8002C53.2031 53.3002 54.7031 51.7002 56.2031 51.7002C57.7031 51.7002 59.3031 53.2002 59.4031 54.7002C59.5031 56.2002 57.9031 57.8002 56.4031 57.8002Z" fill="#F4C52E"/>
<path d="M67.4008 57.8001C65.9008 57.8001 64.3008 56.2001 64.3008 54.7001C64.3008 53.2001 65.9008 51.6001 67.4008 51.6001C68.9008 51.6001 70.5008 53.2001 70.5008 54.7001C70.5008 56.2001 68.9008 57.8001 67.4008 57.8001Z" fill="#F4C52E"/>
<path d="M12.5023 62.6001C14.0023 62.6001 15.6023 64.2001 15.6023 65.7001C15.6023 67.2001 14.0023 68.8001 12.5023 68.8001C11.0023 68.8001 9.40234 67.2001 9.40234 65.8001C9.40234 64.2001 11.0023 62.6001 12.5023 62.6001Z" fill="#F4C52E"/>
<path d="M23.5023 62.6001C25.0023 62.6001 26.6023 64.2001 26.6023 65.7001C26.6023 67.2001 25.0023 68.8001 23.5023 68.8001C22.0023 68.8001 20.4023 67.2001 20.4023 65.7001C20.4023 64.2001 22.0023 62.6001 23.5023 62.6001Z" fill="#F4C52E"/>
<path d="M48.5008 65.6998C48.5008 67.1998 46.8008 68.7998 45.4008 68.7998C43.9008 68.7998 42.3008 67.1998 42.3008 65.6998C42.3008 64.1998 43.9008 62.5998 45.4008 62.6998C47.0008 62.6998 48.5008 64.2998 48.5008 65.6998Z" fill="#F4C52E"/>
<path d="M12.5023 73.6001C14.0023 73.6001 15.6023 75.2001 15.6023 76.7001C15.6023 78.2001 13.9023 79.8001 12.5023 79.7001C11.0023 79.7001 9.40234 78.1001 9.40234 76.6001C9.40234 75.1001 11.0023 73.6001 12.5023 73.6001Z" fill="#F4C52E"/>
<path d="M37.6023 76.7001C37.6023 78.2001 35.9023 79.8001 34.5023 79.8001C33.0023 79.8001 31.4023 78.2001 31.4023 76.7001C31.4023 75.2001 33.0023 73.6001 34.5023 73.6001C36.0023 73.6001 37.6023 75.2001 37.6023 76.7001Z" fill="#F4C52E"/>
<path d="M45.4008 57.7998C43.9008 57.7998 42.3008 56.0998 42.3008 54.6998C42.3008 53.1998 44.0008 51.5998 45.5008 51.6998C47.0008 51.6998 48.6008 53.3998 48.6008 54.7998C48.5008 56.2998 46.8008 57.8998 45.4008 57.7998Z" fill="#F4C52E"/>
<path d="M37.6023 65.7001C37.6023 67.2001 36.0023 68.8001 34.5023 68.8001C33.0023 68.8001 31.4023 67.2001 31.4023 65.7001C31.4023 64.2001 33.0023 62.6001 34.5023 62.6001C36.0023 62.6001 37.6023 64.3001 37.6023 65.7001Z" fill="#F4C52E"/>
<path d="M26.6023 76.7001C26.6023 78.2001 25.0023 79.8001 23.5023 79.8001C22.0023 79.8001 20.4023 78.2001 20.4023 76.7001C20.4023 75.2001 22.0023 73.6001 23.5023 73.6001C25.0023 73.6001 26.6023 75.2001 26.6023 76.7001Z" fill="#F4C52E"/>
<path d="M66.0016 82.8C65.6016 82.5 65.0016 82.2 64.7016 81.8C62.6016 78.5 60.5016 75.1 58.4016 71.7C57.8016 70.7 58.1016 69.7 59.1016 69.3C59.9016 69 60.5016 69.3 61.1016 70.2C62.8016 72.9 64.5016 75.6 66.2016 78.4C66.6016 79.1 67.0016 79.2 67.8016 78.9C69.7016 78.2 71.6016 77.5 73.5016 76.9C74.3016 76.6 75.0016 76.9 75.4016 77.5C75.8016 78.1 75.8016 78.8 75.3016 79.3C75.1016 79.5 74.8016 79.7 74.5016 79.8C71.9016 80.7 69.4016 81.7 66.8016 82.6C66.6016 82.7 66.4016 82.7 66.3016 82.7C66.1016 82.7 66.0016 82.7 66.0016 82.8Z" fill="#F4C52E"/>
</g>
<defs>
<clipPath id="clip0">
<rect width="85" height="80" fill="white" transform="translate(0 20)"/>
</clipPath>
</defs>
</svg>
