<svg width="100" height="100" viewBox="0 0 100 100" fill="none" xmlns="http://www.w3.org/2000/svg">
<path d="M43.5 32C55.1 32 66.8 32 78.4 32C83.1 32 87 35.9 87 40.6C87 57.5 87 74.4 87 91.3C87 95.8 83.5 99.4 79.6 99.9C79.2 100 78.7 100 78.2 100C55 100 31.8 100 8.7 100C3.9 100 0 95.9 0 91.3C0.1 74.5 0.1 57.6 0 40.8C0 36 4.1 32 8.9 32C20.4 32.1 31.9 32 43.5 32ZM83.7 53.6H3.3V54.6C3.3 66.9 3.3 79.3 3.3 91.6C3.3 94.8 5.3 96.7 8.5 96.7C18.2 96.7 27.8 96.7 37.5 96.7C38.4 96.7 39.2 96.7 40 96.7C40.5 96.1 40.9 95.7 41.3 95.2C44.8 91.5 48.2 87.7 51.7 84C51.9 83.8 52.1 83.5 52.4 83.3C53 82.8 54 82.9 54.5 83.4C55.1 83.9 55.2 84.8 54.8 85.5C54.6 85.8 54.3 86.1 54.1 86.4C51.2 89.5 48.4 92.6 45.5 95.6C45.2 95.9 44.9 96.3 44.5 96.8H45.9C52.3 96.8 58.7 96.8 65 96.8C69.6 96.8 74.2 96.8 78.8 96.8C81.3 96.8 83.1 95.3 83.6 92.9C83.7 92.4 83.7 91.9 83.7 91.4C83.7 79.2 83.7 67.1 83.7 54.9V53.6ZM83.7 50.2C83.7 46.6 83.7 43.1 83.7 39.6C83.7 38.3 83.1 37.2 82.1 36.4C81.1 35.5 79.8 35.3 78.5 35.3C71.7 35.3 64.8 35.3 58 35.3C41.5 35.3 25 35.3 8.6 35.3C5.4 35.3 3.5 37.2 3.4 40.4C3.4 43.4 3.4 46.5 3.4 49.5C3.4 49.7 3.4 50 3.5 50.2H83.7Z" fill="#1AA5B8"/>
<path d="M45.1008 63.6999C45.1008 64.3999 45.1008 65.1999 45.1008 65.8999C45.1008 66.8999 44.4008 67.5999 43.5008 67.5999C42.6008 67.5999 41.9008 66.8999 41.8008 65.7999C41.8008 64.3999 41.8008 62.9999 41.8008 61.5999C41.8008 60.5999 42.5008 59.8999 43.4008 59.8999C44.4008 59.8999 45.0008 60.4999 45.1008 61.5999C45.2008 62.3999 45.1008 62.9999 45.1008 63.6999Z" fill="#1AA5B8"/>
<path d="M17.7991 91.5002C17.0991 91.5002 16.2991 91.5002 15.5991 91.5002C14.6991 91.5002 14.0991 90.9002 13.9991 90.1002C13.8991 89.2002 14.4991 88.4002 15.3991 88.4002C16.9991 88.3002 18.4991 88.3002 20.0991 88.4002C20.9991 88.4002 21.5991 89.2002 21.5991 90.1002C21.4991 91.0002 20.8991 91.6002 19.8991 91.6002C19.0991 91.5002 18.4991 91.5002 17.7991 91.5002Z" fill="#1AA5B8"/>
<path d="M69.1984 91.5001C68.4984 91.5001 67.7984 91.5001 67.0984 91.5001C66.0984 91.5001 65.4984 90.9001 65.3984 90.0001C65.3984 89.1001 65.9984 88.3001 66.9984 88.3001C68.4984 88.2001 69.9984 88.2001 71.4984 88.3001C72.3984 88.3001 72.9984 89.1001 72.9984 90.0001C72.9984 90.9001 72.2984 91.5001 71.3984 91.5001C70.6984 91.5001 69.9984 91.5001 69.1984 91.5001Z" fill="#1AA5B8"/>
<path d="M66.7985 73.5C67.5985 73.5 68.2985 74 68.4985 74.7C68.6985 75.4 68.4985 76.1 67.7985 76.5C67.1985 76.9 66.5985 77.1 66.0985 77.4C65.3985 77.8 64.6985 78.1 63.9985 78.5C63.0985 78.9 62.1985 78.7 61.6985 77.9C61.1985 77.1 61.4985 76.1 62.4985 75.6C63.6985 74.9 64.9985 74.3 66.1985 73.7C66.3985 73.6 66.5985 73.6 66.7985 73.5Z" fill="#1AA5B8"/>
<path d="M32.6016 69.0998C32.6016 69.7998 32.1016 70.4998 31.5016 70.6998C30.9016 70.8998 30.1016 70.6998 29.7016 70.1998C28.9016 68.8998 28.1016 67.4998 27.5016 66.0998C27.1016 65.2998 27.6016 64.3998 28.3016 64.0998C29.0016 63.7998 29.9016 63.9998 30.3016 64.6998C31.1016 65.9998 31.8016 67.3998 32.5016 68.6998C32.6016 68.7998 32.6016 68.9998 32.6016 69.0998Z" fill="#1AA5B8"/>
<path d="M24.8016 76.9998C24.7016 78.2998 23.5016 79.0998 22.4016 78.5998C21.0016 77.9998 19.7016 77.1998 18.4016 76.3998C17.7016 75.9998 17.6016 75.0998 17.9016 74.3998C18.3016 73.5998 19.2016 73.2998 19.9016 73.6998C21.2016 74.3998 22.6016 75.0998 23.8016 75.7998C24.3016 75.9998 24.5016 76.5998 24.8016 76.9998Z" fill="#1AA5B8"/>
<path d="M58.8 65.6002C58.8 65.7002 58.8 66.0002 58.7 66.2002C58 67.5002 57.3 68.8002 56.6 70.0002C56.3 70.6002 55.7 70.8002 55 70.7002C54.4 70.6002 53.9 70.2002 53.7 69.6002C53.6 69.3002 53.6 68.9002 53.7 68.6002C54.4 67.2002 55.1 65.8002 55.9 64.5002C56.3 63.9002 57.1 63.7002 57.7 63.9002C58.4 64.2002 58.8 64.8002 58.8 65.6002Z" fill="#1AA5B8"/>
<path d="M10.0992 45.5C8.49922 45.5 6.79922 43.9 6.69922 42.3C6.69922 40.7 8.39922 39 9.99922 39C11.5992 39 13.2992 40.7 13.2992 42.3C13.2992 43.9 11.5992 45.5 10.0992 45.5Z" fill="#1AA5B8"/>
<path d="M19.9992 45.5C18.3992 45.5 16.6992 43.8 16.6992 42.2C16.7992 40.6 18.4992 39 20.1992 39C21.7992 39 23.3992 40.7 23.3992 42.2C23.3992 43.9 21.6992 45.5 19.9992 45.5Z" fill="#1AA5B8"/>
<path d="M30.0987 39C31.6987 39 33.3987 40.6 33.4987 42.2C33.4987 43.8 31.7987 45.5 30.1987 45.5C28.5987 45.5 26.8987 43.8 26.8987 42.2C26.7987 40.7 28.4987 39.1 30.0987 39Z" fill="#1AA5B8"/>
</svg>
