<svg width="100" height="100" viewBox="0 0 100 100" fill="none" xmlns="http://www.w3.org/2000/svg">
<path d="M0 63.4C0 53.9 0 44.5 0 35C0 34.1 0.3 33.4 0.9 32.8C5.6 28.2 10.2 23.5 14.9 18.9C15.5 18.3 16.1 18 17 18C29.3 18 41.5 18 53.8 18C58.7 18 62.4 21.7 62.4 26.6C62.4 33.3 62.4 40.1 62.4 46.8C62.4 47 62.4 47.2 62.4 47.4C62.3 48.4 61.6 49.1 60.8 49C59.9 49 59.2 48.3 59.2 47.3C59.2 44.8 59.2 42.2 59.2 39.7C59.2 35.2 59.2 30.7 59.2 26.3C59.2 23 57.3 21.1 54 21.1C42 21.1 30 21.1 18 21.1C17.3 21.1 16.8 21.3 16.3 21.8C12.2 26 8 30.1 3.8 34.3C3.4 34.7 3.1 35.3 3.1 35.9C3.1 54.4 3.1 73 3.1 91.5C3.1 94.9 5 96.7 8.3 96.7C23.5 96.7 38.7 96.7 53.8 96.7C57.1 96.7 59 94.8 59 91.5C59 89.5 59 87.5 59 85.6C59 84.4 59.6 83.6 60.6 83.6C61.6 83.6 62.2 84.4 62.2 85.6C62.2 88.1 62.3 90.7 62 93.2C61.7 97.1 58 100 54.1 100C38.8 100 23.5 100 8.3 100C3.8 100 0 96.2 0 91.7C0 82.3 0 72.8 0 63.4Z" fill="#1AA5B8"/>
<path d="M79.0001 60.4C78.8001 60.8 78.6001 61.3 78.2001 61.7C70.7001 69.2 63.2001 76.7 55.7001 84.2C54.9001 85 53.9001 85 53.2001 84.3C52.5001 83.6 52.6001 82.7 53.5001 81.9C60.5001 74.9 67.6001 67.8 74.7001 60.8C75.3001 60.2 75.5001 59.7 75.2001 58.9C74.6001 57.6 74.5001 56.2 73.5001 55C72.0001 53.2 70.0001 52.5 67.8001 52.1C67.4001 52 66.9001 52.3 66.6001 52.6C59.7001 59.5 52.8001 66.5 45.9001 73.4C45.7001 73.6 45.4001 73.9 45.2001 74.1C44.5001 74.7 43.7001 74.6 43.1001 74.1C42.5001 73.5 42.5001 72.6 43.0001 71.9C43.2001 71.7 43.3001 71.6 43.5001 71.4C50.7001 64.1 58.0001 56.9 65.2001 49.6C66.1001 48.7 67.0001 48.4 68.1001 48.9C68.3001 49 68.5001 49 68.7001 49.1C72.0001 49.5 74.5001 51.2 76.6001 53.8C76.7001 54 77.0001 54.1 77.1001 54.3C77.6001 56.1 78.3001 58.2 79.0001 60.4Z" fill="#1AA5B8"/>
<path d="M49.1004 79.6999C48.6004 79.2999 48.0004 78.9999 47.8004 78.5999C47.6004 78.1999 47.7004 77.4999 47.9004 76.9999C48.0004 76.6999 48.4004 76.3999 48.6004 76.1999C55.3004 69.5999 62.0004 62.9999 68.7004 56.2999C68.9004 56.0999 69.2004 55.7999 69.5004 55.5999C70.2004 55.0999 70.9004 55.1999 71.6004 55.7999C72.2004 56.3999 72.2004 57.0999 71.7004 57.8999C71.5004 58.1999 71.3004 58.3999 71.1004 58.5999C64.3004 65.2999 57.6004 71.9999 50.8004 78.6999C50.3004 78.9999 49.8004 79.2999 49.1004 79.6999Z" fill="#1AA5B8"/>
<path d="M38.9983 88.2C42.7983 87.3 46.2983 86.4 49.8983 85.5C50.9983 85.2 51.8983 85.6 52.0983 86.5C52.3983 87.5 51.7983 88.3 50.6983 88.6C46.7983 89.6 42.8983 90.6 38.9983 91.6C37.0983 92.1 35.1983 90.3 35.6983 88.4C36.6983 84.4 37.7983 80.4 38.8983 76.4C39.0983 75.5 39.6983 75 40.6983 75.1C41.5983 75.2 41.9983 75.8 42.0983 76.6C42.0983 77 41.9983 77.4 41.8983 77.8C40.9983 81.1 40.1983 84.3 39.2983 87.6C39.0983 87.7 39.0983 87.8 38.9983 88.2Z" fill="#1AA5B8"/>
<path d="M9.3 34.5001C10.5 34.4001 11.7 34.4001 12.9 34.2001C15.1 33.7001 16.5 31.9001 16.5 29.7001C16.5 28.1001 16.5 26.5001 16.5 24.9001C16.5 23.7001 17.2 22.9001 18.2 23.0001C19.1 23.0001 19.8 23.8001 19.8 24.9001C19.8 26.9001 19.9 28.9001 19.6 30.8001C19 34.6001 15.3 37.6001 11.4 37.7001C9.9 37.7001 8.5 37.7001 7 37.7001C5.7 37.6001 5 37.0001 5 36.0001C5 35.1001 5.7 34.4001 6.9 34.4001C7.6 34.4001 8.5 34.4001 9.3 34.5001Z" fill="#1AA5B8"/>
</svg>
