<svg width="100" height="100" viewBox="0 0 100 100" fill="none" xmlns="http://www.w3.org/2000/svg">
<g clip-path="url(#clip0)">
<path d="M20.2977 18.4C17.6977 18.4 15.1977 18.3 12.6977 18.4C10.1977 18.6 8.49766 20.6 8.49766 23.2C8.49766 26 8.49766 28.8 8.49766 31.5C8.49766 32.8 7.79766 33.6 6.79766 33.6C5.79766 33.6 5.19766 32.8 5.19766 31.5C5.19766 28.9 5.19766 26.3 5.19766 23.7C5.09766 19 9.09766 15 13.8977 15C30.6977 15 47.5977 15 64.3977 15C68.9977 15 72.9977 19 72.9977 23.6C72.9977 46.2 72.9977 68.8 72.9977 91.4C72.9977 96 68.9977 100.1 64.3977 100.1C47.4977 100.1 30.5977 100.1 13.6977 100.1C9.09766 100.1 5.09766 96.1 5.09766 91.5C5.09766 89.4 5.09766 87.2 5.09766 85.1C5.09766 83.9 5.79766 83.1 6.69766 83.1C7.69766 83.1 8.39766 83.9 8.39766 85.1C8.39766 87.2 8.39766 89.4 8.39766 91.5C8.39766 94.7 10.3977 96.7 13.5977 96.7C15.6977 96.7 17.7977 96.7 19.9977 96.7C20.0977 96.7 20.1977 96.7 20.2977 96.6V18.4ZM23.7977 96.6C24.0977 96.6 24.3977 96.6 24.5977 96.6C37.8977 96.6 51.1977 96.6 64.4977 96.6C67.5977 96.6 69.5977 94.6 69.5977 91.5C69.5977 68.9 69.5977 46.3 69.5977 23.7C69.5977 20.2 67.6977 18.3 64.1977 18.3C50.9977 18.3 37.8977 18.3 24.6977 18.3C24.3977 18.3 24.0977 18.3 23.7977 18.3V96.6Z" fill="#1AA5B8"/>
<path d="M5.1 47.3001C5.1 45.7001 5.1 44.1001 5.1 42.5001C5.1 41.4001 5.8 40.6001 6.7 40.6001C7.7 40.6001 8.4 41.4001 8.4 42.5001C8.4 45.7001 8.4 49.0001 8.4 52.2001C8.4 53.3001 7.7 54.1001 6.7 54.1001C5.7 54.1001 5.1 53.3001 5 52.1001C5.1 50.5001 5.1 48.9001 5.1 47.3001Z" fill="#1AA5B8"/>
<path d="M5.09766 67.7C5.09766 66.1 5.09766 64.5 5.09766 62.9C5.09766 61.7 5.79766 61 6.79766 61C7.79766 61 8.49766 61.8 8.49766 63C8.49766 66.2 8.49766 69.4 8.49766 72.6C8.49766 73.8 7.79766 74.6 6.89766 74.6C5.89766 74.6 5.19766 73.8 5.19766 72.6C5.09766 70.9 5.09766 69.3 5.09766 67.7Z" fill="#1AA5B8"/>
<path d="M6 35.3999C7.3 35.3999 8.7 35.3999 10 35.3999C11.1 35.3999 11.9 36.0999 11.9 37.0999C11.9 38.0999 11.1 38.7999 10.1 38.7999C7.4 38.7999 4.7 38.7999 2 38.7999C0.8 38.7999 0 37.9999 0 37.0999C0 36.0999 0.8 35.4999 2 35.3999C3.3 35.3999 4.6 35.3999 6 35.3999Z" fill="#1AA5B8"/>
<path d="M5.89844 55.8002C7.19844 55.8002 8.59844 55.8002 9.89844 55.8002C10.9984 55.8002 11.7984 56.5002 11.7984 57.5002C11.7984 58.4002 10.9984 59.1002 9.89844 59.1002C7.19844 59.1002 4.49844 59.1002 1.79844 59.1002C0.698437 59.1002 -0.101562 58.4002 -0.101562 57.4002C-0.101562 56.4002 0.698437 55.7002 1.79844 55.7002C3.19844 55.8002 4.59844 55.8002 5.89844 55.8002Z" fill="#1AA5B8"/>
<path d="M6 79.6002C4.6 79.6002 3.3 79.6002 1.9 79.6002C0.8 79.6002 0 78.9002 0 77.9002C0 76.9002 0.8 76.2002 1.8 76.2002C4.5 76.2002 7.2 76.2002 9.9 76.2002C11 76.2002 11.8 76.9002 11.7 77.9002C11.7 78.8002 10.9 79.5002 9.8 79.5002C8.6 79.6002 7.3 79.6002 6 79.6002Z" fill="#1AA5B8"/>
<path d="M45.9978 67.0002C47.0978 65.8002 48.1978 64.8002 49.0978 63.6002C49.9978 62.6002 50.8978 62.3002 52.1978 62.7002C54.3978 63.4002 56.5978 64.0002 58.7978 64.4002C60.6978 64.8002 61.7978 66.0002 62.3978 67.7002C63.0978 69.8002 63.3978 71.9002 63.2978 74.1002C63.2978 75.0002 62.4978 75.7002 61.5978 75.7002C60.6978 75.7002 59.9978 75.0002 59.9978 74.1002C59.8978 72.8002 59.7978 71.5002 59.7978 70.2002C59.7978 70.0002 59.6978 69.8002 59.6978 69.6002C59.4978 68.4002 58.9978 67.8002 57.7978 67.5002C55.8978 67.1002 53.9978 66.6002 52.0978 66.0002C51.5978 65.9002 51.1978 66.0002 50.7978 66.4002C49.6978 67.6002 48.4978 68.9002 47.3978 70.1002C46.2978 71.3002 45.4978 71.3002 44.3978 70.1002C43.2978 68.9002 42.0978 67.7002 40.9978 66.5002C40.5978 66.0002 40.1978 65.9002 39.4978 66.0002C37.4978 66.6002 35.3978 67.1002 33.2978 67.6002C32.5978 67.8002 32.2978 68.2002 32.1978 68.8002C31.9978 70.4002 31.8978 72.0002 31.7978 73.6002C31.6978 74.9002 31.0978 75.6002 30.0978 75.6002C29.0978 75.6002 28.3978 74.8002 28.4978 73.6002C28.6978 71.6002 28.8978 69.6002 29.2978 67.7002C29.6978 65.9002 30.7978 64.7002 32.7978 64.3002C35.1978 63.8002 37.5978 63.1002 39.9978 62.4002C40.9978 62.1002 41.7978 62.4002 42.4978 63.2002C43.6978 64.6002 44.7978 65.7002 45.9978 67.0002Z" fill="#1AA5B8"/>
<path d="M54.597 49.2C54.497 51.8 53.797 54.7 52.497 57.5C51.797 59 50.697 60.2 49.197 61.1C47.097 62.4 44.997 62.1 42.997 60.8C41.697 59.9 40.597 58.7 39.897 57.3C38.197 53.9 37.297 50.3 37.897 46.5C38.297 43.4 40.397 41.2 43.397 40.5C45.197 40.1 47.097 40.1 48.897 40.6C52.797 41.7 54.697 44.5 54.597 49.2ZM41.097 48.9C41.297 52.1 41.997 55.1 44.197 57.5C45.597 59 47.397 59.1 48.497 57.5C50.797 54.3 51.597 50.7 51.097 46.8C50.997 45.7 50.297 44.8 49.297 44.3C47.197 43.3 45.097 43.2 42.997 44.2C41.197 45.1 41.197 47 41.097 48.9C41.097 48.8 41.097 48.8 41.097 48.9Z" fill="#1AA5B8"/>
</g>
<defs>
<clipPath id="clip0">
<rect width="73" height="85" fill="white" transform="translate(0 15)"/>
</clipPath>
</defs>
</svg>
