<svg width="100" height="100" viewBox="0 0 100 100" fill="none" xmlns="http://www.w3.org/2000/svg">
<g clip-path="url(#clip0)">
<path d="M75.5 60.0999C74.7 60.1999 73.9 60.0999 73 60.0999V59.1999C73 55.3999 73 51.5999 73 47.7999C73 43.9999 70.9 40.9999 67.3 39.6999C67.1 39.5999 66.9 39.4999 66.6 39.3999C67.6 37.8999 68.5 36.3999 69.4 34.8999C71.7 31.0999 70.6 26.2999 66.9 23.7999C62.2 20.6999 57.4 17.6999 52.6 14.6999C49.5 12.6999 46.4 12.8999 43.3 14.7999C43 15.0999 42.5 15.0999 42.2 14.9999C40.8 14.4999 39.4 13.9999 37.9 13.4999C35.5 12.5999 33.2 12.8999 31 14.2999C30.4 14.6999 29.8 14.7999 29.1 14.5999C27.4 14.1999 25.7 13.7999 24 13.4999C19.7 12.5999 15.5 15.2999 14.6 19.5999C13.4 25.4999 12.2 31.3999 11.1 37.2999C10.7 39.3999 10.7 39.3999 8.5 39.3999C3.6 39.3999 0 42.9999 0 47.8999C0 62.4999 0 77.0999 0 91.6999C0 96.2999 3.6 99.9999 8.3 99.9999C27.1 99.9999 46 99.9999 64.8 99.9999C69.4 99.9999 73 96.2999 73 91.6999C73 87.8999 73 84.0999 73 80.3999V79.1999C74.1 79.1999 75 79.1999 76 79.1999C78.7 79.1999 81 76.8999 81 74.1999C81 71.2999 80.9 68.3999 81 65.5999C81.2 62.4999 78.4 59.7999 75.5 60.0999ZM43.9 18.7999C45.5 16.1999 48 15.5999 50.6 17.2999C55.5 20.3999 60.4 23.4999 65.3 26.6999C67.8 28.2999 68.3 30.6999 66.8 33.1999C65.6 35.0999 64.5 36.9999 63.3 38.8999C63.1 39.0999 62.8 39.3999 62.5 39.3999C61.3 39.4999 31.1 39.3999 31.1 39.3999C31.2 39.0999 31.3 38.8999 31.4 38.6999C35.6 31.9999 39.8 25.3999 43.9 18.7999ZM30.7 19.0999C31.5 16.7999 33.5 15.5999 35.6 16.0999C36.4 16.2999 37.2 16.5999 38 16.8999C38.9 17.1999 39.7 17.4999 40.7 17.8999C39.9 19.0999 39.2 20.2999 38.5 21.3999C35 27.1999 31.3 32.9999 27.7 38.6999C27.4 39.1999 27.1 39.3999 26.6 39.3999C25.7 39.3999 24.7 39.3999 23.7 39.3999C23.8 39.0999 23.8 38.8999 23.9 38.6999C26.1 32.0999 28.4 25.5999 30.7 19.0999ZM14.9 34.1999C15.8 29.6999 16.7 25.0999 17.6 20.5999C17.7 20.0999 17.8 19.5999 18 19.0999C18.7 17.2999 20.2 16.1999 22.1 16.3999C24.1 16.5999 26 17.0999 28 17.3999C27.8 17.9999 27.6 18.4999 27.5 18.9999C25.2 25.5999 22.9 32.0999 20.5 38.6999C20.3 39.1999 20.1 39.4999 19.5 39.3999C17.7 39.3999 15.9 39.3999 13.9 39.3999C14.3 37.4999 14.6 35.7999 14.9 34.1999ZM69.9 91.9999C69.9 94.9999 68 96.8999 65 96.8999C46 96.8999 27.1 96.8999 8.1 96.8999C5 96.8999 3.2 95.0999 3.2 91.8999C3.2 77.0999 3.2 62.2999 3.2 47.4999C3.2 44.3999 5.1 42.4999 8.1 42.4999C27 42.4999 45.9 42.4999 64.9 42.4999C68.1 42.4999 69.9 44.2999 69.9 47.4999C69.9 51.3999 69.9 55.3999 69.9 59.2999C69.9 59.4999 69.9 59.6999 69.9 60.0999H69C65.2 60.0999 61.3 60.0999 57.5 60.0999C54.8 60.0999 52.5 62.3999 52.5 65.0999C52.5 68.0999 52.5 71.1999 52.5 74.1999C52.5 76.9999 54.8 79.1999 57.6 79.1999C61.4 79.1999 65.2 79.1999 69 79.1999H69.9C69.9 79.4999 70 79.7999 70 79.9999C69.9 84.0999 69.9 87.9999 69.9 91.9999ZM77.8 74.2999C77.8 75.6999 77.4 76.0999 76 76.0999C69.8 76.0999 63.5 76.0999 57.3 76.0999C56 76.0999 55.6 75.6999 55.6 74.2999C55.6 71.1999 55.6 68.0999 55.6 65.0999C55.6 63.7999 56 63.2999 57.4 63.2999C60.5 63.2999 63.7 63.2999 66.8 63.2999C69.9 63.2999 72.9 63.2999 76 63.2999C77.5 63.2999 77.9 63.6999 77.9 65.1999C77.8 68.1999 77.8 71.1999 77.8 74.2999Z" fill="#1AA5B8"/>
<path d="M42.1008 92.2001C41.4008 92.2001 40.7008 92.2001 40.0008 92.2001C39.0008 92.2001 38.3008 91.5001 38.3008 90.6001C38.3008 89.7001 39.0008 89.1001 40.0008 89.1001C41.4008 89.1001 42.8008 89.1001 44.2008 89.1001C45.2008 89.1001 46.0008 89.7001 46.0008 90.6001C46.0008 91.5001 45.3008 92.2001 44.3008 92.2001C43.9008 92.2001 43.6008 92.2001 43.2008 92.2001C42.8008 92.2001 42.5008 92.2001 42.1008 92.2001Z" fill="#1AA5B8"/>
<path d="M42.1999 47.5C42.8999 47.5 43.6999 47.5 44.3999 47.5C45.2999 47.5 45.9999 48.2 45.9999 49C45.9999 49.8 45.3999 50.5 44.4999 50.6C42.8999 50.6 41.2999 50.7 39.6999 50.6C38.7999 50.6 38.1999 49.8 38.2999 49C38.2999 48.2 38.9999 47.5 39.8999 47.5C40.5999 47.5 41.3999 47.5 42.1999 47.5Z" fill="#1AA5B8"/>
<path d="M20.9016 47.5C21.6016 47.5 22.4016 47.5 23.1016 47.5C24.0016 47.5 24.6016 48.1 24.7016 49C24.7016 49.8 24.2016 50.6 23.3016 50.6C21.7016 50.7 20.1016 50.7 18.5016 50.6C17.6016 50.6 17.1016 49.8 17.1016 49C17.1016 48.2 17.7016 47.6 18.6016 47.5C19.3016 47.5 20.1016 47.5 20.9016 47.5Z" fill="#1AA5B8"/>
<path d="M20.9016 89C21.6016 89 22.4016 89 23.1016 89C24.0016 89 24.6016 89.6 24.7016 90.5C24.7016 91.3 24.2016 92.1 23.3016 92.1C21.7016 92.2 20.1016 92.2 18.5016 92.1C17.6016 92.1 17.1016 91.3 17.1016 90.5C17.1016 89.7 17.8016 89.1 18.7016 89C19.4016 89 20.1016 89 20.9016 89Z" fill="#1AA5B8"/>
<path d="M31.4992 50.7001C30.7992 50.7001 30.0992 50.7001 29.3992 50.7001C28.3992 50.7001 27.6992 50.0001 27.6992 49.1001C27.6992 48.2001 28.3992 47.6001 29.4992 47.6001C30.8992 47.6001 32.1992 47.6001 33.5992 47.6001C34.6992 47.6001 35.3992 48.2001 35.3992 49.2001C35.3992 50.1001 34.6992 50.7001 33.5992 50.7001C32.8992 50.7001 32.1992 50.7001 31.4992 50.7001Z" fill="#1AA5B8"/>
<path d="M31.5016 88.9999C32.3016 88.9999 33.0016 88.9999 33.8016 88.9999C34.7016 88.9999 35.3016 89.5999 35.3016 90.3999C35.4016 91.1999 34.8016 91.9999 33.9016 91.9999C32.3016 92.0999 30.6016 92.0999 29.0016 91.9999C28.2016 91.9999 27.6016 91.1999 27.6016 90.3999C27.6016 89.5999 28.3016 88.8999 29.1016 88.8999C29.5016 88.8999 29.9016 88.8999 30.3016 88.8999C30.8016 88.9999 31.1016 88.9999 31.5016 88.9999Z" fill="#1AA5B8"/>
<path d="M52.8 50.7001C52.1 50.7001 51.3 50.7001 50.6 50.7001C49.6 50.7001 49 50.0001 49 49.1001C49 48.2001 49.6 47.6001 50.6 47.6001C52.1 47.6001 53.6 47.6001 55 47.6001C55.9 47.6001 56.5 48.2001 56.6 49.1001C56.7 50.0001 56.1 50.7001 55.1 50.7001C54.7 50.7001 54.3 50.7001 53.9 50.7001C53.6 50.7001 53.2 50.7001 52.8 50.7001Z" fill="#1AA5B8"/>
<path d="M52.9 89C53.6 89 54.4 89 55.1 89C56 89 56.6 89.6 56.6 90.5C56.6 91.3 56.1 92.1 55.2 92.1C53.6 92.2 52 92.2 50.4 92.1C49.5 92.1 49 91.3 49 90.5C49 89.7 49.6 89.1 50.5 89C51.3 89 52.1 89 52.9 89Z" fill="#1AA5B8"/>
<path d="M62.3007 50.7001C61.9007 50.7001 61.4007 50.7001 61.0007 50.7001C60.1007 50.6001 59.5007 49.9001 59.6007 49.1001C59.6007 48.3001 60.3007 47.7001 61.2007 47.6001C62.0007 47.6001 62.8007 47.6001 63.6007 47.6001C64.5007 47.6001 65.1007 48.3001 65.1007 49.1001C65.1007 49.9001 64.5007 50.6001 63.7007 50.7001C63.2007 50.7001 62.8007 50.6001 62.3007 50.7001Z" fill="#1AA5B8"/>
<path d="M62.3017 89C62.7017 89 63.1017 89 63.5017 89C64.4017 89.1 65.0017 89.7 65.0017 90.5C65.0017 91.3 64.4017 92 63.6017 92.1C62.7017 92.2 61.8017 92.2 60.9017 92.1C60.1017 92 59.4017 91.3 59.5017 90.5C59.6017 89.7 60.2017 89.1 61.0017 89C61.5017 89 61.9017 89 62.3017 89Z" fill="#1AA5B8"/>
<path d="M11.3009 47.4999C11.7009 47.4999 12.0009 47.4999 12.4009 47.4999C13.3009 47.4999 13.9009 48.0999 13.9009 48.8999C14.0009 49.6999 13.5009 50.4999 12.6009 50.4999C11.7009 50.5999 10.7009 50.5999 9.8009 50.4999C8.9009 50.3999 8.4009 49.5999 8.5009 48.7999C8.6009 47.9999 9.2009 47.3999 10.1009 47.3999C10.4009 47.4999 10.8009 47.4999 11.3009 47.4999Z" fill="#1AA5B8"/>
<path d="M11.2007 89C11.6007 89 12.0007 89 12.5007 89C13.3007 89.1 13.9007 89.7 14.0007 90.5C14.0007 91.3 13.5007 92 12.7007 92.1C11.8007 92.2 10.9007 92.2 9.90075 92.1C9.10075 92 8.50075 91.3 8.60075 90.5C8.60075 89.7 9.30075 89 10.1007 89C10.4007 89 10.8007 89 11.2007 89Z" fill="#1AA5B8"/>
<path d="M62.0008 66.5C63.5008 66.5 65.1008 68.2 65.1008 69.7C65.1008 71.2 63.4008 72.9 61.9008 72.8C60.4008 72.7 58.8008 71 58.8008 69.6C58.8008 68.1 60.5008 66.5 62.0008 66.5Z" fill="#1AA5B8"/>
</g>
<defs>
<clipPath id="clip0">
<rect width="81" height="87" fill="white" transform="translate(0 13)"/>
</clipPath>
</defs>
</svg>
