<svg width="100" height="100" viewBox="0 0 100 100" fill="none" xmlns="http://www.w3.org/2000/svg">
<path d="M58 19.7998C57.5 19.6998 57 19.6998 56.5 19.6998C53 19.6998 49.5 19.6998 45.9 19.6998C44.7 19.6998 43.9 20.2998 43.9 21.2998C43.9 22.2998 44.7 22.8998 45.9 22.8998C49.5 22.8998 53.1 22.8998 56.6 22.8998C59.9 22.8998 61.7 24.6998 61.7 27.9998C61.7 49.2998 61.7 70.4998 61.7 91.7998C61.7 94.9998 59.9 96.8998 56.6 96.8998C40.4 96.8998 24.3 96.8998 8.1 96.8998C6.1 96.8998 4.5 96.1998 3.6 94.2998C3.3 93.5998 3.1 92.6998 3.1 91.8998C3.1 81.1998 3.1 70.5998 3.1 59.8998C3.1 49.1998 3.1 38.5998 3.1 27.8998C3.1 24.6998 5 22.8998 8.2 22.8998C11.6 22.8998 15 22.8998 18.4 22.8998C18.7 22.8998 19.1 22.8998 19.4 22.8998C20.4 22.8998 21.1 22.1998 21.1 21.2998C21.1 20.3998 20.4 19.6998 19.4 19.6998C16.3 19.6998 13.3 19.6998 10.2 19.6998C9.1 19.6998 8 19.5998 6.9 19.7998C2.8 20.5998 0 23.9998 0 27.9998C0 44.3998 0 60.6998 0 77.0998C0 81.9998 0 86.8998 0 91.6998C0 96.1998 3.8 99.9998 8.3 99.9998C24.3 99.9998 40.3 99.9998 56.3 99.9998C60.6 99.9998 64 97.1998 64.8 93.0998C64.9 92.7998 64.9 92.3998 64.9 92.0998C64.9 70.7998 64.9 49.3998 64.9 28.0998C65 23.8998 62.1 20.4998 58 19.7998Z" fill="#F85D1F"/>
<path d="M32.3 42.5999C30.6 43.8999 28.8 45.0999 27.1 46.3999C26.6 46.7999 26.3 46.6999 25.9 46.1999C22.7 42.5999 19.6 38.8999 16.4 35.2999C16.3 35.0999 16.1 34.9999 16 34.7999C15.5 34.1999 14.9 33.9999 14.2 34.2999C13.3 34.6999 13 35.2999 13 35.9999C13 38.9999 13 41.9999 13 44.9999C13 50.7999 13 56.6999 13 62.4999C13 63.9999 13.6 64.5999 15.1 64.5999C20.9 64.5999 26.7 64.5999 32.5 64.5999C38.3 64.5999 44.1 64.5999 49.9 64.5999C51.4 64.5999 52 64.0999 52 62.4999C52 58.0999 52 53.6999 52 49.2999C52 48.4999 51.9 47.7999 51.1 47.4999C50.3 47.0999 49.6 47.3999 48.9 47.8999C47.3 49.0999 45.7 50.1999 44.2 51.3999C43.7 51.7999 43.4 51.6999 43 51.2999C40.4 48.4999 37.7 45.5999 35.1 42.7999C34.1 41.7999 33.4 41.6999 32.3 42.5999ZM44.7 54.9999C45.8 54.1999 47 53.2999 48.1 52.4999C48.3 52.3999 48.5 52.2999 48.7 52.0999V61.2999H16.3V40.1999C16.6 40.5999 16.9 40.7999 17 40.9999C19.6 43.9999 22.2 46.8999 24.8 49.8999C25.6 50.7999 26.4 50.8999 27.4 50.1999C29 49.0999 30.5 47.8999 32.1 46.7999C32.5 46.4999 33 46.1999 33.5 45.7999C33.8 46.0999 34 46.3999 34.2 46.5999C36.8 49.3999 39.4 52.1999 42 54.8999C42.9 55.7999 43.6 55.8999 44.7 54.9999Z" fill="#F85D1F"/>
<path d="M26.1992 26C30.3992 26 34.5992 26 38.7992 26C40.7992 26 42.2992 24.5 42.2992 22.5C42.2992 21.3 42.1992 20 42.2992 18.8C42.4992 16.6 41.2992 15.1 38.9992 14.6C38.9992 14.2 38.9992 13.7 38.9992 13.3C38.9992 11.5 37.4992 10 35.5992 10C33.5992 10 31.5992 10 29.6992 10C27.4992 10 25.9992 11.5 25.9992 13.6C25.9992 14 25.9992 14.3 25.9992 14.7C25.3992 15 24.7992 15.1 24.2992 15.4C23.2992 16 22.6992 17 22.6992 18.2C22.6992 19.7 22.6992 21.2 22.6992 22.7C22.7992 24.5 24.2992 26 26.1992 26ZM29.2992 13.2C31.0992 13.2 32.7992 13.2 34.3992 13.2C35.8992 13.2 35.8992 13.2 35.6992 14.6C35.6992 14.6 35.5992 14.7 35.5992 14.8H29.1992V13.2H29.2992ZM25.9992 18.1H38.8992V22.8H25.9992V18.1Z" fill="#F85D1F"/>
<path d="M50.0994 71.1001C44.1994 71.1001 38.2994 71.1001 32.3994 71.1001C26.4994 71.1001 20.6994 71.1001 14.7994 71.1001C13.7994 71.1001 13.0994 71.6001 12.9994 72.4001C12.8994 73.1001 13.1994 73.7001 13.7994 74.1001C14.0994 74.2001 14.3994 74.3001 14.6994 74.3001C26.4994 74.3001 38.2994 74.3001 50.0994 74.3001C51.0994 74.3001 51.8994 73.6001 51.8994 72.7001C51.9994 71.8001 51.2994 71.1001 50.0994 71.1001Z" fill="#F85D1F"/>
<path d="M44.9 80.7002C35 80.7002 25.1 80.7002 15.2 80.7002C15 80.7002 14.8 80.7002 14.5 80.7002C13.7 80.8002 13 81.5002 13 82.3002C13 83.1002 13.6 83.8002 14.4 83.9002C14.6 83.9002 14.9 83.9002 15.1 83.9002H32.4H49.5C49.7 83.9002 49.9 83.9002 50.1 83.9002C51.1 83.9002 51.9 83.2002 51.9 82.3002C51.9 81.4002 51.2 80.8002 50.2 80.8002C48.5 80.7002 46.7 80.7002 44.9 80.7002Z" fill="#F85D1F"/>
</svg>
