<svg width="100" height="100" viewBox="0 0 100 100" fill="none" xmlns="http://www.w3.org/2000/svg">
<g clip-path="url(#clip0)">
<path d="M94.7 28.0001C93.4 27.7001 92 27.9001 90.6 27.8001C89 27.7001 87.8 26.9001 87.2 25.5001C86.6 24.1001 86.8 22.7001 87.9 21.6001C88.5 20.9001 89.2 20.3001 89.9 19.6001C92.5 16.9001 92.5 12.8001 89.9 10.2001C87.4 7.60008 83.2 7.60008 80.5 10.1001C79.8 10.8001 79.1 11.5001 78.4 12.1001C77.2 13.2001 75.9 13.4001 74.5 12.8001C73 12.2001 72.3 11.0001 72.2 9.40008C72.2 8.50008 72.2 7.50008 72.2 6.60008C72.1 3.10008 69.7 0.500083 66.1 0.100083C63 -0.299917 59.8 1.90008 59.2 5.20008C58.9 6.50008 59 8.00008 58.9 9.40008C58.8 11.0001 58.1 12.1001 56.7 12.7001C55.2 13.3001 53.9 13.1001 52.7 12.0001C52 11.3001 51.3 10.6001 50.6 9.90008C47.9 7.40008 43.7 7.40008 41.2 10.0001C38.7 12.6001 38.7 16.6001 41.2 19.3001C41.8 19.9001 42.4 20.5001 43.1 21.2001C44.3 22.4001 44.6 23.8001 44 25.4001C43.4 27.0001 42.1 27.7001 40.4 27.7001C39.5 27.7001 38.6 27.7001 37.7 27.7001C34.9 27.8001 32.4 29.6001 31.6 32.3001C30.7 34.9001 31.7 38.0001 33.9 39.6001C34.7 40.2001 35.6 40.2001 36.1 39.5001C36.7 38.8001 36.5 38.0001 35.7 37.3001C35.2 36.8001 34.6 36.2001 34.4 35.6001C33.5 33.2001 35.2 30.7001 37.8 30.6001C39.4 30.5001 40.9 30.6001 42.7 30.6001C42.7 30.7001 42.7 30.8001 42.7 30.9001C42.1 34.5001 42.5 38.0001 43.6 41.5001C44.9 45.6001 47.4 48.8001 50.2 51.9001C54.3 56.4001 55.9 61.9001 55 67.9001C53.5 78.9001 43.5 86.6001 32.5 85.5001C20.5 84.3001 12.2 72.5001 14.9 60.8001C17.2 51.1001 25.8 44.6001 35.8 45.0001C37 45.1001 37.8 44.5001 37.8 43.6001C37.8 42.7001 37.1 42.2001 35.9 42.1001C32.3 41.9001 28.9 42.6001 25.7 44.0001C24.3 44.6001 23.1 44.4001 22 43.5001C21.2 42.8001 20.4 42.0001 19.7 41.3001C17 38.7001 12.9 38.7001 10.3 41.2001C7.69999 43.8001 7.69999 47.9001 10.3 50.7001C10.9 51.4001 11.6 52.0001 12.3 52.7001C13.4 53.9001 13.6 55.3001 13 56.7001C12.4 58.1001 11.2 58.9001 9.69999 58.9001C8.79999 58.9001 7.79999 58.9001 6.89999 58.9001C3.09999 59.0001 0.399989 61.5001 -1.06692e-05 65.1001C-0.300011 68.2001 1.89999 71.3001 5.09999 72.0001C6.39999 72.3001 7.79999 72.2001 9.09999 72.2001C10.8 72.2001 12 73.0001 12.7 74.5001C13.4 76.1001 13 77.5001 11.8 78.7001C11.2 79.3001 10.6 79.9001 9.99999 80.5001C7.39999 83.2001 7.39999 87.4001 9.99999 90.0001C12.6 92.6001 16.7 92.5001 19.5 89.9001C20.1 89.3001 20.7 88.7001 21.4 88.0001C22.6 86.9001 23.9 86.6001 25.4 87.2001C26.9 87.8001 27.7 89.0001 27.8 90.7001C27.8 91.6001 27.8 92.5001 27.8 93.4001C27.9 96.8001 30.4 99.6001 33.6 99.9001C37.1 100.3 40.2 98.1001 40.8 94.7001C41.1 93.4001 41 92.0001 41 90.7001C41 89.0001 41.8 87.8001 43.3 87.2001C44.8 86.6001 46.2 86.8001 47.4 88.0001C48.2 88.7001 48.9 89.5001 49.6 90.2001C51.8 92.2001 55 92.4001 57.6 90.8001C60 89.3001 61.1 86.3001 60.4 83.5001C59.9 81.5001 58.5 80.2001 57.1 78.9001C55.8 77.7001 55.4 76.3001 56 74.6001C56.6 73.0001 57.9 72.3001 59.8 72.2001C61.1 72.2001 62.5 72.2001 63.7 72.0001C67.1 71.2001 69.1 68.1001 68.7 64.6001C68.3 61.5001 65.4 59.0001 62.4 59.0001C61.4 59.0001 60.8 59.5001 60.7 60.4001C60.7 61.2001 61.2 61.8001 62.1 62.0001C62.3 62.0001 62.5 62.0001 62.7 62.1001C64.5 62.3001 65.9 64.0001 65.9 65.8001C65.9 67.7001 64.4 69.3001 62.6 69.4001C60.9 69.5001 59.3 69.4001 57.5 69.4001C57.5 69.3001 57.5 68.9001 57.6 68.6001C58.5 61.1001 56.3 54.6001 51.1 49.1001C50 48.0001 49 46.8001 48.2 45.5001C43.1 37.3001 44.2 27.4001 50.9 20.4001C57 14.1001 67.1 12.4001 74.7 16.4001C87.2 22.9001 89.7 39.3001 79.6 49.2001C75.4 53.3001 70.4 55.2001 64.6 55.1001C63.5 55.1001 62.9 55.7001 62.9 56.5001C62.9 57.3001 63.5 57.9001 64.5 58.0001C65.8 58.0001 67.1 58.0001 68.4 57.8001C70.5 57.4001 72.6 56.8001 74.8 56.2001C76.3 55.8001 77.6 56.1001 78.7 57.2001C79.3 57.8001 79.8 58.4001 80.4 58.9001C83.1 61.5001 87.3 61.6001 89.9 59.0001C92.5 56.4001 92.5 52.3001 89.9 49.5001C89.2 48.8001 88.5 48.1001 87.9 47.4001C86.9 46.3001 86.7 44.9001 87.3 43.5001C87.9 42.1001 89 41.3001 90.6 41.2001C91.5 41.2001 92.4 41.2001 93.3 41.2001C96.8 41.2001 99.6 38.7001 100 35.4001C100.3 31.7001 98.3 28.7001 94.7 28.0001ZM42.5 30.7001C42.5 30.6001 42.5 30.6001 42.5 30.7001V30.7001ZM11.5 69.5001C9.89999 69.4001 8.29999 69.4001 6.59999 69.3001C4.89999 69.2001 3.59999 68.2001 3.09999 66.7001C2.59999 65.1001 3.09999 63.5001 4.49999 62.5001C5.09999 62.1001 5.89999 61.9001 6.69999 61.8001C8.29999 61.7001 9.89999 61.7001 11.5 61.6001V69.5001ZM11.9 48.3001C10.6 46.8001 10.8 44.6001 12.2 43.3001C13.6 42.0001 15.7 41.8001 17.2 43.1001C18.5 44.2001 19.7 45.4001 20.8 46.5001C19 48.3001 17.2 50.2001 15.4 52.0001C14.3 50.8001 13.1 49.6001 11.9 48.3001ZM17.4 87.9001C15.8 89.4001 13.6 89.3001 12.2 87.8001C10.8 86.4001 10.7 84.2001 12.2 82.6001C13.3 81.4001 14.5 80.2001 15.6 79.0001C17.4 80.8001 19.3 82.7001 21.1 84.5001C19.8 85.6001 18.6 86.8001 17.4 87.9001ZM38.1 94.0001C38 95.7001 36.3 97.1001 34.5 97.1001C32.8 97.1001 31 95.8001 30.8 94.1001C30.6 92.2001 30.6 90.2001 30.5 88.4001H38.3C38.3 90.3001 38.3 92.1001 38.1 94.0001ZM56.6 82.5001C58.2 84.2001 58.2 86.4001 56.7 87.9001C55.2 89.4001 53 89.4001 51.3 87.8001C50.2 86.7001 49 85.7001 47.9 84.7001C49.7 82.9001 51.6 81.1001 53.5 79.3001C54.5 80.3001 55.6 81.4001 56.6 82.5001ZM46.5 20.8001C45.6 19.8001 44.5 18.7001 43.5 17.6001C41.9 15.9001 41.8 13.7001 43.3 12.2001C44.8 10.6001 47.1 10.7001 48.8 12.3001C49.9 13.3001 51 14.4001 52 15.3001C50.2 17.1001 48.3 19.0001 46.5 20.8001ZM61.7 11.3001C61.8 9.60008 61.8 7.80008 61.9 6.00008C62 4.30008 63.8 2.90008 65.6 2.90008C67.5 2.90008 69.1 4.40008 69.2 6.20008C69.3 7.90008 69.3 9.60008 69.4 11.4001H61.7V11.3001ZM87.8 51.4001C89 52.7001 89.3 54.4001 88.5 55.8001C87.7 57.3001 86.3 58.1001 84.5 57.7001C83.7 57.5001 83 57.0001 82.3 56.5001C81.1 55.5001 80.1 54.5001 79.4 53.8001C81.2 52.0001 83.1 50.1001 84.9 48.4001C85.7 49.1001 86.8 50.3001 87.8 51.4001ZM85.1 20.4001C83.3 18.6001 81.5 16.8001 79.6 15.0001C80.3 14.3001 81.5 13.2001 82.6 12.2001C84.2 10.7001 86.4 10.8001 87.9 12.3001C89.3 13.8001 89.3 15.9001 87.9 17.5001C86.8 18.5001 85.8 19.7001 85.1 20.4001ZM95.5 37.5001C95 37.9001 94.3 38.1001 93.6 38.1001C91.9 38.2001 90.3 38.1001 88.7 38.1001V30.7001C90.3 30.7001 91.9 30.7001 93.5 30.7001C95.1 30.7001 96.5 31.8001 96.9 33.2001C97.4 34.9001 96.9 36.5001 95.5 37.5001Z" fill="#F85D1F"/>
<path d="M75.6984 34.4999C75.6984 28.8999 71.1984 24.3999 65.5984 24.2999C60.0984 24.1999 55.3984 28.7999 55.3984 34.3999C55.3984 39.9999 59.8984 44.5999 65.4984 44.5999C71.1984 44.5999 75.6984 40.0999 75.6984 34.4999ZM58.2984 34.3999C58.2984 30.3999 61.5984 27.0999 65.4984 27.0999C69.4984 27.0999 72.6984 30.2999 72.7984 34.2999C72.7984 38.2999 69.5984 41.4999 65.5984 41.5999C61.5984 41.6999 58.2984 38.3999 58.2984 34.3999Z" fill="#F85D1F"/>
<path d="M24.6016 65.2001C24.6016 70.8001 29.1016 75.4001 34.7016 75.4001C40.3016 75.4001 45.0016 70.7001 44.9016 65.2001C44.8016 59.7001 40.3016 55.1001 34.8016 55.1001C29.2016 55.1001 24.6016 59.7001 24.6016 65.2001ZM42.0016 65.3001C42.0016 69.3001 38.8016 72.5001 34.7016 72.5001C30.7016 72.5001 27.5016 69.3001 27.5016 65.3001C27.5016 61.3001 30.7016 58.1001 34.8016 58.1001C38.7016 58.1001 42.0016 61.3001 42.0016 65.3001Z" fill="#F85D1F"/>
</g>
<defs>
<clipPath id="clip0">
<rect width="100" height="100" fill="white"/>
</clipPath>
</defs>
</svg>
