<svg width="100" height="100" viewBox="0 0 100 100" fill="none" xmlns="http://www.w3.org/2000/svg">
<g clip-path="url(#clip0)">
<path d="M2.59908 68.0999C2.69908 62.3999 2.89908 56.7999 2.89908 51.0999C2.89908 45.0999 2.39908 39.1999 0.899077 33.3999C0.699077 32.5999 0.399077 31.6999 0.0990775 30.8999C-0.300923 29.5999 0.299078 28.5999 1.59908 28.4999C13.9991 27.9999 24.6991 22.6999 34.9991 16.4999C36.0991 15.7999 36.8991 15.8999 37.9991 16.4999C46.4991 21.6999 55.4991 25.9999 65.3991 27.7999C67.1991 28.0999 68.9991 28.1999 70.6991 28.2999C72.4991 28.3999 73.0991 29.0999 72.7991 30.8999C72.1991 34.0999 71.3991 37.2999 71.0991 40.5999C70.5991 45.6999 70.2991 50.7999 70.2991 55.8999C70.1991 59.8999 70.6991 63.7999 70.7991 67.7999C70.8991 71.3999 69.6991 74.5999 67.8991 77.5999C65.0991 82.0999 61.3991 85.5999 57.2991 88.6999C51.3991 93.0999 45.0991 96.6999 38.2991 99.5999C37.0991 100.1 36.0991 100.1 34.8991 99.5999C25.3991 95.5999 16.5991 90.4999 9.39908 82.9999C6.29908 79.7999 3.79908 76.0999 2.79908 71.5999C2.49908 70.3999 2.39908 69.1999 2.29908 67.9999C2.39908 68.0999 2.49908 68.0999 2.59908 68.0999ZM4.19908 31.8999C4.19908 32.1999 4.19908 32.3999 4.29908 32.5999C5.89908 38.5999 6.39908 44.7999 6.39908 50.8999C6.39908 56.0999 5.99908 61.3999 5.99908 66.5999C5.99908 68.1999 5.99908 69.7999 6.39908 71.3999C7.29908 75.3999 9.69908 78.5999 12.5991 81.3999C19.2991 88.0999 27.3991 92.6999 36.0991 96.2999C36.5991 96.4999 37.2991 96.3999 37.7991 96.1999C43.4991 93.7999 48.8991 90.8999 53.8991 87.2999C58.0991 84.2999 61.9991 80.9999 64.8991 76.5999C66.5991 73.8999 67.7991 70.9999 67.6991 67.7999C67.5991 63.9999 67.1991 60.0999 67.1991 56.2999C67.0991 50.2999 67.0991 44.2999 68.3991 38.2999C68.7991 36.1999 69.0991 33.9999 69.4991 31.8999C67.0991 31.4999 64.6991 31.1999 62.3991 30.6999C53.6991 28.6999 45.5991 24.8999 37.8991 20.3999C36.9991 19.8999 36.3991 19.8999 35.4991 20.3999C29.5991 23.8999 23.4991 26.8999 16.9991 29.0999C12.6991 30.4999 8.49908 31.3999 4.19908 31.8999Z" fill="#F85D1F"/>
<path d="M23.9008 49.0997C23.5008 44.3997 24.9008 40.2997 28.7008 37.2997C31.1008 35.2997 33.9008 34.2997 37.0008 34.4997C40.8008 34.6997 43.8008 36.3997 46.2008 39.1997C48.6008 41.9997 49.4008 45.3997 49.1008 49.0997C49.6008 49.0997 49.9008 49.1997 50.3008 49.1997C53.4008 49.1997 55.9008 51.6997 55.9008 54.7997C55.9008 60.2997 55.9008 65.8997 55.9008 71.3997C55.9008 74.7997 53.5008 77.1997 50.1008 77.1997C41.1008 77.1997 32.1008 77.1997 23.1008 77.1997C19.7008 77.1997 17.3008 74.7997 17.3008 71.3997C17.3008 65.9997 17.3008 60.5997 17.3008 55.1997C17.3008 51.5997 19.5008 49.2997 23.1008 49.1997C23.3008 49.1997 23.5008 49.0997 23.9008 49.0997ZM36.5008 73.6997C41.1008 73.6997 45.7008 73.6997 50.2008 73.6997C51.9008 73.6997 52.3008 73.2997 52.3008 71.5997C52.3008 65.9997 52.3008 60.3997 52.3008 54.7997C52.3008 52.9997 51.9008 52.5997 50.1008 52.5997C41.0008 52.5997 31.9008 52.5997 22.8008 52.5997C21.0008 52.5997 20.6008 52.9997 20.6008 54.7997C20.6008 60.3997 20.6008 65.9997 20.6008 71.5997C20.6008 73.2997 21.0008 73.6997 22.7008 73.6997C27.3008 73.6997 31.9008 73.6997 36.5008 73.6997ZM45.6008 49.0997C46.2008 44.7997 44.6008 40.9997 41.3008 39.0997C38.1008 37.1997 33.5008 37.4997 30.7008 39.7997C28.1008 41.8997 26.6008 45.9997 27.5008 49.0997H45.6008Z" fill="#F85D1F"/>
<path d="M36.0989 57.2998C38.1989 57.2998 40.0989 58.6998 40.7989 60.4998C41.3989 62.1998 40.7989 64.0998 39.1989 65.1998C38.3989 65.7998 38.1989 66.3998 38.1989 67.2998C38.1989 67.7998 38.1989 68.3998 38.1989 68.8998C38.0989 69.9998 37.3989 70.5998 36.3989 70.5998C35.4989 70.5998 34.7989 69.8998 34.6989 68.8998C34.6989 68.6998 34.6989 68.4998 34.6989 68.1998C34.8989 66.7998 34.5989 65.6998 33.2989 64.6998C31.7989 63.5998 31.4989 61.6998 32.2989 60.1998C33.0989 58.4998 34.4989 57.3998 36.0989 57.2998ZM37.5989 61.7998C37.5989 60.9998 37.0989 60.6998 36.3989 60.6998C35.5989 60.6998 35.3989 61.0998 35.3989 61.7998C35.3989 62.5998 35.8989 62.8998 36.5989 62.7998C37.2989 62.7998 37.5989 62.4998 37.5989 61.7998Z" fill="#F85D1F"/>
</g>
<defs>
<clipPath id="clip0">
<rect width="73" height="84" fill="white" transform="translate(0 16)"/>
</clipPath>
</defs>
</svg>
