<svg width="104" height="100" viewBox="0 0 104 100" fill="none" xmlns="http://www.w3.org/2000/svg">
<g clip-path="url(#clip0)">
<path d="M18.0019 67.5001H16.7019C12.0019 67.5001 7.30188 67.5001 2.60188 67.5001C1.60188 67.5001 0.701884 67.5001 0.201884 66.5001C-0.298116 65.4001 0.401884 64.7001 1.00188 63.9001C3.80188 60.6001 6.60188 57.3001 9.50188 54.0001C10.1019 53.3001 10.1019 52.9001 9.50188 52.2001C6.60188 48.9001 3.80188 45.6001 0.901884 42.3001C0.301884 41.7001 -0.298116 41.0001 0.201884 40.0001C0.701884 39.0001 1.60188 38.9001 2.50188 38.9001C7.20188 38.9001 11.8019 38.9001 16.5019 38.9001H17.9019C17.3019 36.6001 16.9019 34.5001 16.2019 32.5001C15.5019 30.0001 15.9019 29.3001 18.5019 29.2001C25.3019 28.9001 31.7019 27.0001 37.8019 24.1001C42.2019 22.1001 46.3019 19.7001 50.6019 17.4001C51.7019 16.8001 52.6019 16.8001 53.7019 17.5001C61.7019 22.5001 70.1019 26.5001 79.4019 28.4001C81.6019 28.8001 83.8019 29.0001 86.1019 29.2001C87.8019 29.3001 88.5019 30.1001 88.2019 31.8001C87.8019 33.8001 87.4019 35.8001 87.0019 37.8001C86.9019 38.1001 86.9019 38.4001 86.9019 38.8001H88.3019C92.8019 38.8001 97.3019 38.8001 101.902 38.8001C102.802 38.8001 103.602 38.9001 104.102 39.8001C104.502 40.7001 104.102 41.4001 103.502 42.1001C100.602 45.5001 97.7019 48.9001 94.7019 52.3001C94.1019 52.9001 94.2019 53.3001 94.7019 53.9001C97.6019 57.3001 100.502 60.6001 103.402 64.0001C104.002 64.7001 104.502 65.3001 104.102 66.3001C103.702 67.3001 102.802 67.4001 101.902 67.4001C97.1019 67.4001 92.3019 67.4001 87.4019 67.4001H86.2019C86.2019 75.8001 81.4019 81.4001 75.7019 86.4001C69.1019 92.1001 61.6019 96.3001 53.6019 99.6001C52.9019 99.9001 52.0019 99.9001 51.4019 99.7001C41.8019 95.8001 32.9019 90.7001 25.6019 83.3001C22.4019 80.1001 19.9019 76.4001 18.9019 71.8001C18.3019 70.6001 18.2019 69.1001 18.0019 67.5001ZM20.1019 32.7001C20.1019 33.0001 20.1019 33.2001 20.2019 33.3001C21.7019 39.2001 22.2019 45.2001 22.2019 51.3001C22.2019 56.5001 21.9019 61.7001 21.8019 66.9001C21.8019 68.5001 21.8019 70.2001 22.2019 71.8001C23.1019 75.6001 25.3019 78.7001 28.0019 81.4001C34.7019 88.1001 42.8019 92.7001 51.5019 96.3001C51.9019 96.5001 52.5019 96.4001 53.0019 96.2001C56.4019 94.6001 59.8019 93.0001 63.1019 91.1001C68.7019 88.0001 73.8019 84.3001 77.9019 79.3001C80.8019 75.8001 82.7019 71.8001 82.4019 67.0001C82.1019 62.4001 81.9019 57.8001 82.0019 53.1001C82.1019 48.8001 82.5019 44.5001 82.9019 40.3001C83.2019 37.8001 83.9019 35.3001 84.4019 32.7001C84.1019 32.6001 83.9019 32.6001 83.7019 32.5001C81.0019 32.0001 78.2019 31.7001 75.5019 31.0001C67.5019 28.9001 60.1019 25.4001 53.0019 21.1001C52.5019 20.8001 52.1019 20.6001 51.5019 20.9001C41.7019 26.8001 31.5019 31.4001 20.1019 32.7001ZM18.4019 63.9001C18.7019 56.7001 18.9019 49.6001 18.1019 42.4001H5.70188C6.00188 42.8001 6.30188 43.2001 6.50188 43.5001C8.80188 46.2001 11.1019 48.9001 13.4019 51.6001C14.5019 52.9001 14.5019 53.5001 13.4019 54.8001C11.1019 57.5001 8.80188 60.2001 6.50188 62.9001C6.20188 63.2001 6.00188 63.5001 5.70188 64.0001H18.4019V63.9001ZM98.4019 64.0001C95.7019 60.8001 93.1019 57.8001 90.6019 54.9001C89.5019 53.6001 89.5019 53.0001 90.6019 51.7001C92.9019 49.0001 95.3019 46.3001 97.6019 43.5001C97.8019 43.2001 98.1019 42.9001 98.4019 42.5001C94.3019 42.5001 90.5019 42.5001 86.7019 42.5001C85.9019 42.5001 85.9019 42.9001 85.9019 43.5001C85.8019 49.8001 85.7019 56.2001 85.6019 62.5001C85.6019 63.0001 85.7019 63.5001 85.7019 64.0001H98.4019Z" fill="#8AB65A"/>
<path d="M69.7036 52.5C69.5036 52.7 69.3036 53.3 68.8036 53.7C66.8036 55.8 64.7036 57.8 62.6036 59.9C62.0036 60.4 61.9036 61 62.0036 61.7C62.5036 64.6 62.9036 67.4 63.4036 70.3C63.6036 71.2 63.5036 72 62.7036 72.3C62.1036 72.6 61.2036 72.6 60.6036 72.3C57.9036 71 55.2036 69.5 52.5036 68.1C52.1036 67.9 51.4036 67.9 51.0036 68.1C48.3036 69.4 45.7036 70.8 43.1036 72.2C42.4036 72.6 41.6036 72.8 40.9036 72.2C40.2036 71.7 40.1036 70.9 40.3036 70.1C40.8036 67.2 41.2036 64.4 41.7036 61.5C41.8036 60.8 41.7036 60.2 41.1036 59.7C39.0036 57.7 37.0036 55.6 34.9036 53.5C34.3036 52.9 33.9036 52.2 34.2036 51.3C34.5036 50.5 35.3036 50.2 36.1036 50.1C39.0036 49.7 41.9036 49.3 44.7036 48.8C45.2036 48.7 45.8036 48.3 46.0036 47.8C47.4036 45.2 48.7036 42.6 50.0036 39.9C50.4036 39.1 50.9036 38.5 51.8036 38.5C52.8036 38.5 53.3036 39.2 53.7036 40C55.0036 42.7 56.3036 45.3 57.7036 47.9C57.9036 48.3 58.4036 48.7 58.9036 48.7C61.8036 49.2 64.7036 49.6 67.6036 50C69.0036 50.5 69.7036 51.1 69.7036 52.5ZM64.2036 53.5C63.8036 53.4 63.6036 53.3 63.4036 53.2C61.3036 52.9 59.3036 52.6 57.2036 52.3C56.3036 52.2 55.7036 51.8 55.3036 51C54.7036 49.7 54.0036 48.3 53.3036 47C52.9036 46.2 52.5036 45.5 52.0036 44.5C51.7036 45 51.5036 45.3 51.4036 45.6C50.5036 47.3 49.6036 49.1 48.8036 50.8C48.4036 51.7 47.8036 52.2 46.8036 52.3C45.2036 52.5 43.6036 52.7 42.0036 53C41.3036 53.1 40.7036 53.2 39.8036 53.4C41.6036 55.2 43.1036 56.8 44.8036 58.3C45.6036 59 46.0036 59.8 45.6036 60.9C45.5036 61.4 45.4036 61.9 45.4036 62.3C45.1036 64 44.9036 65.7 44.6036 67.7C46.9036 66.5 49.0036 65.5 51.0036 64.4C51.8036 63.9 52.6036 64 53.4036 64.4C54.9036 65.2 56.4036 66 57.9036 66.8C58.4036 67.1 58.9036 67.3 59.7036 67.6C59.3036 65.4 59.1036 63.4 58.7036 61.4C58.3036 59.9 58.8036 58.8 59.9036 57.8C61.3036 56.5 62.6036 55 64.2036 53.5Z" fill="#8AB65A"/>
</g>
<defs>
<clipPath id="clip0">
<rect width="104" height="83" fill="white" transform="translate(0 17)"/>
</clipPath>
</defs>
</svg>
