<svg width="100" height="100" viewBox="0 0 100 100" fill="none" xmlns="http://www.w3.org/2000/svg">
<path d="M43.5 84.3C32 84.3 20.5 84.3 9 84.3C4.1 84.3 0 80.3 0 75.4C0 59.9 0 44.4 0 28.8C0 24 4 20 8.9 20C32 20 55.1 20 78.2 20C82.9 20 87 24.1 87 28.8C87 44.3 87 59.8 87 75.4C87 80.3 83 84.3 78.1 84.3C66.5 84.3 55 84.3 43.5 84.3ZM43.5 80.9C55.1 80.9 66.6 80.9 78.2 80.9C81.5 80.9 83.6 78.8 83.6 75.5C83.6 59.9 83.6 44.3 83.6 28.7C83.6 25.4 81.5 23.3 78.2 23.3C55.1 23.3 32.1 23.3 9 23.3C5.4 23.3 3.4 25.3 3.4 28.9C3.4 44.3 3.4 59.7 3.4 75.1C3.4 78.9 5.3 80.8 9.1 80.8C20.6 80.9 32 80.9 43.5 80.9Z" fill="#8AB65A"/>
<path d="M41.8016 96.6002V90.9002C41.8016 90.1002 41.8016 89.3002 41.8016 88.5002C41.8016 87.0002 42.4016 86.2002 43.5016 86.2002C44.6016 86.2002 45.2016 87.0002 45.2016 88.5002C45.2016 91.2002 45.2016 93.8002 45.2016 96.6002C45.7016 96.6002 46.1016 96.6002 46.5016 96.6002C51.1016 96.6002 55.8016 96.6002 60.4016 96.6002C61.8016 96.6002 62.6016 97.2002 62.6016 98.3002C62.6016 99.4002 61.8016 100 60.4016 100C49.7016 100 39.0016 100 28.3016 100C26.9016 100 26.1016 99.4002 26.1016 98.3002C26.1016 97.2002 26.9016 96.6002 28.3016 96.6002C32.3016 96.6002 36.3016 96.6002 40.4016 96.6002H41.8016Z" fill="#8AB65A"/>
<path d="M32.3 49.4999H41.8V47.7999C41.8 45.0999 41.8 42.3999 41.8 39.5999C41.8 38.1999 42.4 37.3999 43.5 37.3999C44.6 37.3999 45.2 38.1999 45.2 39.6999C45.2 42.5999 45.2 45.3999 45.2 48.2999V49.4999H53.9C52.9 47.6999 52 45.8999 51 44.1999C50.5 43.3999 50 42.5999 49.4 41.7999C48.7 40.7999 48.8 39.8999 49.6 39.2999C50.4 38.6999 51.5 38.7999 52.1 39.7999C53.8 42.6999 55.5 45.5999 57 48.5999C57.4 49.2999 57.6 49.5999 58.4 49.5999C60.2 49.4999 62.1 49.5999 63.9 49.5999C65.2 49.5999 66 50.2999 65.9 51.3999C65.9 52.3999 65.1 52.9999 63.9 53.0999C62.2 53.0999 60.5 53.0999 58.9 53.0999C59.7 57.1999 60.4 61.1999 61.2 65.3999H68.3C68.7 65.3999 69 65.3999 69.4 65.3999C70.5 65.4999 71.2 66.0999 71.2 66.9999C71.2 67.9999 70.5 68.6999 69.4 68.6999C67 68.6999 64.5 68.6999 62.1 68.6999H61C60.8 70.4999 60.6 72.1999 60.3 73.8999C60.1 75.1999 59.8 76.4999 59.5 77.6999C59.2 78.8999 58.4 79.3999 57.5 79.1999C56.5 78.9999 56 78.1999 56.2 76.8999C56.6 74.3999 57 71.7999 57.4 69.2999C57.4 69.0999 57.4 68.8999 57.4 68.6999H45.3C45.3 69.0999 45.3 69.3999 45.3 69.7999C45.3 72.1999 45.3 74.5999 45.3 76.9999C45.3 78.2999 44.6 79.0999 43.6 79.0999C42.6 79.0999 41.9 78.2999 41.9 77.0999C41.9 74.2999 41.9 71.5999 41.9 68.7999H28.4C28.8 71.0999 29.1 73.3999 29.4 75.6999C29.4 75.9999 29.5 76.2999 29.6 76.6999C29.8 77.7999 29.3 78.5999 28.4 78.7999C27.4 78.9999 26.6 78.4999 26.4 77.4999C26 75.2999 25.7 72.9999 25.3 70.7999C25.3 70.5999 25.3 70.3999 25.3 70.2999C25.4 69.1999 25 68.7999 23.8 68.8999C21.2 68.9999 18.7 68.8999 16.1 68.8999C14.8 68.8999 14 68.1999 14 67.1999C14 66.1999 14.8 65.4999 16.1 65.4999C18.7 65.4999 21.3 65.4999 23.9 65.4999H24.9C25.7 61.2999 26.4 57.2999 27.1 53.1999C25.8 53.1999 24.4 53.1999 23 53.1999C21.7 53.1999 20.9 52.4999 20.9 51.4999C20.9 50.4999 21.7 49.7999 23 49.7999C24.6 49.7999 26.2 49.7999 27.8 49.7999C28.5 49.7999 28.7 49.4999 29 48.9999C30.4 46.2999 31.9 43.5999 33.4 40.8999C33.6 40.5999 33.8 40.2999 34 39.9999C34.7 39.0999 35.7 38.8999 36.5 39.4999C37.3 40.0999 37.4 40.9999 36.8 41.9999C35.6 43.9999 34.4 45.9999 33.2 47.9999C32.8 48.3999 32.6 48.8999 32.3 49.4999ZM41.7 65.1999V52.9999C38.2 52.9999 34.8 52.9999 31.4 52.9999C31.1 52.9999 30.7 53.3999 30.6 53.6999C30.1 55.3999 29.6 56.9999 29.3 58.6999C28.9 60.7999 28.7 62.8999 28.3 65.1999H41.7ZM57.6 65.1999C57.4 61.0999 56.7 57.1999 55.3 53.3999C55.2 53.1999 54.8 52.9999 54.5 52.9999C53.1 52.9999 51.6 52.9999 50.2 52.9999H45.4V65.1999H57.6Z" fill="#8AB65A"/>
<path d="M11.5993 67.4C11.5993 70.4 12.0993 73.6 12.9993 76.8C13.2993 77.7 12.9993 78.4 12.2993 78.9C11.5993 79.3 10.8993 79.2 10.2993 78.6C9.99932 78.2 9.79932 77.7 9.59932 77.3C6.09932 63.5 8.99932 51.3 19.2993 41.5C39.2993 22.5 70.9993 32.5 77.6993 58.5C79.3993 64.9 79.1993 71.3 77.1993 77.6C76.8993 78.5 76.3993 79.3 75.3993 79.3C74.1993 79.3 73.5993 78.2 73.8993 76.8C74.3993 74.9 74.8993 73.1 75.1993 71.2C77.2993 54.5 66.9993 39.5 50.7993 35.9C36.5993 32.7 22.4993 39 15.6993 51.4C12.7993 56.2 11.5993 61.5 11.5993 67.4Z" fill="#8AB65A"/>
</svg>
