<svg width="100" height="100" viewBox="0 0 100 100" fill="none" xmlns="http://www.w3.org/2000/svg">
<g clip-path="url(#clip0)">
<path d="M60.7 48.2C60.7 37 60.7 25.8 60.7 14.5C60.7 12.4 60 10.8 58.1 9.8C57.4 9.5 56.7 9.3 55.9 9.3C43.3 9.3 30.7 9.3 18.1 9.3C17.8 9.3 17.3 9.5 17.1 9.7C12.7 14.1 8.2 18.6 3.8 23C3.5 23.3 3.4 23.8 3.4 24.2C3.4 41.8 3.4 59.5 3.4 77.1C3.4 78.7 3.4 80.2 3.4 81.8C3.4 85.2 5.3 87.1 8.8 87.1C16.9 87.1 25.1 87.1 33.2 87.1C33.4 87.1 33.7 87.1 33.9 87.1C34.8 87.2 35.4 87.9 35.4 88.7C35.4 89.5 34.7 90.3 33.9 90.4C33.6 90.4 33.3 90.4 33.1 90.4C25 90.4 16.8 90.4 8.7 90.4C4 90.5 0 86.6 0 82C0 68.9 0 55.8 0 42.8C0 36.4 0 29.9 0 23.5C0 22.6 0.3 21.9 0.9 21.3C5.7 16.5 10.5 11.7 15.3 6.9C15.9 6.3 16.5 6 17.4 6C30 6 42.7 6 55.3 6C60.1 6 64 9.9 64 14.8C64 37.1 64 59.5 64 81.8C64 86.7 60.1 90.6 55.3 90.6C54.3 90.6 53.4 90.6 52.4 90.6C51.4 90.6 50.6 89.9 50.6 89C50.6 88.1 51.3 87.3 52.4 87.3C53.4 87.3 54.4 87.3 55.4 87.3C58.7 87.3 60.7 85.3 60.7 82C60.7 70.7 60.7 59.5 60.7 48.2Z" fill="#8AB65A"/>
<path d="M45.6999 88.9998C45.0999 88.7998 44.4999 88.5998 43.9999 88.2998C43.1999 87.6998 42.5999 87.7998 41.7999 88.3998C40.4999 89.3998 38.7999 89.2998 37.4999 88.1998C36.7999 87.5998 36.4999 86.7998 36.3999 85.8998C36.2999 85.1998 35.9999 84.8998 35.2999 84.7998C32.4999 84.2998 31.2999 81.5998 32.9999 79.1998C33.3999 78.5998 33.4999 78.0998 32.9999 77.4998C31.5999 75.6998 31.9999 73.9998 32.9999 72.9998C33.4999 72.3998 34.2999 71.9998 35.0999 71.7998C35.8999 71.5998 36.3999 71.3998 36.4999 70.3998C36.6999 68.1998 38.9999 67.2998 40.4999 67.4998C40.9999 67.5998 41.4999 67.7998 41.8999 68.0998C42.5999 68.6998 43.1999 68.5998 43.9999 68.0998C45.4999 66.9998 47.3999 67.1998 48.4999 68.4998C48.9999 68.9998 49.1999 69.7998 49.3999 70.4998C49.4999 71.1998 49.8999 71.4998 50.5999 71.5998C53.2999 72.0998 54.4999 74.8998 52.8999 77.1998C52.3999 77.8998 52.3999 78.2998 52.8999 78.9998C54.5999 81.3998 53.4999 83.9998 50.5999 84.5998C49.8999 84.6998 49.5999 84.9998 49.3999 85.7998C48.9999 87.7998 47.6999 88.8998 45.6999 88.9998ZM50.5999 81.3998C48.5999 79.1998 48.6999 77.0998 50.4999 74.9998C47.6999 74.7998 46.2999 73.3998 46.0999 70.5998C43.9999 72.5998 41.8999 72.4998 39.7999 70.5998C39.5999 73.4998 37.9999 74.7998 35.6999 74.9998C36.0999 76.1998 36.7999 77.1998 36.7999 78.2998C36.7999 79.3998 36.1999 80.3998 35.7999 81.5998C38.2999 81.6998 39.5999 83.1998 39.8999 85.9998C41.9999 83.9998 43.9999 84.1998 46.1999 85.7998C46.3999 82.9998 47.6999 81.5998 50.5999 81.3998Z" fill="#8AB65A"/>
<path d="M32.0016 56.7998H49.9016C50.0016 56.7998 50.1016 56.7998 50.2016 56.7998C51.3016 56.7998 52.1016 57.4998 52.1016 58.4998C52.1016 59.3998 51.3016 60.0998 50.2016 60.0998C47.4016 60.0998 44.7016 60.0998 41.9016 60.0998C32.6016 60.0998 23.3016 60.0998 14.0016 60.0998C13.8016 60.0998 13.5016 60.0998 13.3016 60.0998C12.4016 59.9998 11.6016 59.2998 11.6016 58.3998C11.6016 57.5998 12.3016 56.7998 13.2016 56.7998C14.2016 56.7998 15.1016 56.7998 16.1016 56.7998C21.6016 56.7998 26.8016 56.7998 32.0016 56.7998Z" fill="#8AB65A"/>
<path d="M32.0008 39.8C26.1008 39.8 20.2008 39.8 14.2008 39.8C14.0008 39.8 13.7008 39.8 13.5008 39.8C12.5008 39.7 11.8008 39 11.8008 38.1C11.8008 37.2 12.5008 36.5 13.5008 36.5C15.4008 36.5 17.3008 36.5 19.1008 36.5C29.4008 36.5 39.7008 36.5 49.9008 36.5C50.1008 36.5 50.2008 36.5 50.4008 36.5C51.4008 36.6 52.1008 37.3 52.1008 38.2C52.1008 39.1 51.4008 39.8 50.4008 39.8C48.8008 39.8 47.2008 39.8 45.6008 39.8H32.0008Z" fill="#8AB65A"/>
<path d="M31.8984 49.9001H14.0984C13.9984 49.9001 13.8984 49.9001 13.7984 49.9001C12.6984 49.9001 11.8984 49.1001 11.8984 48.2001C11.8984 47.3001 12.6984 46.6001 13.7984 46.6001C17.9984 46.6001 22.1984 46.6001 26.3984 46.6001C34.1984 46.6001 42.0984 46.6001 49.8984 46.6001C50.1984 46.6001 50.3984 46.6001 50.6984 46.6001C51.5984 46.7001 52.2984 47.4001 52.3984 48.2001C52.3984 49.1001 51.6984 49.9001 50.6984 49.9001C49.6984 49.9001 48.6984 49.9001 47.7984 49.9001C42.3984 49.9001 37.0984 49.9001 31.8984 49.9001Z" fill="#8AB65A"/>
<path d="M40.4984 94.7002C41.3984 94.3002 42.1984 93.6002 42.9984 93.6002C43.7984 93.6002 44.5984 94.3002 45.4984 94.8002C45.4984 94.0002 45.4984 93.3002 45.4984 92.6002C45.4984 91.5002 46.1984 90.7002 47.1984 90.7002C48.0984 90.7002 48.7984 91.5002 48.7984 92.6002C48.7984 94.5002 48.7984 96.3002 48.7984 98.2002C48.7984 99.0002 48.4984 99.6002 47.7984 99.9002C47.0984 100.2 46.4984 100.1 45.8984 99.6002C45.0984 99.0002 44.2984 98.4002 43.4984 97.8002C43.0984 97.4002 42.6984 97.4002 42.1984 97.8002C41.3984 98.5002 40.4984 99.1002 39.6984 99.7002C39.0984 100.2 38.4984 100.3 37.7984 99.9002C37.1984 99.6002 36.8984 99.0002 36.8984 98.3002C36.8984 96.4002 36.8984 94.5002 36.8984 92.6002C36.8984 91.5002 37.5984 90.7002 38.5984 90.8002C39.4984 90.8002 40.1984 91.6002 40.1984 92.6002C40.1984 93.3002 40.1984 94.1002 40.1984 94.8002C40.3984 94.7002 40.4984 94.7002 40.4984 94.7002Z" fill="#8AB65A"/>
<path d="M16.9 15.6001C16.9 14.7001 16.9 13.8001 16.9 12.9001C16.9 11.9001 17.6 11.1001 18.5 11.1001C19.4 11.1001 20.1 11.9001 20.1 12.9001C20.1 15.0001 20.2 17.1001 19.9 19.1001C19.3 23.2001 15.4 26.2001 11.4 26.2001C9.9 26.2001 8.5 26.2001 7 26.2001C5.8 26.2001 5 25.5001 5 24.6001C5 23.6001 5.8 22.9001 7 22.9001C8.6 22.9001 10.1 22.9001 11.7 22.9001C14.7 22.9001 16.7 20.8001 16.8 17.8001C16.9 17.0001 16.9 16.3001 16.9 15.6001Z" fill="#8AB65A"/>
</g>
<defs>
<clipPath id="clip0">
<rect width="64" height="94" fill="white" transform="translate(0 6)"/>
</clipPath>
</defs>
</svg>
