<svg width="100" height="100" viewBox="0 0 100 100" fill="none" xmlns="http://www.w3.org/2000/svg">
<path d="M85.7994 88.2999C84.3994 86.9999 83.0994 85.6999 81.6994 84.3999C80.7994 83.4999 80.6994 82.3999 81.3994 81.5999C82.1994 80.8999 83.1994 80.9999 84.1994 81.8999C86.5994 84.2999 88.9994 86.5999 91.2994 88.9999C92.1994 89.8999 92.1994 90.8999 91.2994 91.6999C88.7994 94.1999 86.1994 96.6999 83.6994 99.1999C83.1994 99.6999 82.5994 100.1 81.7994 99.8999C80.3994 99.4999 80.0994 97.9999 81.0994 96.8999C82.3994 95.5999 83.6994 94.2999 84.9994 92.9999C85.1994 92.7999 85.3994 92.5999 85.7994 92.1999C85.2994 92.1999 84.9994 92.0999 84.6994 92.0999C67.5994 92.0999 50.3994 92.0999 33.2994 92.0999C25.4994 92.0999 17.6994 92.0999 9.79936 92.0999C7.99936 92.0999 7.39936 91.4999 7.39936 89.6999C7.39936 64.1999 7.39936 38.6999 7.39936 13.1999V12.1999C7.09936 12.4999 6.89936 12.5999 6.69936 12.8999C5.49936 13.9999 4.29936 15.1999 3.09936 16.3999C2.29936 17.1999 1.19936 17.2999 0.499363 16.5999C-0.200637 15.8999 -0.100637 14.7999 0.699363 13.9999C3.09936 11.5999 5.49936 9.1999 7.89936 6.6999C8.79936 5.7999 9.79936 5.7999 10.6994 6.6999C13.0994 9.0999 15.5994 11.5999 17.9994 13.9999C18.8994 14.8999 18.9994 15.9999 18.2994 16.7999C17.5994 17.4999 16.4994 17.3999 15.4994 16.4999C14.0994 15.0999 12.7994 13.6999 11.3994 12.2999C11.2994 12.2999 11.1994 12.3999 11.1994 12.3999V88.5999H85.6994C85.6994 88.4999 85.6994 88.3999 85.7994 88.2999Z" fill="#8AB65A"/>
<path d="M74.8984 38.9C75.1984 38.3 75.3984 37.7 75.6984 37.1C77.4984 32.4 79.2984 27.7 81.1984 23.1C81.5984 21.9 82.5984 21.5 83.5984 21.9C84.4984 22.3 84.8984 23.2 84.3984 24.3C82.0984 30.1 79.8984 35.9 77.5984 41.8C77.0984 43.1 76.1984 43.5 74.8984 42.9C72.3984 41.7 69.8984 40.6 67.3984 39.4C66.7984 39.1 66.4984 39.2 66.1984 39.8C60.7984 48.7 55.3984 57.6 49.9984 66.5C48.9984 68.1 47.9984 68.3 46.5984 67C44.0984 64.9 41.6984 62.7 39.1984 60.6C38.5984 60.1 38.2984 60.1 37.7984 60.7C33.7984 65.3 29.6984 69.9 25.5984 74.5C25.2984 74.8 25.0984 75.1 24.7984 75.4C24.0984 76.1 23.1984 76.2 22.4984 75.6C20.1984 73.7 17.8984 71.7 15.6984 69.7C14.9984 69.1 14.9984 67.9 15.5984 67.3C16.1984 66.6 17.2984 66.6 17.9984 67.2C19.4984 68.5 20.9984 69.8 22.5984 71.1C22.7984 71.3 23.0984 71.5 23.3984 71.7C24.6984 70.2 25.8984 68.8 27.1984 67.4C30.2984 63.9 33.3984 60.4 36.4984 56.8C37.7984 55.3 38.5984 55.3 40.0984 56.7C42.4984 58.8 44.8984 60.9 47.2984 63C47.3984 63.1 47.5984 63.2 47.7984 63.3C48.5984 62 49.3984 60.7 50.1984 59.4C54.7984 51.7 59.3984 44 63.9984 36.4C64.9984 34.8 65.6984 34.6 67.2984 35.4C69.5984 36.5 71.7984 37.6 74.0984 38.6C74.3984 38.8 74.5984 38.8 74.8984 38.9Z" fill="#8AB65A"/>
<path d="M17.1991 46.1C18.0991 46.4 19.2991 46.7 20.3991 47.2C21.1991 47.5 21.7991 47.4 22.4991 47C27.7991 43.6 33.1991 40.3 38.5991 37C39.8991 36.2 40.5991 36.3 41.6991 37.4C45.4991 41.2 49.3991 44.9 53.1991 48.6C54.2991 49.7 54.0991 51.2 52.6991 51.7C51.8991 52 51.2991 51.6 50.6991 51C47.3991 47.8 44.0991 44.6 40.7991 41.4C39.7991 40.4 39.7991 40.4 38.5991 41.1C33.4991 44.3 28.3991 47.4 23.2991 50.6C22.4991 51.1 21.6991 51.2 20.7991 50.9C19.2991 50.4 17.7991 49.9 16.3991 49.4C15.4991 49.1 15.1991 48.2 15.3991 47.3C15.3991 46.6 16.0991 46.1 17.1991 46.1Z" fill="#8AB65A"/>
<path d="M63.0986 58.4C64.5986 56.6 66.0986 54.8 67.5986 53.1C68.1986 52.4 68.7986 51.7 69.3986 51C70.2986 50 71.4986 50 72.3986 51C76.1986 55.1 79.8986 59.2 83.6986 63.3C84.3986 64.1 85.1986 64.9 85.8986 65.7C86.7986 66.7 86.8986 67.7 85.9986 68.4C85.1986 69.1 84.1986 69 83.2986 68C79.3986 63.8 75.4986 59.6 71.5986 55.4C71.3986 55.2 71.2986 54.9 70.9986 54.6C70.4986 55.2 70.0986 55.6 69.7986 56C68.1986 57.9 66.5986 59.9 64.8986 61.8C63.7986 63.1 62.8986 63.2 61.6986 62C60.5986 61 59.4986 59.9 58.3986 58.8C57.5986 58 57.4986 57 58.1986 56.3C58.8986 55.6 59.8986 55.6 60.7986 56.3C61.4986 56.9 62.2986 57.6 63.0986 58.4Z" fill="#8AB65A"/>
</svg>
