<svg id="Слой_1" data-name="Слой 1" xmlns="http://www.w3.org/2000/svg" xmlns:xlink="http://www.w3.org/1999/xlink" width="1200" height="373.4" viewBox="0 0 1200 373.4">
  <defs>
    <style>
      .cls-1 {
        fill: #11559b;
      }

      .cls-2 {
        fill: #3c3c3b;
      }

      .cls-3 {
        fill: url(#radial-gradient);
      }

      .cls-4 {
        fill: url(#linear-gradient);
      }

      .cls-5 {
        fill: url(#linear-gradient-2);
      }

      .cls-6 {
        fill: url(#linear-gradient-3);
      }

      .cls-7 {
        fill: url(#linear-gradient-4);
      }

      .cls-8 {
        fill: url(#linear-gradient-5);
      }

      .cls-9 {
        fill: url(#linear-gradient-6);
      }
    </style>
    <radialGradient id="radial-gradient" cx="5980.73" cy="-1382.51" r="308.24" gradientTransform="matrix(0.17, 0, 0, 0.17, -863.34, 404.95)" gradientUnits="userSpaceOnUse">
      <stop offset="0" stop-color="#4a96d2"/>
      <stop offset="1" stop-color="#1f2466"/>
    </radialGradient>
    <linearGradient id="linear-gradient" x1="857.12" y1="77.13" x2="1015.98" y2="9.48" gradientTransform="translate(-415.96 -643.83) rotate(45)" xlink:href="#radial-gradient"/>
    <linearGradient id="linear-gradient-2" x1="1074.04" y1="735.74" x2="1232.9" y2="668.09" gradientTransform="translate(-922.83 1161.61) rotate(-75)" xlink:href="#radial-gradient"/>
    <linearGradient id="linear-gradient-3" x1="282.66" y1="527.46" x2="441.53" y2="459.81" gradientTransform="translate(768.56 662.65) rotate(165)" xlink:href="#radial-gradient"/>
    <linearGradient id="linear-gradient-4" x1="71.49" y1="139.39" x2="143.49" y2="28.91" gradientTransform="matrix(1, 0, 0, 1, 0, 0)" xlink:href="#radial-gradient"/>
    <linearGradient id="linear-gradient-5" x1="207.7" y1="296.94" x2="78.55" y2="310.11" gradientTransform="matrix(1, 0, 0, 1, 0, 0)" xlink:href="#radial-gradient"/>
    <linearGradient id="linear-gradient-6" x1="290.85" y1="110.12" x2="317.18" y2="243.04" gradientTransform="matrix(1, 0, 0, 1, 0, 0)" xlink:href="#radial-gradient"/>
  </defs>
  <g>
    <path class="cls-1" d="M483,271.7h13.18q7.56,0,11.44,3a10.16,10.16,0,0,1,3.88,8.55,12.87,12.87,0,0,1-.73,4.54,11,11,0,0,1-2,3.41,11.07,11.07,0,0,1-3,2.39,13.71,13.71,0,0,1-3.66,1.39,5.9,5.9,0,0,1,2.77,2.55,37.28,37.28,0,0,1,2.52,4.86c.85,1.91,1.74,4,2.69,6.37s2,4.69,3.24,7.09h-6.56c-1.34-2.69-2.45-5-3.31-7.06s-1.59-3.75-2.17-5.2-1.12-2.65-1.58-3.6a7.78,7.78,0,0,0-1.58-2.24,5.07,5.07,0,0,0-2.08-1.16,11.43,11.43,0,0,0-3.09-.35h-4.35v19.61H483Zm5.67,19.23h7.88a11.5,11.5,0,0,0,6.47-1.61q2.42-1.6,2.42-5.51a6.06,6.06,0,0,0-2.23-5.05c-1.49-1.18-4-1.76-7.35-1.76h-7.19Z"/>
    <path class="cls-1" d="M547.15,316.48a20.91,20.91,0,0,1-8.29-1.58,17.63,17.63,0,0,1-6.31-4.52,19.75,19.75,0,0,1-4-7.15,30.09,30.09,0,0,1-1.39-9.46,28.88,28.88,0,0,1,1.45-9.49,20.73,20.73,0,0,1,4.07-7.13,17.67,17.67,0,0,1,6.27-4.51,20,20,0,0,1,8-1.57,21.19,21.19,0,0,1,8.67,1.67,17.46,17.46,0,0,1,6.31,4.67,20.5,20.5,0,0,1,3.88,7.18,30.49,30.49,0,0,1,1.32,9.18,29.42,29.42,0,0,1-1.51,9.87,20,20,0,0,1-4.17,7.09,16.92,16.92,0,0,1-6.3,4.29A21.49,21.49,0,0,1,547.15,316.48Zm.57-5.31a11.91,11.91,0,0,0,9.8-4.38q3.57-4.38,3.57-13a27.58,27.58,0,0,0-1-7.82,14.78,14.78,0,0,0-2.8-5.42,11.12,11.12,0,0,0-4.45-3.16,16.37,16.37,0,0,0-5.9-1,13.79,13.79,0,0,0-5.42,1.07,11.56,11.56,0,0,0-4.35,3.23,15.82,15.82,0,0,0-2.91,5.41,25,25,0,0,0-1.07,7.7,25.41,25.41,0,0,0,1,7.63,15.27,15.27,0,0,0,2.94,5.45,11.62,11.62,0,0,0,4.56,3.25A15.9,15.9,0,0,0,547.72,311.17Z"/>
    <path class="cls-1" d="M581.64,308a20.21,20.21,0,0,0,4.14,2.11,16.06,16.06,0,0,0,6,1c2.94,0,5.13-.62,6.56-1.88a6.8,6.8,0,0,0,2.14-5.37,9.19,9.19,0,0,0-.47-3.18,5.81,5.81,0,0,0-1.51-2.27,10.49,10.49,0,0,0-2.65-1.74c-1.07-.5-2.37-1.05-3.88-1.63l-1.51-.57a30.66,30.66,0,0,1-4.2-2,10.77,10.77,0,0,1-3-2.46,9.84,9.84,0,0,1-1.77-3.31,14.65,14.65,0,0,1-.59-4.42A10,10,0,0,1,584.7,274q3.76-3,10.38-3a23.85,23.85,0,0,1,3.79.28A30.05,30.05,0,0,1,602,272a15.92,15.92,0,0,1,2.23.79,9.21,9.21,0,0,1,1.26.67L604,278.32a18.56,18.56,0,0,0-4.86-1.55,27.89,27.89,0,0,0-4.48-.41,9.37,9.37,0,0,0-5.7,1.49,5.24,5.24,0,0,0-2,4.5,8.56,8.56,0,0,0,.31,2.37,5,5,0,0,0,1.23,2,11.07,11.07,0,0,0,2.55,1.86,35.39,35.39,0,0,0,4.23,1.92l1.64.63a23.86,23.86,0,0,1,4.76,2.4,11.39,11.39,0,0,1,2.94,2.77,9.41,9.41,0,0,1,1.48,3.31,18,18,0,0,1,.41,3.94,13.93,13.93,0,0,1-1,5.56,11.22,11.22,0,0,1-2.93,4,12.83,12.83,0,0,1-4.51,2.49,18.55,18.55,0,0,1-5.78.86,24.17,24.17,0,0,1-6.71-.92,20.29,20.29,0,0,1-5.52-2.43Z"/>
    <path class="cls-1" d="M649.23,304.05H630.37l-4.29,11.79h-5.74l16.84-44.14h5.68l16.52,44.14h-5.93Zm-17-5.17h15.19L640,278.13h-.25Z"/>
    <path class="cls-1" d="M682.53,315.84h-5.67V277H663.8v-5.3h31.78V277H682.53Z"/>
    <path class="cls-1" d="M725,316.48a20.91,20.91,0,0,1-8.29-1.58,17.63,17.63,0,0,1-6.31-4.52,20,20,0,0,1-4-7.15,30.09,30.09,0,0,1-1.39-9.46,28.88,28.88,0,0,1,1.45-9.49,20.89,20.89,0,0,1,4.07-7.13,17.79,17.79,0,0,1,6.28-4.51,20,20,0,0,1,8-1.57,21.19,21.19,0,0,1,8.67,1.67,17.46,17.46,0,0,1,6.31,4.67,20.18,20.18,0,0,1,3.88,7.18,30.49,30.49,0,0,1,1.32,9.18,29.42,29.42,0,0,1-1.51,9.87,20.16,20.16,0,0,1-4.16,7.09,17,17,0,0,1-6.31,4.29A21.49,21.49,0,0,1,725,316.48Zm.57-5.31a11.94,11.94,0,0,0,9.81-4.38q3.55-4.38,3.56-13a27.58,27.58,0,0,0-1-7.82,14.64,14.64,0,0,0-2.81-5.42,11,11,0,0,0-4.44-3.16,16.37,16.37,0,0,0-5.9-1,13.79,13.79,0,0,0-5.42,1.07,11.64,11.64,0,0,0-4.35,3.23,15.64,15.64,0,0,0-2.9,5.41,24.74,24.74,0,0,0-1.07,7.7,25.41,25.41,0,0,0,1,7.63,15.1,15.1,0,0,0,2.93,5.45,11.59,11.59,0,0,0,4.57,3.25A15.81,15.81,0,0,0,725.61,311.17Z"/>
    <path class="cls-1" d="M803.31,315.84h-5.68l-2.71-34.5-11.16,34.5h-5.93l-11.1-34.37L764,315.84h-5.68l3.78-44.14H769l11.92,38,11.67-38h6.94Z"/>
  </g>
  <rect class="cls-2" x="424.01" y="38.98" width="3.77" height="294.65"/>
  <g>
    <g>
      <path class="cls-2" d="M517.69,108H494.32L489,122.58h-7.11l20.87-54.73h7l20.48,54.73h-7.35Zm-21.11-6.41h18.84l-9.14-25.72H506Z"/>
      <path class="cls-2" d="M558.19,122.58h-7V74.42H535V67.85h39.4v6.57H558.19Z"/>
      <path class="cls-2" d="M610.88,123.36a26,26,0,0,1-10.28-2,22,22,0,0,1-7.82-5.59,24.74,24.74,0,0,1-5-8.88,37.34,37.34,0,0,1-1.72-11.72,35.88,35.88,0,0,1,1.8-11.77,25.81,25.81,0,0,1,5-8.84A22,22,0,0,1,600.72,69a24.85,24.85,0,0,1,9.93-2,26.23,26.23,0,0,1,10.75,2.07,21.7,21.7,0,0,1,7.82,5.79,25.2,25.2,0,0,1,4.8,8.91,37.48,37.48,0,0,1,1.64,11.38,36.51,36.51,0,0,1-1.87,12.23,25,25,0,0,1-5.16,8.8,21.4,21.4,0,0,1-7.82,5.31A26.66,26.66,0,0,1,610.88,123.36Zm.71-6.57q7.74,0,12.15-5.43t4.42-16.14a34.11,34.11,0,0,0-1.21-9.7,18.27,18.27,0,0,0-3.48-6.72A13.53,13.53,0,0,0,618,74.89a20.09,20.09,0,0,0-7.31-1.25A17,17,0,0,0,603.92,75a14.39,14.39,0,0,0-5.39,4,19.84,19.84,0,0,0-3.6,6.73,31,31,0,0,0-1.33,9.54,31.37,31.37,0,0,0,1.29,9.46,18.91,18.91,0,0,0,3.64,6.76,14.43,14.43,0,0,0,5.67,4A19.61,19.61,0,0,0,611.59,116.79Z"/>
      <path class="cls-2" d="M708.69,122.58h-7l-3.36-42.77-13.84,42.77H677.1L663.34,80l-3.44,42.61h-7l4.7-54.73h8.6l14.77,47.07L695.4,67.85H704Z"/>
    </g>
    <g>
      <path class="cls-2" d="M762,122.58h-7V67.85h16.11a33.18,33.18,0,0,1,8.4,1,17,17,0,0,1,6.37,3.09A13.73,13.73,0,0,1,790,77.23a19,19,0,0,1,1.41,7.66q0,8.53-5.52,13t-15.36,4.5H762Zm0-26.74h8.44q6.57,0,10-2.66t3.4-8.13q0-5.62-3.4-8.13t-10-2.5H762Z"/>
      <path class="cls-2" d="M831.77,123.36a26,26,0,0,1-10.28-2,22,22,0,0,1-7.82-5.59,24.74,24.74,0,0,1-5-8.88A37.34,37.34,0,0,1,807,95.22a35.88,35.88,0,0,1,1.8-11.77,25.81,25.81,0,0,1,5-8.84A22,22,0,0,1,821.61,69a24.85,24.85,0,0,1,9.93-2,26.23,26.23,0,0,1,10.75,2.07,21.57,21.57,0,0,1,7.81,5.79,25.06,25.06,0,0,1,4.81,8.91,37.48,37.48,0,0,1,1.64,11.38,36.51,36.51,0,0,1-1.87,12.23,25,25,0,0,1-5.16,8.8,21.4,21.4,0,0,1-7.82,5.31A26.66,26.66,0,0,1,831.77,123.36Zm.71-6.57c5.15,0,9.21-1.81,12.15-5.43s4.42-9,4.42-16.14a34.11,34.11,0,0,0-1.21-9.7,18.27,18.27,0,0,0-3.48-6.72,13.53,13.53,0,0,0-5.51-3.91,20.09,20.09,0,0,0-7.31-1.25A17,17,0,0,0,824.81,75a14.39,14.39,0,0,0-5.39,4,19.84,19.84,0,0,0-3.6,6.73,31,31,0,0,0-1.33,9.54,31.37,31.37,0,0,0,1.29,9.46,18.91,18.91,0,0,0,3.64,6.76,14.43,14.43,0,0,0,5.67,4A19.61,19.61,0,0,0,832.48,116.79Z"/>
      <path class="cls-2" d="M923.17,122.58h-8.53l-11.1-46.13-11.18,46.13h-8.68L870.24,67.85h7.19l10.94,45.58,10.79-45.58h8.76l10.87,45.58,11-45.58h7.11Z"/>
      <path class="cls-2" d="M983.52,122.58H953V67.85h30.57v6.57H960V91h21.5V97.4H960V116h23.53Z"/>
      <path class="cls-2" d="M1003.46,67.85h16.33q9.39,0,14.19,3.72t4.81,10.59a16.14,16.14,0,0,1-.9,5.63,13.66,13.66,0,0,1-2.46,4.22,13.43,13.43,0,0,1-3.68,3,16.71,16.71,0,0,1-4.53,1.72,7.39,7.39,0,0,1,3.44,3.17,45.4,45.4,0,0,1,3.13,6q1.56,3.56,3.32,7.89t4,8.8H1033q-2.51-5-4.11-8.76t-2.69-6.45q-1.11-2.7-2-4.45a9.23,9.23,0,0,0-2-2.78,6.33,6.33,0,0,0-2.58-1.45,14.39,14.39,0,0,0-3.83-.43h-5.4v24.32h-7Zm7,23.85h9.77a14.32,14.32,0,0,0,8-2c2-1.33,3-3.6,3-6.84a7.5,7.5,0,0,0-2.78-6.25q-2.77-2.19-9.11-2.19h-8.91Z"/>
    </g>
  </g>
  <g>
    <g>
      <path class="cls-2" d="M488.92,215.61h-7V160.89h7Z"/>
      <path class="cls-2" d="M552.56,215.61h-9.07L517.85,170v45.58h-7V160.89h9.85l24.86,44.4v-44.4h7Z"/>
      <path class="cls-2" d="M574.45,215.61V160.89h16.34a36,36,0,0,1,12,1.76,21.09,21.09,0,0,1,8.25,5.08,20.09,20.09,0,0,1,4.77,8.25,38.23,38.23,0,0,1,1.52,11.25,35.76,35.76,0,0,1-2,12.43,23.54,23.54,0,0,1-5.58,8.88,23.08,23.08,0,0,1-8.76,5.31,35.2,35.2,0,0,1-11.53,1.76Zm7-6.56h7.27q21,0,21-21.27a34.31,34.31,0,0,0-1.1-9.26,14.71,14.71,0,0,0-3.48-6.34,13.93,13.93,0,0,0-6.18-3.59,32.16,32.16,0,0,0-9.18-1.14h-8.37Z"/>
      <path class="cls-2" d="M669.83,160.89h7v30.88q0,12.27-4.73,18.45t-15.67,6.17q-10.49,0-15.44-6t-5-18.64V160.89h7v30.33a44.4,44.4,0,0,0,.66,8.13,15.84,15.84,0,0,0,2.23,5.86,10,10,0,0,0,4.15,3.56,14.79,14.79,0,0,0,6.33,1.22,15.89,15.89,0,0,0,6.68-1.22,9.33,9.33,0,0,0,4.11-3.59,15.7,15.7,0,0,0,2-5.87,53.19,53.19,0,0,0,.55-8.09Z"/>
      <path class="cls-2" d="M697.19,205.92a24.8,24.8,0,0,0,5.12,2.62,20.09,20.09,0,0,0,7.47,1.29c3.64,0,6.36-.78,8.13-2.35a8.39,8.39,0,0,0,2.66-6.64,11.58,11.58,0,0,0-.59-4,7.15,7.15,0,0,0-1.88-2.81,12.35,12.35,0,0,0-3.28-2.15q-2-.94-4.81-2l-1.87-.7a37.92,37.92,0,0,1-5.2-2.46,13.44,13.44,0,0,1-3.68-3,12.37,12.37,0,0,1-2.19-4.11,18.33,18.33,0,0,1-.74-5.47q0-6.65,4.65-10.32t12.86-3.67a28.94,28.94,0,0,1,4.69.35,32.82,32.82,0,0,1,3.87.82,18.21,18.21,0,0,1,2.78,1,11.24,11.24,0,0,1,1.56.82l-1.8,6a22.67,22.67,0,0,0-6-1.92,33.84,33.84,0,0,0-5.55-.51c-3.07,0-5.43.62-7.07,1.84a6.53,6.53,0,0,0-2.47,5.59,10.13,10.13,0,0,0,.4,2.93,6,6,0,0,0,1.52,2.46,13.27,13.27,0,0,0,3.17,2.31,43.47,43.47,0,0,0,5.23,2.39l2,.78a29.88,29.88,0,0,1,5.9,3,14,14,0,0,1,3.64,3.44,11.56,11.56,0,0,1,1.83,4.1,22,22,0,0,1,.51,4.89,17.13,17.13,0,0,1-1.29,6.88,13.76,13.76,0,0,1-3.63,5,15.91,15.91,0,0,1-5.59,3.09,23.19,23.19,0,0,1-7.16,1,29.81,29.81,0,0,1-8.32-1.13,25,25,0,0,1-6.84-3Z"/>
      <path class="cls-2" d="M763.41,215.61h-7V167.45H740.19v-6.56h39.4v6.56H763.41Z"/>
      <path class="cls-2" d="M796,160.89h16.34q9.38,0,14.19,3.71t4.81,10.59a16.34,16.34,0,0,1-.9,5.63,13.62,13.62,0,0,1-2.47,4.23,13.77,13.77,0,0,1-3.67,3,17.31,17.31,0,0,1-4.53,1.72,7.36,7.36,0,0,1,3.44,3.16,45.45,45.45,0,0,1,3.12,6c1,2.37,2.15,5,3.32,7.9s2.52,5.82,4,8.79h-8.13q-2.5-5-4.1-8.75t-2.7-6.45q-1.1-2.7-2-4.46a9.17,9.17,0,0,0-1.95-2.77,6.33,6.33,0,0,0-2.58-1.45,14,14,0,0,0-3.83-.43H803v24.31h-7Zm7,23.84h9.78a14.31,14.31,0,0,0,8-2q3-2,3-6.84a7.54,7.54,0,0,0-2.77-6.26c-1.86-1.46-4.89-2.19-9.11-2.19H803Z"/>
      <path class="cls-2" d="M869.81,215.61h-7v-22.9l-19.39-31.82h8.37l14.7,24.62,14.31-24.62h8.36l-19.31,31.82Z"/>
    </g>
    <g>
      <path class="cls-2" d="M954.18,216.39h-7V168.24H931v-6.57h39.4v6.57H954.18Z"/>
      <path class="cls-2" d="M986.78,161.67h16.34q9.38,0,14.19,3.71t4.81,10.6a16.18,16.18,0,0,1-.9,5.63,13.28,13.28,0,0,1-6.14,7.19,17.31,17.31,0,0,1-4.53,1.72,7.41,7.41,0,0,1,3.44,3.16,46.09,46.09,0,0,1,3.12,6c1,2.37,2.15,5,3.33,7.9s2.51,5.82,4,8.79h-8.13q-2.51-5-4.1-8.75t-2.7-6.45c-.73-1.8-1.38-3.28-1.95-4.46a9.36,9.36,0,0,0-2-2.77,6.33,6.33,0,0,0-2.58-1.45,14.34,14.34,0,0,0-3.83-.43h-5.39v24.31h-7Zm7,23.84h9.77a14.29,14.29,0,0,0,8-2q3-2,3-6.84a7.48,7.48,0,0,0-2.77-6.25q-2.77-2.19-9.11-2.19h-8.91Z"/>
      <path class="cls-2" d="M1072.78,201.77H1049.4l-5.31,14.62H1037l20.88-54.72h7l20.49,54.72H1078Zm-21.11-6.41h18.84l-9.15-25.72h-.31Z"/>
      <path class="cls-2" d="M1101,216.39V161.67h16.34a36,36,0,0,1,12,1.76,20.94,20.94,0,0,1,8.25,5.08,20.15,20.15,0,0,1,4.77,8.25,38.23,38.23,0,0,1,1.52,11.25,36.1,36.1,0,0,1-1.95,12.44,23.6,23.6,0,0,1-5.59,8.87,23.15,23.15,0,0,1-8.76,5.32,35.43,35.43,0,0,1-11.53,1.75Zm7-6.56h7.27q21,0,21-21.27a34.31,34.31,0,0,0-1.1-9.26,14.62,14.62,0,0,0-3.48-6.33,13.9,13.9,0,0,0-6.17-3.6,32.26,32.26,0,0,0-9.19-1.13H1108Z"/>
      <path class="cls-2" d="M1194,216.39h-30.57V161.67H1194v6.57h-23.54v16.57h21.5v6.41h-21.5v18.61H1194Z"/>
    </g>
  </g>
  <g id="Main">
    <path class="cls-3" d="M216,212.19a38.11,38.11,0,1,1-2.69-53.89A38,38,0,0,1,216,212.19Z"/>
    <path class="cls-4" d="M197.73,56c3.19,3.14,6.13,6.35,8.82,9.55A149.84,149.84,0,0,1,229,102a117.92,117.92,0,0,0,27.41,1.89c.55,0,1.06,0,1.62-.07l1.49-.14c18.83-1.7,43.31-8.92,65.67-31.35.77-.76,1.54-1.58,2.3-2.39-3.46-4.13-7-8.21-10.9-12.1a182.31,182.31,0,0,0-237.79-17C134.82,13.61,173.62,32.34,197.73,56Z"/>
    <path class="cls-5" d="M68.7,241.14c1.12-4.34,2.43-8.49,3.86-12.41a150,150,0,0,1,20.26-37.64,117.61,117.61,0,0,0-12.06-24.68c-.31-.46-.56-.91-.88-1.38s-.57-.79-.86-1.21c-10.89-15.46-29.38-33-60-41.2-1.05-.28-2.15-.53-3.23-.8-1.84,5.07-3.58,10.19-5,15.49A182.3,182.3,0,0,0,114.92,351.76C63.41,316.83,60.22,273.86,68.7,241.14Z"/>
    <path class="cls-6" d="M293.94,260.54c-4.31,1.2-8.56,2.13-12.68,2.86a150.38,150.38,0,0,1-42.73,1.28,117.25,117.25,0,0,0-15.34,22.78c-.25.49-.5.94-.75,1.44s-.4.9-.62,1.36c-7.95,17.16-13.93,42-5.69,72.55.28,1,.6,2.12.92,3.18,5.31-.93,10.63-2,15.93-3.39A182.31,182.31,0,0,0,366.63,165.19C362.13,227.27,326.52,251.51,293.94,260.54Z"/>
    <path class="cls-7" d="M78.81,40.76S39.27,65.52,18.6,115.23c5.42.94,60.57,12.06,81.13,73.36,5-3.21,20.45-15.39,30.81-49C143.07,99,166.87,69.08,197.73,56,197.73,56,158.65.34,78.81,40.76Z"/>
    <path class="cls-8" d="M204.1,333c0-20.58,5.7-47.81,28.55-73.47l.26-.39c-3.74-4-16.79-13.81-50.38-6.16-41.42,9.45-87.11,8.35-113.83-11.85,0,0-28.7,61.69,46.22,110.62,0,0,41.16,21.84,94.48,14.92A104.13,104.13,0,0,1,204.1,333Z"/>
    <path class="cls-9" d="M332.27,75.84c-5.9,7.15-33.89,36.49-80.62,36.53a117.71,117.71,0,0,1-24-2.51l-.4-.09c-1.54,5.65-2.82,21.66,20,46.25,28.89,31.15,50.79,71.28,46.65,104.52,0,0,67.78-6,72.69-95.35C366.63,165.19,365,118.58,332.27,75.84Z"/>
  </g>
</svg>
