<svg width="268" height="67" viewBox="0 0 268 67" fill="none" xmlns="http://www.w3.org/2000/svg">
<path d="M89.7395 27.1155H85.6976L84.7787 29.6414H83.5508L87.1609 20.1785H88.3765L91.917 29.6414H90.6461L89.7395 27.1155ZM86.0905 26.0061H89.3466L87.7666 21.5581H87.7114L86.0905 26.0061Z" fill="#3C3C3B"/>
<path d="M97.0052 29.6414H95.7896V21.3145H92.9961V20.1785H99.8069V21.3145H97.0052V29.6414Z" fill="#3C3C3B"/>
<path d="M106.255 29.7787C105.645 29.7875 105.04 29.6718 104.476 29.4389C103.96 29.2215 103.498 28.8914 103.126 28.4728C102.736 28.0269 102.443 27.5048 102.266 26.9396C102.06 26.2835 101.96 25.5988 101.969 24.9111C101.959 24.2203 102.065 23.5327 102.28 22.8765C102.463 22.3147 102.757 21.7954 103.144 21.3495C103.516 20.9323 103.975 20.6024 104.489 20.3833C105.034 20.1512 105.621 20.0355 106.214 20.0435C106.852 20.0315 107.485 20.1535 108.072 20.4018C108.592 20.6292 109.054 20.9714 109.423 21.4027C109.802 21.8545 110.085 22.379 110.254 22.944C110.449 23.5812 110.545 24.2447 110.538 24.9111C110.55 25.6271 110.441 26.34 110.215 27.0195C110.025 27.5821 109.721 28.0998 109.323 28.5403C108.946 28.9439 108.484 29.2579 107.97 29.4594C107.424 29.6737 106.842 29.7821 106.255 29.7787ZM106.376 28.6427C106.775 28.6609 107.173 28.5854 107.538 28.4223C107.903 28.2591 108.225 28.0129 108.477 27.7031C108.988 27.0768 109.242 26.1461 109.241 24.9111C109.253 24.3454 109.184 23.7809 109.036 23.2347C108.918 22.8098 108.713 22.414 108.434 22.072C108.179 21.7695 107.851 21.537 107.481 21.3966C107.077 21.2463 106.649 21.1727 106.218 21.1796C105.819 21.1771 105.424 21.255 105.056 21.4088C104.695 21.5632 104.376 21.7994 104.122 22.0987C103.844 22.4425 103.635 22.8374 103.508 23.2613C103.346 23.7958 103.269 24.3526 103.279 24.9111C103.269 25.4652 103.344 26.0175 103.502 26.5487C103.63 26.9771 103.844 27.3748 104.131 27.7175C104.396 28.0256 104.733 28.265 105.111 28.4155C105.514 28.5699 105.943 28.647 106.376 28.6427Z" fill="#3C3C3B"/>
<path d="M123.165 29.6414H121.937L121.36 22.2479L118.968 29.6414H117.697L115.319 22.2725L114.723 29.6414H113.508L114.326 20.1785H115.814L118.368 28.317L120.869 20.1785H122.355L123.165 29.6414Z" fill="#3C3C3B"/>
<path d="M127.572 24.1802H131.532C131.516 23.7228 131.417 23.2721 131.241 22.8497C131.086 22.4915 130.852 22.1726 130.558 21.9163C130.258 21.6634 129.91 21.4746 129.534 21.3616C129.115 21.2367 128.68 21.1753 128.243 21.1794C127.922 21.1829 127.601 21.2054 127.283 21.247C126.921 21.29 126.567 21.3808 126.229 21.5172L126 20.5306C126.325 20.3745 126.669 20.261 127.023 20.1928C127.483 20.0924 127.952 20.0423 128.423 20.0434C129.048 20.0357 129.67 20.1297 130.265 20.3218C130.792 20.4931 131.271 20.787 131.663 21.1794C132.066 21.5995 132.369 22.1055 132.549 22.6594C132.769 23.3476 132.875 24.0676 132.86 24.7902C132.869 25.4973 132.769 26.2015 132.563 26.8781C132.384 27.4615 132.076 27.9974 131.663 28.446C131.247 28.884 130.737 29.2214 130.171 29.4326C129.105 29.795 127.964 29.8802 126.855 29.6803C126.53 29.6087 126.256 29.535 126.037 29.4633L126.266 28.3948C126.568 28.4988 126.881 28.5675 127.199 28.5995C127.495 28.6342 127.793 28.6526 128.092 28.6548C129.127 28.6548 129.956 28.3819 130.578 27.836C131.2 27.2902 131.524 26.4475 131.55 25.3081H127.572V24.1802Z" fill="#3C3C3B"/>
<path d="M143.463 29.6414H142.235V25.2896H137.45V29.6414H136.234V20.1785H137.45V24.1802H142.235V20.1785H143.463V29.6414Z" fill="#3C3C3B"/>
<path d="M152.519 29.6414H147.234V20.1785H152.519V21.3145H148.45V24.1802H152.167V25.2896H148.45V28.5074H152.519V29.6414Z" fill="#3C3C3B"/>
<path d="M157.183 29.6415H155.965V20.1786H158.75C159.24 20.1729 159.728 20.23 160.203 20.3485C160.603 20.4478 160.979 20.6298 161.304 20.8828C161.61 21.1269 161.851 21.4425 162.006 21.8018C162.179 22.2215 162.262 22.6726 162.25 23.1262C162.25 24.1087 161.933 24.8592 161.298 25.3778C160.664 25.8963 159.777 26.1556 158.638 26.1556H157.178L157.183 29.6415ZM157.183 25.0196H158.642C159.399 25.0196 159.972 24.8661 160.365 24.559C160.758 24.252 160.952 23.7853 160.952 23.1528C160.952 22.5203 160.748 22.0372 160.365 21.7486C159.982 21.46 159.399 21.3147 158.642 21.3147H157.183V25.0196Z" fill="#3C3C3B"/>
<path d="M166.575 29.6414H165.359V20.1785H170.373V21.3145H166.575V29.6414Z" fill="#3C3C3B"/>
<path d="M176.616 29.7787C176.007 29.7872 175.403 29.6716 174.84 29.4389C174.323 29.2221 173.861 28.8919 173.489 28.4728C173.099 28.0269 172.807 27.5048 172.63 26.9396C172.423 26.2835 172.323 25.5988 172.333 24.9111C172.322 24.2203 172.427 23.5325 172.644 22.8765C172.829 22.3141 173.125 21.7947 173.516 21.3495C173.887 20.9319 174.346 20.6019 174.86 20.3833C175.403 20.1523 175.988 20.0366 176.577 20.0435C177.215 20.0315 177.848 20.1535 178.436 20.4018C178.956 20.6292 179.417 20.9714 179.786 21.4027C180.165 21.855 180.447 22.3794 180.617 22.944C180.817 23.5805 180.917 24.244 180.914 24.9111C180.923 25.6277 180.81 26.3406 180.58 27.0195C180.39 27.5821 180.086 28.0998 179.688 28.5403C179.313 28.9498 178.851 29.2695 178.335 29.4758C177.787 29.685 177.203 29.7878 176.616 29.7787ZM176.739 28.6427C177.138 28.6609 177.536 28.5854 177.901 28.4223C178.266 28.2591 178.588 28.0129 178.841 27.7031C179.351 27.0768 179.605 26.1461 179.604 24.9111C179.616 24.3454 179.547 23.7809 179.399 23.2347C179.281 22.8098 179.076 22.414 178.798 22.072C178.542 21.7695 178.214 21.537 177.844 21.3966C177.44 21.2463 177.012 21.1727 176.581 21.1796C176.182 21.1771 175.787 21.255 175.419 21.4088C175.059 21.5632 174.739 21.7994 174.486 22.0987C174.207 22.4425 173.999 22.8374 173.872 23.2613C173.709 23.7958 173.632 24.3526 173.643 24.9111C173.632 25.4652 173.708 26.0175 173.866 26.5487C173.993 26.9771 174.207 27.3748 174.494 27.7175C174.76 28.0256 175.096 28.2651 175.474 28.4155C175.878 28.5701 176.308 28.6472 176.741 28.6427H176.739Z" fill="#3C3C3B"/>
<path d="M191.188 29.6414H189.973V21.3145H185.499V29.6414H184.281V20.1785H191.188V29.6414Z" fill="#3C3C3B"/>
<path d="M196.19 29.6415H194.973V20.1786H197.758C198.248 20.1729 198.736 20.23 199.211 20.3485C199.611 20.4478 199.986 20.6298 200.312 20.8828C200.618 21.1269 200.859 21.4425 201.014 21.8018C201.187 22.2215 201.27 22.6726 201.258 23.1262C201.258 24.1087 200.94 24.8592 200.306 25.3778C199.672 25.8963 198.785 26.1556 197.645 26.1556H196.186L196.19 29.6415ZM196.19 25.0196H197.65C198.407 25.0196 198.98 24.8661 199.373 24.559C199.766 24.252 199.96 23.7853 199.96 23.1528C199.96 22.5203 199.755 22.0372 199.373 21.7486C198.99 21.46 198.407 21.3147 197.65 21.3147H196.19V25.0196Z" fill="#3C3C3B"/>
<path d="M208.247 29.7787C207.637 29.7875 207.032 29.6718 206.469 29.4389C205.952 29.2215 205.491 28.8914 205.118 28.4728C204.728 28.0269 204.435 27.5048 204.258 26.9396C204.052 26.2835 203.952 25.5988 203.962 24.9111C203.952 24.2203 204.057 23.5327 204.273 22.8765C204.458 22.314 204.754 21.7947 205.144 21.3495C205.516 20.9323 205.975 20.6024 206.489 20.3833C207.032 20.1523 207.616 20.0366 208.206 20.0435C208.844 20.0315 209.477 20.1535 210.064 20.4018C210.584 20.6292 211.046 20.9714 211.415 21.4027C211.794 21.8545 212.077 22.379 212.246 22.944C212.441 23.5812 212.537 24.2447 212.53 24.9111C212.543 25.6299 212.434 26.3455 212.207 27.0276C212.017 27.5903 211.713 28.108 211.315 28.5485C210.938 28.952 210.476 29.2661 209.962 29.4676C209.415 29.6791 208.833 29.7847 208.247 29.7787ZM208.368 28.6427C208.767 28.6609 209.165 28.5854 209.53 28.4223C209.895 28.2591 210.217 28.0129 210.47 27.7031C210.98 27.0768 211.234 26.1461 211.233 24.9111C211.245 24.3454 211.176 23.7809 211.028 23.2347C210.91 22.8098 210.705 22.414 210.427 22.072C210.171 21.7695 209.843 21.537 209.473 21.3966C209.069 21.2463 208.641 21.1727 208.21 21.1796C207.811 21.1771 207.416 21.255 207.048 21.4088C206.687 21.5632 206.368 21.7994 206.115 22.0987C205.836 22.4425 205.628 22.8374 205.501 23.2613C205.338 23.7958 205.261 24.3526 205.271 24.9111C205.261 25.4652 205.336 26.0175 205.494 26.5487C205.622 26.9771 205.836 27.3748 206.123 27.7175C206.389 28.0256 206.725 28.265 207.103 28.4155C207.507 28.5699 207.936 28.647 208.368 28.6427Z" fill="#3C3C3B"/>
<path d="M225.156 29.6414H223.928L223.346 22.2479L220.954 29.6414H219.683L217.305 22.2725L216.71 29.6414H215.5L216.319 20.1785H217.806L220.361 28.317L222.868 20.1785H224.353L225.156 29.6414Z" fill="#3C3C3B"/>
<path d="M234.914 29.3855C234.622 29.522 234.313 29.6197 233.995 29.6761C233.616 29.7465 233.231 29.7808 232.845 29.7785C232.171 29.7897 231.5 29.6773 230.866 29.4469C230.309 29.2416 229.804 28.9159 229.386 28.493C228.973 28.0664 228.655 27.5572 228.453 26.9988C228.229 26.3677 228.119 25.7015 228.13 25.0317C228.117 24.3069 228.227 23.5853 228.453 22.8967C228.647 22.3128 228.966 21.7779 229.386 21.3288C229.796 20.9025 230.297 20.5744 230.852 20.3688C231.464 20.1448 232.113 20.0345 232.765 20.0433C233.208 20.034 233.649 20.0732 234.083 20.16C234.371 20.2214 234.654 20.3048 234.928 20.4097L234.697 21.4762C234.404 21.3701 234.101 21.2933 233.793 21.2469C233.492 21.2023 233.189 21.1798 232.886 21.1794C231.76 21.1794 230.902 21.4946 230.311 22.1251C229.721 22.7555 229.426 23.6841 229.427 24.9109C229.418 25.4461 229.503 25.9788 229.677 26.485C229.827 26.923 230.069 27.3241 230.385 27.662C230.7 27.9866 231.084 28.2364 231.509 28.3927C231.99 28.5657 232.498 28.6503 233.009 28.6425C233.31 28.6424 233.611 28.6149 233.907 28.5606C234.186 28.514 234.457 28.4279 234.711 28.3047L234.914 29.3855Z" fill="#3C3C3B"/>
<path d="M238.305 29.6414V20.1785H243.601V21.3145H239.52V24.0738H241.489C241.896 24.0707 242.302 24.1161 242.699 24.2089C243.048 24.2872 243.377 24.4386 243.665 24.653C243.943 24.8691 244.163 25.1503 244.307 25.4718C244.477 25.8784 244.558 26.3167 244.545 26.7573C244.56 27.2289 244.455 27.6967 244.24 28.1164C244.046 28.4711 243.77 28.7743 243.435 29.0007C243.092 29.2305 242.71 29.3956 242.308 29.4879C241.889 29.586 241.461 29.6355 241.031 29.6352L238.305 29.6414ZM239.52 28.5074H241.02C241.759 28.5074 242.315 28.3586 242.69 28.0612C242.874 27.9149 243.02 27.7275 243.118 27.5141C243.215 27.3008 243.261 27.0674 243.251 26.833C243.258 26.566 243.207 26.3006 243.102 26.0552C243.013 25.8547 242.872 25.6821 242.692 25.5557C242.507 25.4286 242.298 25.3389 242.079 25.2917C241.83 25.2352 241.576 25.2077 241.321 25.2098H239.524L239.52 28.5074Z" fill="#3C3C3B"/>
<path d="M247.66 29.6414V20.1785H248.876V23.7442H249.741C250.297 23.7366 250.852 23.7887 251.397 23.8998C251.823 23.9838 252.228 24.1538 252.586 24.3992C252.902 24.625 253.151 24.931 253.309 25.2855C253.483 25.7047 253.566 26.1562 253.552 26.6099C253.568 27.097 253.468 27.5809 253.262 28.0223C253.076 28.396 252.799 28.7169 252.457 28.9557C252.086 29.2072 251.669 29.3838 251.229 29.4756C250.721 29.5873 250.201 29.6416 249.68 29.6373L247.66 29.6414ZM248.876 28.5074H249.674C250.594 28.5074 251.253 28.345 251.653 28.0202C251.856 27.849 252.016 27.6326 252.121 27.3885C252.225 27.1443 252.271 26.8791 252.255 26.614C252.255 25.9917 252.05 25.5482 251.641 25.2835C251.231 25.0188 250.587 24.8823 249.709 24.8741H248.89L248.876 28.5074ZM256.08 29.6414H254.864V20.1785H256.08V29.6414Z" fill="#3C3C3B"/>
<path d="M262.932 29.6414H261.704V21.3145H258.906V20.1785H265.719V21.3145H262.922L262.932 29.6414Z" fill="#3C3C3B"/>
<path d="M74.2365 7.18677H73.5898V59.4672H74.2365V7.18677Z" fill="#3C3C3B"/>
<path d="M84.8023 47.3699H83.8281V39.7963H86.0589C86.4512 39.7914 86.8425 39.8368 87.2233 39.9313C87.5438 40.0112 87.8442 40.1569 88.1054 40.3592C88.351 40.5545 88.5443 40.8077 88.6682 41.096C88.8051 41.4324 88.8713 41.7933 88.8626 42.1563C88.8626 42.9451 88.6081 43.5462 88.0992 43.9597C87.5903 44.3732 86.8816 44.5779 85.9729 44.5738H84.8023V47.3699ZM84.8023 43.667H85.9729C86.5787 43.667 87.0385 43.5442 87.3523 43.2985C87.514 43.1614 87.641 42.9879 87.7229 42.7922C87.8047 42.5965 87.839 42.3842 87.823 42.1727C87.823 41.6528 87.6661 41.2775 87.3523 41.0469C87.0385 40.8163 86.5787 40.7003 85.9729 40.6989H84.8023V43.667Z" fill="#11559B"/>
<path d="M94.3432 47.4885C93.8522 47.4969 93.3648 47.405 92.9106 47.2183C92.4969 47.0429 92.1271 46.7779 91.828 46.4425C91.5167 46.0852 91.2832 45.6669 91.1424 45.2144C90.9764 44.6888 90.8956 44.1402 90.903 43.5891C90.8942 43.0331 90.9786 42.4796 91.1526 41.9516C91.3012 41.4998 91.5384 41.0822 91.8505 40.7234C92.1485 40.3894 92.5159 40.1246 92.927 39.9476C93.3621 39.7644 93.8302 39.6725 94.3023 39.6774C94.8135 39.6676 95.321 39.7652 95.7921 39.964C96.2086 40.1469 96.5786 40.4211 96.8747 40.7664C97.1765 41.1271 97.4027 41.5447 97.5399 41.9946C97.6956 42.5045 97.7722 43.0354 97.767 43.5686C97.778 44.1443 97.69 44.7176 97.5071 45.2635C97.356 45.7176 97.1129 46.1357 96.7929 46.4916C96.4912 46.8141 96.1213 47.0651 95.7103 47.2265C95.2752 47.3993 94.8113 47.4882 94.3432 47.4885ZM94.4414 46.5776C94.761 46.5926 95.0797 46.5325 95.3718 46.402C95.664 46.2716 95.9215 46.0744 96.1237 45.8264C96.533 45.3242 96.7376 44.5784 96.7376 43.5891C96.7464 43.1364 96.6899 42.6849 96.5698 42.2484C96.4761 41.9078 96.3123 41.5906 96.0889 41.317C95.8836 41.0754 95.6212 40.8889 95.3255 40.7746C95.0012 40.6559 94.6578 40.5976 94.3125 40.6026C93.993 40.6005 93.6764 40.6625 93.3813 40.7848C93.0926 40.9082 92.8368 41.0975 92.6343 41.3375C92.4097 41.6127 92.2408 41.9291 92.137 42.2688C92.0068 42.6966 91.9447 43.1421 91.9528 43.5891C91.9452 44.033 92.0052 44.4754 92.1309 44.9012C92.2322 45.2445 92.4036 45.563 92.6343 45.8366C92.8474 46.0836 93.117 46.2753 93.4202 46.3954C93.7484 46.5182 94.0972 46.5766 94.4476 46.5674L94.4414 46.5776Z" fill="#11559B"/>
<path d="M105.489 47.163C105.255 47.2735 105.007 47.352 104.752 47.3964C104.449 47.4533 104.142 47.4807 103.833 47.4783C103.293 47.4874 102.755 47.3972 102.247 47.2122C101.8 47.0492 101.395 46.7883 101.062 46.4487C100.731 46.1079 100.476 45.7004 100.315 45.2532C100.135 44.7477 100.047 44.2138 100.055 43.6771C100.046 43.0962 100.133 42.5177 100.315 41.9659C100.47 41.4982 100.725 41.07 101.062 40.7111C101.391 40.3689 101.792 40.1058 102.237 39.9415C102.727 39.7632 103.246 39.6752 103.768 39.6815C104.122 39.674 104.476 39.7049 104.824 39.7736C105.054 39.8246 105.28 39.893 105.499 39.9783L105.315 40.8339C105.08 40.7486 104.838 40.6869 104.591 40.6497C104.351 40.614 104.109 40.5962 103.866 40.5965C102.964 40.5965 102.277 40.8489 101.803 41.3539C101.33 41.8588 101.094 42.6004 101.097 43.5789C101.092 44.0085 101.161 44.4357 101.302 44.8418C101.423 45.192 101.617 45.5128 101.871 45.7834C102.123 46.0433 102.43 46.2434 102.769 46.3688C103.154 46.5089 103.561 46.5782 103.97 46.5735C104.212 46.5737 104.453 46.5524 104.691 46.5101C104.914 46.4731 105.132 46.4042 105.335 46.3054L105.489 47.163Z" fill="#11559B"/>
<path d="M112.3 45.3454H109.065L108.328 47.3698H107.344L110.233 39.7961H111.208L114.044 47.3698H113.021L112.3 45.3454ZM109.378 44.457H111.987L110.718 40.8953H110.675L109.378 44.457Z" fill="#11559B"/>
<path d="M118.013 47.3698H117.039V40.6989H114.809V39.79H120.265V40.6989H118.013V47.3698Z" fill="#11559B"/>
<path d="M125.312 47.4885C124.821 47.4973 124.334 47.4053 123.88 47.2183C123.465 47.0434 123.096 46.7783 122.797 46.4425C122.486 46.0848 122.252 45.6667 122.109 45.2144C121.945 44.6885 121.865 44.14 121.872 43.5891C121.862 43.0331 121.946 42.4794 122.122 41.9516C122.269 41.4994 122.507 41.0817 122.819 40.7234C123.117 40.3888 123.484 40.1239 123.896 39.9476C124.331 39.7644 124.799 39.6725 125.271 39.6774C125.782 39.6675 126.289 39.7652 126.759 39.964C127.176 40.1463 127.546 40.4207 127.842 40.7664C128.144 41.1269 128.371 41.5446 128.509 41.9946C128.665 42.5045 128.741 43.0354 128.736 43.5686C128.746 44.1442 128.658 44.7173 128.476 45.2635C128.325 45.7177 128.082 46.1358 127.762 46.4916C127.46 46.8137 127.09 47.0647 126.679 47.2265C126.244 47.3993 125.78 47.4882 125.312 47.4885ZM125.408 46.5776C125.728 46.593 126.047 46.533 126.34 46.4025C126.632 46.272 126.89 46.0747 127.093 45.8264C127.502 45.3242 127.707 44.5785 127.707 43.5891C127.714 43.1365 127.658 42.6851 127.539 42.2484C127.445 41.9073 127.281 41.5899 127.056 41.317C126.851 41.0745 126.589 40.8879 126.292 40.7746C125.969 40.6557 125.626 40.5974 125.281 40.6027C124.962 40.6005 124.645 40.6625 124.35 40.7848C124.061 40.9077 123.805 41.097 123.603 41.3375C123.379 41.6127 123.21 41.9291 123.106 42.2688C122.976 42.6966 122.914 43.1421 122.922 43.5891C122.914 44.033 122.974 44.4754 123.1 44.9012C123.201 45.2445 123.373 45.563 123.603 45.8366C123.816 46.0836 124.086 46.2753 124.389 46.3954C124.715 46.5175 125.061 46.5759 125.408 46.5674V46.5776Z" fill="#11559B"/>
<path d="M138.753 47.3698H137.771L137.306 41.446L135.391 47.3698H134.367L132.462 41.4685L132 47.3698H131.023L131.674 39.7962H132.865L134.912 46.3156L136.911 39.79H138.102L138.753 47.3698Z" fill="#11559B"/>
<path d="M37.8923 37.7246C37.0231 38.6849 35.8888 39.3659 34.6327 39.6815C33.3766 39.9971 32.0552 39.9331 30.8354 39.4976C29.6157 39.0621 28.5525 38.2746 27.7802 37.2348C27.0078 36.195 26.5611 34.9495 26.4965 33.6557C26.4318 32.362 26.7521 31.0781 27.4169 29.9665C28.0817 28.8548 29.0611 27.9652 30.2313 27.4102C31.4015 26.8552 32.71 26.6597 33.9913 26.8485C35.2726 27.0372 36.4692 27.6016 37.4297 28.4705C38.0712 29.0455 38.5923 29.742 38.9631 30.5196C39.3338 31.2972 39.5469 32.1406 39.5899 33.0011C39.6329 33.8616 39.505 34.722 39.2136 35.5328C38.9222 36.3435 38.4731 37.0885 37.8923 37.7246Z" fill="url(#paint0_radial)"/>
<path d="M34.7499 10.9162C35.2822 11.4359 35.7877 11.9825 36.2643 12.5538C37.8389 14.4411 39.1352 16.5441 40.1139 18.7989C41.6648 19.0906 43.2446 19.1999 44.8209 19.1244L45.1013 19.1121C45.1872 19.1121 45.267 19.0937 45.355 19.0875C48.5926 18.7948 52.8024 17.5564 56.6314 13.7144C56.7644 13.5834 56.8954 13.4421 57.0264 13.305C56.4329 12.5968 55.821 11.8967 55.1559 11.2294C49.8382 5.9206 42.7884 2.70257 35.2944 2.16327C27.8004 1.62396 20.3626 3.79938 14.3398 8.29207C23.9463 3.63328 30.6139 6.84695 34.7499 10.9162Z" fill="url(#paint1_linear)"/>
<path d="M12.6033 42.6927C12.7937 41.9497 13.0126 41.2373 13.2664 40.5618C14.1115 38.2526 15.2831 36.0764 16.7455 34.0997C16.2231 32.6115 15.5273 31.19 14.6724 29.8646C14.6212 29.7848 14.5782 29.707 14.523 29.6272C14.4677 29.5474 14.4227 29.49 14.3736 29.4225C12.5051 26.7615 9.33093 23.7484 4.07953 22.3483C3.89739 22.2992 3.71115 22.2562 3.52492 22.2112C3.20771 23.0811 2.91096 23.9613 2.66128 24.8722C0.726343 32.1331 1.46739 39.848 4.74909 46.6077C8.03079 53.3674 13.6341 58.7208 20.5357 61.6902C11.6947 55.6886 11.1482 48.3074 12.6033 42.6927Z" fill="url(#paint2_linear)"/>
<path d="M51.2638 46.0228C50.523 46.2275 49.7944 46.3892 49.0884 46.5141C46.6651 46.9377 44.1937 47.0114 41.7495 46.7331C40.7225 47.9301 39.8385 49.2429 39.1156 50.6448C39.0747 50.7307 39.0297 50.8065 38.9867 50.8924C38.9437 50.9784 38.9191 51.048 38.8823 51.1258C37.5173 54.0734 36.492 58.3309 37.9041 63.5813C37.9511 63.7614 38.0105 63.9457 38.0637 64.1278C38.9744 63.9682 39.8872 63.786 40.7958 63.5445C48.0509 61.5915 54.3612 57.0926 58.5735 50.8699C62.7858 44.6473 64.6187 37.1164 63.7374 29.6536C62.97 40.3119 56.857 44.4753 51.2638 46.0228Z" fill="url(#paint3_linear)"/>
<path d="M14.3389 8.29203C14.3389 8.29203 7.55055 12.5435 4.00391 21.0832C4.93303 21.245 14.4023 23.1547 17.9203 33.678C18.784 33.1273 21.4322 31.0354 23.2106 25.2713C25.3615 18.3015 29.4464 13.1596 34.7408 10.9223C34.749 10.9162 28.0384 1.35296 14.3389 8.29203Z" fill="url(#paint4_linear)"/>
<path d="M35.8408 58.4662C35.8408 54.9332 36.819 50.258 40.7525 45.8531L40.7975 45.7855C40.1569 45.0998 37.9139 43.4152 32.1489 44.7293C25.0413 46.3505 17.1969 46.1621 12.6106 42.6824C12.6106 42.6824 7.68463 53.2752 20.543 61.6758C20.543 61.6758 27.6097 65.4237 36.7617 64.2365C36.14 62.3767 35.8288 60.4272 35.8408 58.4662Z" fill="url(#paint5_linear)"/>
<path d="M57.8427 14.3162C56.8317 15.5443 52.0244 20.5797 44.004 20.5859C42.6232 20.5828 41.2462 20.4388 39.8946 20.156L39.825 20.1397C39.561 21.1099 39.342 23.8589 43.2571 28.0817C48.2138 33.4283 51.9814 40.3244 51.2631 46.023C51.2631 46.023 62.8976 44.9995 63.7469 29.6476C63.7408 29.6538 63.4543 21.6523 57.8427 14.3162Z" fill="url(#paint6_linear)"/>
<defs>
<radialGradient id="paint0_radial" cx="0" cy="0" r="1" gradientUnits="userSpaceOnUse" gradientTransform="translate(32.1986 28.32) scale(8.83672 8.83841)">
<stop stop-color="#4A96D2"/>
<stop offset="1" stop-color="#1F2466"/>
</radialGradient>
<linearGradient id="paint1_linear" x1="26664.2" y1="29157.2" x2="31260.1" y2="29011.6" gradientUnits="userSpaceOnUse">
<stop stop-color="#4A96D2"/>
<stop offset="1" stop-color="#1F2466"/>
</linearGradient>
<linearGradient id="paint2_linear" x1="27809.3" y1="-13207" x2="27985.4" y2="-16121.6" gradientUnits="userSpaceOnUse">
<stop stop-color="#4A96D2"/>
<stop offset="1" stop-color="#1F2466"/>
</linearGradient>
<linearGradient id="paint3_linear" x1="-15372.4" y1="-10214.6" x2="-18712.6" y2="-8023.14" gradientUnits="userSpaceOnUse">
<stop stop-color="#4A96D2"/>
<stop offset="1" stop-color="#1F2466"/>
</linearGradient>
<linearGradient id="paint4_linear" x1="1968.7" y1="3445.22" x2="3583.46" y2="716.584" gradientUnits="userSpaceOnUse">
<stop stop-color="#4A96D2"/>
<stop offset="1" stop-color="#1F2466"/>
</linearGradient>
<linearGradient id="paint5_linear" x1="5198.62" y1="5606.51" x2="2070.27" y2="6032.59" gradientUnits="userSpaceOnUse">
<stop stop-color="#4A96D2"/>
<stop offset="1" stop-color="#1F2466"/>
</linearGradient>
<linearGradient id="paint6_linear" x1="6001.13" y1="3143.46" x2="6899.54" y2="6582.2" gradientUnits="userSpaceOnUse">
<stop stop-color="#4A96D2"/>
<stop offset="1" stop-color="#1F2466"/>
</linearGradient>
</defs>
</svg>
