<svg width="224" height="64" viewBox="0 0 224 64" fill="none" xmlns="http://www.w3.org/2000/svg">
<path fill-rule="evenodd" clip-rule="evenodd" d="M11 43C11 45.2097 9.20909 47 7 47C4.79091 47 3 45.2097 3 43C3 40.7908 4.79091 39 7 39C9.20909 39 11 40.7908 11 43Z" fill="#337CFF"/>
<path fill-rule="evenodd" clip-rule="evenodd" d="M16.796 36C19.1178 36 21 34.2087 21 32C21 29.7908 19.1178 28 16.796 28H7.20454C4.88224 28 3 29.7908 3 32C3 34.2087 4.88224 36 7.20454 36" fill="#337CFF"/>
<path fill-rule="evenodd" clip-rule="evenodd" d="M61.5968 22.9819L63.407 19.5974C63.407 19.5974 61.8233 18 58.919 18C55.2987 18 52.1679 20.4722 52.1679 24.3129V25.7961H49V29.7884H52.1679V44.8103H56.9196V29.7884H62.3506V25.7961H56.9196V24.6174C56.9196 23.3244 58.0514 22.2593 59.4092 22.2593C60.5405 22.2593 61.5968 22.9819 61.5968 22.9819ZM73.2883 45C78.3808 45 82.982 41.311 82.982 35.2651C82.982 29.2942 78.5312 25.6058 73.4398 25.6058C68.3857 25.6058 63.709 29.2567 63.709 35.3407C63.709 41.311 68.1592 45 73.2883 45ZM73.4398 40.589C70.5727 40.589 68.6499 38.2696 68.6499 35.3032C68.6499 32.3368 70.5727 30.0168 73.4398 30.0168C76.3058 30.0168 78.041 32.3368 78.041 35.3032C78.041 38.2696 76.3058 40.589 73.4398 40.589ZM97.4639 25.6058C94.3714 25.6058 92.523 27.0509 91.6931 27.8871H91.0903L90.4108 25.7961H86.5646V44.8103H91.5804V35.189C91.5804 31.6903 94.3337 30.3213 96.9737 30.3213C97.6154 30.3213 98.256 30.3968 98.6329 30.4735V25.6058H97.4639ZM109.533 25.6058C104.555 25.6058 100.142 29.2567 100.142 35.1504C100.142 41.0832 104.592 45 109.684 45C113.38 45 116.812 42.909 118.245 39.1058H113.493C113.493 39.1058 112.399 40.7032 109.835 40.7032C107.798 40.7032 105.46 39.6381 104.894 36.7483H118.66C119.263 28.9909 114.361 25.6058 109.533 25.6058ZM109.684 29.7509C111.569 29.7509 113.116 30.6638 113.682 32.9065H105.196C105.95 30.9297 107.61 29.7509 109.684 29.7509ZM136.914 39.3722C136.914 35.4554 133.406 34.4664 130.54 33.7052C128.692 33.211 126.92 32.6032 126.92 30.8535C126.92 29.2942 128.277 28.3058 130.012 28.3058C132.011 28.3058 133.482 29.5987 133.482 31.0058H136.537C136.537 28.3813 134.236 25.6058 130.012 25.6058C126.543 25.6058 123.789 27.5071 123.789 30.8922C123.789 34.6942 127.297 35.7213 129.861 36.4058C131.935 36.9761 133.783 37.5851 133.783 39.5244C133.783 41.3877 132.124 42.2619 130.352 42.2619C128.277 42.2619 126.278 41.0452 126.278 38.6877H123.224C123.224 42.1478 126.053 45 130.389 45C134.086 45 136.914 42.909 136.914 39.3722ZM149.963 41.4632C149.625 41.7297 149.209 41.9961 148.455 41.9961C147.173 41.9961 146.041 41.1974 146.041 38.7638V28.5722H150.567V25.7961H146.004V20.0922H143.213V23.5142C143.213 25.0735 142.156 26.1386 140.685 26.1386H139.516V28.6097H142.798V39.0677C142.798 42.5284 144.797 45 148.077 45C149.813 45 150.831 44.2774 151.397 43.7832L149.963 41.4632ZM163.541 25.6058C160.675 25.6058 159.129 27.089 158.412 27.9258H157.883L157.242 25.7961H155.055V44.8103H158.374V33.5916C158.374 30.0935 160.751 28.7239 163.164 28.7239C163.654 28.7239 164.333 28.8 164.71 28.8761V25.6058H163.541ZM175.911 25.6058C171.198 25.6058 166.973 29.2567 166.973 35.1504C166.973 41.0832 171.198 45 175.949 45C179.382 45 182.625 42.9465 184.058 39.4858H180.589C179.683 40.969 178.1 41.9194 175.949 41.9194C172.706 41.9194 170.518 39.7147 170.217 36.1774H184.473C184.85 28.9909 180.438 25.6058 175.911 25.6058ZM175.874 28.42C178.702 28.42 180.589 30.4735 181.041 33.4019H170.367C170.97 30.3593 173.083 28.42 175.874 28.42ZM197.183 25.6058C192.468 25.6058 188.243 29.2567 188.243 35.1504C188.243 41.0832 192.468 45 197.221 45C200.653 45 203.896 42.9465 205.329 39.4858H201.859C200.954 40.969 199.37 41.9194 197.221 41.9194C193.977 41.9194 191.789 39.7147 191.487 36.1774H205.745C206.121 28.9909 201.709 25.6058 197.183 25.6058ZM197.145 28.42C199.974 28.42 201.859 30.4735 202.312 33.4019H191.638C192.242 30.3593 194.354 28.42 197.145 28.42ZM218.567 41.4632C218.228 41.7297 217.813 41.9961 217.058 41.9961C215.776 41.9961 214.645 41.1974 214.645 38.7638V28.5722H219.17V25.7961H214.607V20.0922H211.816V23.5142C211.816 25.0735 210.76 26.1386 209.289 26.1386H208.12V28.6097H211.401V39.0677C211.401 42.5284 213.4 45 216.681 45C218.416 45 219.434 44.2774 220 43.7832L218.567 41.4632Z" fill="#06074E"/>
<path fill-rule="evenodd" clip-rule="evenodd" d="M26.6403 23C29.048 23 31 21.2087 31 19C31 16.7908 29.048 15 26.6403 15H7.36026C4.95195 15 3 16.7908 3 19C3 21.2087 4.95195 23 7.36026 23" fill="#337CFF"/>
<path fill-rule="evenodd" clip-rule="evenodd" d="M32 18.4986C32 16.0781 30.1676 14.1098 27.8725 14.0094V14H7.1337V14.0102C4.83547 14.1071 3 16.0769 3 18.4986C3 20.9211 4.83547 22.891 7.1337 22.9878V23H27.8725V22.987C30.1676 22.8866 32 20.9184 32 18.4986Z" fill="#337CFF"/>
<path fill-rule="evenodd" clip-rule="evenodd" d="M7 47C4.79107 47 3 45.209 3 43C3 40.791 4.79107 39 7 39C9.20928 39 11 40.791 11 43C11 45.209 9.20928 47 7 47Z" fill="#337CFF"/>
<path fill-rule="evenodd" clip-rule="evenodd" d="M17.5622 36C20.0129 36 22 33.985 22 31.4998C22 29.015 20.0129 27 17.5622 27H7.4378C4.9871 27 3 29.015 3 31.4998C3 33.985 4.9871 36 7.4378 36H17.5622Z" fill="#337CFF"/>
</svg>
