<svg width="192" height="54" viewBox="0 0 192 54" fill="none" xmlns="http://www.w3.org/2000/svg">
<path fill-rule="evenodd" clip-rule="evenodd" d="M185.395 40.6726C179.5 40.8597 175.547 37.0706 175.405 31.8768V31.8307V26.5909H161.318V38.6605C161.318 39.7841 160.371 40.6726 159.14 40.6726H156.868V26.5909L152.133 26.5674L152.109 24.4387C152.109 23.2926 153.103 22.3091 154.382 22.3091H156.868V21.2335V21.2099C157.009 15.9936 160.964 12.2045 166.834 12.3916H173.463V14.4037C173.463 15.5254 172.54 16.4384 170.788 16.4384L168.681 16.4148C163.946 16.4384 161.46 17.0467 161.318 21.9584V22.3091H175.405V12.3916H177.678C178.909 12.3916 179.879 13.3036 179.879 14.4263V22.3091H185.254V24.4613C185.254 25.6084 184.282 26.5909 182.98 26.5909H179.879V31.1284C179.997 36.0176 182.483 36.6494 187.218 36.6494L189.325 36.6259C191.078 36.6259 191.976 37.5614 192 38.6605V40.6726H185.395ZM141.147 40.6726H135.821C130.399 40.6726 125.925 37.0236 125.925 32.5557V30.7542C125.925 26.2863 129.192 22.6373 135.323 22.6373H141.289C146.924 22.6373 150.901 26.6134 150.901 30.7542V32.5557C150.901 37.0236 146.9 40.8832 141.147 40.6726ZM144.888 27.8771C143.988 27.1758 142.45 26.684 141.289 26.684H135.323C134.234 26.684 132.719 27.1287 131.844 27.7606C129.453 29.5375 129.477 33.7958 131.867 35.5493C132.767 36.1811 134.21 36.6964 135.323 36.6964H141.289C142.568 36.6964 144.225 36.2752 145.149 35.4563C147.185 33.6548 147.089 29.561 144.888 27.8771ZM114.964 40.6726C108.832 40.6726 102.937 40.6726 96.853 40.6726L96.8293 38.8251C96.8293 37.679 97.7999 36.6964 99.054 36.6964L114.726 36.6729C116.005 36.6729 117.236 36.1811 118.16 35.3622C120.219 33.5382 120.1 29.5846 117.923 27.8771C116.999 27.1522 115.863 26.778 114.656 26.778H105.541C100.807 26.778 96.5923 24.2281 96.5923 19.5496V19.0118C96.5923 14.2627 100.758 12.3916 105.399 12.3916C109.234 12.3916 115.532 12.3916 119.367 12.3916L119.343 14.3802C119.343 15.5254 118.349 16.4854 117.094 16.4854C113.259 16.4854 109.401 16.4854 105.564 16.4854C99.6937 16.4854 99.7885 22.5432 105.636 22.5432H114.964C119.888 22.5432 123.936 26.2637 123.936 30.8012V32.6262C123.936 37.1401 119.888 40.6726 114.964 40.6726ZM93.656 16.5079H84.3288V38.731C84.3288 39.8302 83.3108 40.6726 82.1033 40.6726H79.9018L79.8783 16.5079C76.0432 16.5079 72.2551 16.5079 68.4669 16.5079V14.4498C68.4669 13.3272 69.4142 12.3916 70.6681 12.3916H95.8823L95.8587 14.4498C95.8587 15.5499 94.888 16.4854 93.656 16.5079ZM68.7746 36.7659H68.7981L68.7746 36.7895C69.3192 37.4909 69.2957 38.4734 68.6795 39.1758L67.3071 40.7902L48.059 26.3803L47.8699 26.1932C46.4495 25.1636 46.7336 22.8244 49.1719 22.5667H58.3575C63.9451 22.5667 63.9687 16.5549 58.7366 16.5784H44.556L44.5315 38.5675C44.5315 39.7136 43.5372 40.5325 42.3304 40.6726H40.0577V12.3916L58.7131 12.4142C63.9216 12.3916 67.2592 15.0346 67.2592 19.4095V19.5496C67.2592 24.1341 63.1634 26.731 58.429 26.731H55.2806C59.6359 29.9352 63.9687 33.2345 68.3719 36.3692C68.514 36.4858 68.656 36.6259 68.7746 36.7659ZM23.1537 40.6726H0V37.2812H22.9647C23.3428 37.2812 23.6984 37.2342 24.053 37.1401C23.2723 37.0941 22.5386 36.907 21.8754 36.6024C20.739 36.0881 19.7918 35.2456 19.2236 34.2171C18.821 33.4676 18.6084 32.6487 18.6084 31.7838C18.6084 31.293 18.679 30.8012 18.821 30.3575C18.821 30.7317 18.9875 31.0814 19.2236 31.339C19.5312 31.6672 20.0053 31.8768 20.502 31.8768C21.0466 31.8768 21.5443 31.6436 21.8754 31.2694C22.0889 30.9883 22.2065 30.6612 22.2065 30.3104C22.2065 29.9588 22.0889 29.608 21.8754 29.3514C21.5443 28.9762 21.0702 28.743 20.5264 28.743C20.0053 28.743 19.5312 28.9537 19.2236 29.2809C19.1051 29.3975 19.011 29.5375 18.9395 29.7021H0V22.8714L16.3358 26.3803C17.0695 26.3803 23.5094 26.3568 24.3371 26.3803C25.4499 26.3803 26.5392 26.731 27.415 27.2218L23.8169 12.4142H31.2031V33.4912C31.2031 37.5849 27.5805 40.6726 23.1537 40.6726ZM18.1353 12.4142H21.8284L25.5684 25.5143L18.1353 12.4142ZM11.6719 12.4142H16.0036L24.006 25.3978L11.6719 12.4142ZM4.82941 13.0225H4.85293C5.8237 12.6258 6.91301 12.4142 8.04935 12.4142H8.94957H9.02016H9.04361L22.325 25.4438C22.325 25.4438 6.46338 14.0991 4.82941 13.0225ZM0.900251 16.4384C0.923757 16.4148 0.947271 16.3913 0.947271 16.3678C1.46842 15.4793 2.20213 14.6839 3.03087 14.0521C5.39758 15.5724 20.3129 25.3978 20.3129 25.3978L0.900251 16.4384ZM0 21.0464V19.8532C0 19.2449 0.0950212 18.6376 0.237063 18.0753L18.3949 25.6084L0 21.0464Z" fill="#325598"/>
</svg>
