<svg width="264" height="57" viewBox="0 0 264 57" fill="none" xmlns="http://www.w3.org/2000/svg">
<g clip-path="url(#clip0)">
<path fill-rule="evenodd" clip-rule="evenodd" d="M27.2187 26.698V32.0832V44.7904V48.2355L15.2167 36.1753H0L19.931 56.2044H39.0063V44.7904H46.2932L66.2242 24.7596H51.0083L39.0063 36.8206L27.2187 24.3289V26.698Z" fill="#2B8467"/>
<path fill-rule="evenodd" clip-rule="evenodd" d="M27.2187 0.683594V12.0864H19.931L0 32.0928H15.2167L27.2187 20.0454V20.2605L39.0063 32.7382V32.0928V26.7145V20.6916V15.3125V12.0864V8.64346L51.0083 20.6916H66.2242L46.2932 0.683594H27.2187Z" fill="#54B18C"/>
<path fill-rule="evenodd" clip-rule="evenodd" d="M82.1468 21.6352V21.1479L80.5694 21.2476C79.6662 21.3 79.1979 21.6352 79.1979 22.2172C79.1979 22.775 79.6842 23.1687 80.4468 23.1687C81.4254 23.1687 82.1468 22.5051 82.1468 21.6352ZM78.1602 22.2169C78.1602 21.1648 78.963 20.5425 80.452 20.454L82.1469 20.3543V19.8488C82.1469 19.0967 81.6546 18.685 80.7694 18.685C80.0712 18.685 79.5497 19.0434 79.4322 19.6133H78.4586C78.4878 18.5732 79.4905 17.7859 80.7866 17.7859C82.2353 17.7859 83.1668 18.5561 83.1668 19.7603V23.9558H82.2001V22.9046H82.1761C81.8304 23.5802 81.0679 24.0444 80.2179 24.0444C78.981 24.0444 78.1602 23.2983 78.1602 22.2169Z" fill="black"/>
<path fill-rule="evenodd" clip-rule="evenodd" d="M102.255 19.7253C102.091 19.1374 101.569 18.6852 100.719 18.6852C99.6691 18.6852 98.9597 19.5611 98.9597 20.9003C98.9597 22.2756 99.6811 23.1154 100.731 23.1154C101.528 23.1154 102.073 22.7518 102.267 22.0874H103.275C103.076 23.2332 102.085 24.0145 100.725 24.0145C99.0421 24.0145 97.9219 22.8223 97.9219 20.9003C97.9219 19.0205 99.0361 17.7861 100.713 17.7861C102.173 17.7861 103.094 18.6852 103.264 19.7253H102.255Z" fill="black"/>
<path fill-rule="evenodd" clip-rule="evenodd" d="M122.349 19.7256C122.185 19.1376 121.663 18.6855 120.813 18.6855C119.763 18.6855 119.053 19.5614 119.053 20.9006C119.053 22.2759 119.775 23.1157 120.825 23.1157C121.622 23.1157 122.167 22.7521 122.361 22.0876H123.369C123.17 23.2334 122.179 24.0148 120.819 24.0148C119.136 24.0148 118.016 22.8226 118.016 20.9006C118.016 19.0207 119.13 17.7864 120.807 17.7864C122.267 17.7864 123.188 18.6855 123.358 19.7256H122.349Z" fill="black"/>
<path fill-rule="evenodd" clip-rule="evenodd" d="M142.495 20.8999C142.495 19.5074 141.833 18.6848 140.713 18.6848C139.587 18.6848 138.924 19.5134 138.924 20.8999C138.924 22.2924 139.593 23.115 140.713 23.115C141.833 23.115 142.495 22.2924 142.495 20.8999ZM137.887 20.9001C137.887 18.9962 138.989 17.7859 140.713 17.7859C142.431 17.7859 143.533 18.9962 143.533 20.9001C143.533 22.798 142.431 24.0143 140.713 24.0143C138.989 24.0143 137.887 22.798 137.887 20.9001Z" fill="black"/>
<path fill-rule="evenodd" clip-rule="evenodd" d="M162.691 25.5674V23.9515H157.754V17.8408H158.763V23.1117H161.659V17.8408H162.668V23.1117H163.641V25.5674H162.691Z" fill="black"/>
<path fill-rule="evenodd" clip-rule="evenodd" d="M178.172 23.9622V17.8516H179.181V22.3995H179.227L182.276 17.8516H183.285V23.9622H182.276V19.4143H182.229L179.181 23.9622H178.172Z" fill="black"/>
<path fill-rule="evenodd" clip-rule="evenodd" d="M202.248 21.6355V21.1481L200.671 21.2478C199.768 21.3002 199.299 21.6355 199.299 22.2174C199.299 22.7753 199.786 23.1689 200.548 23.1689C201.527 23.1689 202.248 22.5054 202.248 21.6355ZM198.262 22.2172C198.262 21.1651 199.065 20.5428 200.554 20.4542L202.249 20.3545V19.8491C202.249 19.097 201.756 18.6852 200.871 18.6852C200.173 18.6852 199.651 19.0437 199.534 19.6136H198.56C198.589 18.5735 199.592 17.7861 200.888 17.7861C202.337 17.7861 203.268 18.5563 203.268 19.7606V23.9561H202.302V22.9048H202.278C201.932 23.5805 201.169 24.0446 200.319 24.0446C199.083 24.0446 198.262 23.2985 198.262 22.2172Z" fill="black"/>
<path fill-rule="evenodd" clip-rule="evenodd" d="M222.734 25.5674V23.9515H217.797V17.8408H218.806V23.1117H221.702V17.8408H222.711V23.1117H223.684V25.5674H222.734Z" fill="black"/>
<path fill-rule="evenodd" clip-rule="evenodd" d="M238.219 23.9622V17.8516H239.227V22.3995H239.274L242.323 17.8516H243.332V23.9622H242.323V19.4143H242.276L239.227 23.9622H238.219Z" fill="black"/>
<path fill-rule="evenodd" clip-rule="evenodd" d="M262.107 20.9377V18.6813H260.94C260.148 18.6813 259.644 19.1163 259.644 19.8503C259.644 20.4855 260.154 20.9377 260.94 20.9377H262.107ZM262.106 21.7785H261.027L259.479 23.9523H258.312L260.013 21.5902C259.151 21.3435 258.629 20.7083 258.629 19.8685C258.629 18.611 259.532 17.8408 260.934 17.8408H263.115V23.9523H262.106V21.7785Z" fill="black"/>
<path fill-rule="evenodd" clip-rule="evenodd" d="M87.1451 55.7671V49.0066H82.3564V55.7671H78.8242V40.0491H82.3564V46.5972H87.1451V40.0491H90.6781V55.7671H87.1451Z" fill="black"/>
<path fill-rule="evenodd" clip-rule="evenodd" d="M102.668 55.7671V42.4808H97.9432V55.7671H94.4102V40.0491H106.201V55.7671H102.668Z" fill="black"/>
<path fill-rule="evenodd" clip-rule="evenodd" d="M122.222 56.0164C118.03 56.0164 115.051 53.393 115.051 48.2967V47.6563C115.051 42.9218 118.094 39.8291 122.18 39.8291C123.903 39.8291 125.096 40.0431 125.755 40.3835V42.9433C125.159 42.6442 124.116 42.3244 122.755 42.3244C120.179 42.3244 118.69 44.3934 118.69 47.8695V48.0835C118.69 51.8579 120.116 53.5847 122.436 53.5847C124.01 53.5847 125.117 53.2013 125.755 52.9022V55.3339C125.287 55.6322 123.883 56.0164 122.222 56.0164Z" fill="black"/>
<path fill-rule="evenodd" clip-rule="evenodd" d="M137.194 47.7622C137.194 43.9019 136.683 42.2171 134.3 42.2171C132.214 42.2171 131.448 43.3904 131.448 47.7622V48.1464C131.448 52.4115 131.938 53.7336 134.3 53.7336C136.258 53.7336 137.194 52.2198 137.194 48.1894V47.7622ZM134.299 56.0155C130.533 56.0155 127.895 53.3706 127.895 48.4445V47.5488C127.895 43.0061 130.129 39.8291 134.406 39.8291C138.62 39.8291 140.748 43.1126 140.748 47.5488V48.4024C140.748 53.3706 138.151 56.0155 134.299 56.0155Z" fill="black"/>
<path fill-rule="evenodd" clip-rule="evenodd" d="M148.02 47.8754H146.828V53.5055H148.212C150.212 53.5055 150.978 52.4818 150.978 50.6054C150.978 48.9206 150.127 47.8754 148.02 47.8754ZM148.041 42.3087H146.828V45.7857H148.062C149.488 45.7857 150.041 45.1668 150.041 44.0794C150.041 42.8631 149.382 42.3087 148.041 42.3087ZM148.871 55.7659H143.594V40.0488H148.978C152.191 40.0488 153.362 41.2428 153.362 43.2258C153.362 44.975 152.553 46.0202 150.85 46.3185C152.935 46.6168 154.468 48.1743 154.468 50.7762C154.468 53.9746 152.362 55.7659 148.871 55.7659Z" fill="black"/>
<path fill-rule="evenodd" clip-rule="evenodd" d="M157.531 55.7671V40.0491H167.065V42.3957H161.063V46.6179H165.724V48.9851H161.063V53.4213H167.49V55.7671H157.531Z" fill="black"/>
<path fill-rule="evenodd" clip-rule="evenodd" d="M175.82 42.3948V55.7662H172.287V42.3948H168.84V40.0491H179.267V42.3948H175.82Z" fill="black"/>
<path fill-rule="evenodd" clip-rule="evenodd" d="M194.268 44.0794C194.268 42.8631 193.608 42.3302 192.14 42.3302H191.034V47.2357H192.31C193.396 47.2357 194.268 46.6813 194.268 45.5931V44.0794ZM193.161 49.3897H191.033V55.7659H187.5V40.0488H193.374C196.736 40.0488 197.885 41.9467 197.885 44.1214V45.3592C197.885 48.0247 196.246 49.3897 193.161 49.3897Z" fill="black"/>
<mask id="mask0" mask-type="alpha" maskUnits="userSpaceOnUse" x="0" y="0" width="264" height="57">
<path fill-rule="evenodd" clip-rule="evenodd" d="M0 56.0256H263.38V0.58374H0V56.0256Z" fill="white"/>
</mask>
<g mask="url(#mask0)">
<path fill-rule="evenodd" clip-rule="evenodd" d="M212.697 55.7671H216.144V40.0491H212.697V55.7671ZM204.779 48.0252H203.801V53.5057H204.972C206.972 53.5057 207.738 52.5671 207.738 50.6907C207.738 49.0059 206.887 48.0252 204.779 48.0252ZM203.801 45.7858H205.653C209.058 45.7858 211.228 47.6201 211.228 50.7335C211.228 53.9319 209.121 55.7662 205.631 55.7662H200.566V40.0491H203.801V45.7858Z" fill="black"/>
<path fill-rule="evenodd" clip-rule="evenodd" d="M228.864 55.7671V49.0066H224.075V55.7671H220.543V40.0491H224.075V46.5972H228.864V40.0491H232.397V55.7671H228.864Z" fill="black"/>
<path fill-rule="evenodd" clip-rule="evenodd" d="M246.299 40.0488C246.299 45.9351 245.256 47.001 243.064 47.4067C245.383 48.0892 246.746 50.1788 246.746 55.7668H243.255C243.234 50.4134 242.191 48.7072 240.383 48.7072H239.553V55.7668H236.02V40.0488H239.553V46.4466H240.276C242.212 46.4466 242.851 45.636 242.851 40.0488H246.299Z" fill="black"/>
<path fill-rule="evenodd" clip-rule="evenodd" d="M254.985 43.9524L253.176 49.7321H256.921L254.985 43.9524ZM258.815 55.7671L257.666 51.9928H252.494L251.303 55.7671H248.43L253.707 40.0491H257.006L262.433 55.7671H258.815Z" fill="black"/>
<path fill-rule="evenodd" clip-rule="evenodd" d="M77.9453 32.3349H263.431V31.4753H77.9453V32.3349Z" fill="black"/>
</g>
</g>
<defs>
<clipPath id="clip0">
<rect width="263.469" height="55.9871" fill="white" transform="translate(0 0.506836)"/>
</clipPath>
</defs>
</svg>
