<svg width="26" height="25" viewBox="0 0 26 25" fill="none" xmlns="http://www.w3.org/2000/svg">
<path d="M13.25 6.21094C9.75 6.21094 6.96094 9.05469 6.96094 12.5C6.96094 16 9.75 18.7891 13.25 18.7891C16.6953 18.7891 19.5391 16 19.5391 12.5C19.5391 9.05469 16.6953 6.21094 13.25 6.21094ZM13.25 16.6016C11.0078 16.6016 9.14844 14.7969 9.14844 12.5C9.14844 10.2578 10.9531 8.45312 13.25 8.45312C15.4922 8.45312 17.2969 10.2578 17.2969 12.5C17.2969 14.7969 15.4922 16.6016 13.25 16.6016ZM21.2344 5.99219C21.2344 5.17188 20.5781 4.51562 19.7578 4.51562C18.9375 4.51562 18.2812 5.17188 18.2812 5.99219C18.2812 6.8125 18.9375 7.46875 19.7578 7.46875C20.5781 7.46875 21.2344 6.8125 21.2344 5.99219ZM25.3906 7.46875C25.2812 5.5 24.8438 3.75 23.4219 2.32812C22 0.90625 20.25 0.46875 18.2812 0.359375C16.2578 0.25 10.1875 0.25 8.16406 0.359375C6.19531 0.46875 4.5 0.90625 3.02344 2.32812C1.60156 3.75 1.16406 5.5 1.05469 7.46875C0.945312 9.49219 0.945312 15.5625 1.05469 17.5859C1.16406 19.5547 1.60156 21.25 3.02344 22.7266C4.5 24.1484 6.19531 24.5859 8.16406 24.6953C10.1875 24.8047 16.2578 24.8047 18.2812 24.6953C20.25 24.5859 22 24.1484 23.4219 22.7266C24.8438 21.25 25.2812 19.5547 25.3906 17.5859C25.5 15.5625 25.5 9.49219 25.3906 7.46875ZM22.7656 19.7188C22.3828 20.8125 21.5078 21.6328 20.4688 22.0703C18.8281 22.7266 15 22.5625 13.25 22.5625C11.4453 22.5625 7.61719 22.7266 6.03125 22.0703C4.9375 21.6328 4.11719 20.8125 3.67969 19.7188C3.02344 18.1328 3.1875 14.3047 3.1875 12.5C3.1875 10.75 3.02344 6.92188 3.67969 5.28125C4.11719 4.24219 4.9375 3.42188 6.03125 2.98438C7.61719 2.32812 11.4453 2.49219 13.25 2.49219C15 2.49219 18.8281 2.32812 20.4688 2.98438C21.5078 3.36719 22.3281 4.24219 22.7656 5.28125C23.4219 6.92188 23.2578 10.75 23.2578 12.5C23.2578 14.3047 23.4219 18.1328 22.7656 19.7188Z" fill="black"/>
</svg>
