<svg width="28" height="28" viewBox="0 0 28 28" fill="none" xmlns="http://www.w3.org/2000/svg">
<path d="M13.5625 0.249023C6.07031 0.249023 0 6.31934 0 13.8115C0 21.3037 6.07031 27.374 13.5625 27.374C21.0547 27.374 27.125 21.3037 27.125 13.8115C27.125 6.31934 21.0547 0.249023 13.5625 0.249023ZM20.1797 9.5459L17.9922 20.0459C17.8281 20.8115 17.3906 20.9756 16.7344 20.6475L13.3438 18.1318L11.7031 19.7178C11.5391 19.8818 11.375 20.0459 11.0469 20.0459L11.2656 16.6006L17.5547 10.9131C17.8281 10.6943 17.5 10.5303 17.1172 10.749L9.35156 15.6709L6.01562 14.6318C5.30469 14.4131 5.30469 13.8662 6.17969 13.5381L19.25 8.50684C19.8516 8.28809 20.3984 8.6709 20.1797 9.5459Z" fill="black"/>
</svg>
