<svg width="190" height="69" viewBox="0 0 190 69" fill="none" xmlns="http://www.w3.org/2000/svg">
<path d="M95.4274 17.19H87.2114C86.6354 17.19 86.2109 16.7352 86.2109 16.1895V1.00047C86.2109 0.454758 86.6657 0 87.2114 0H95.0636C95.6397 0 96.0944 0.485075 96.0944 1.00047C96.0944 1.5765 95.6093 2.00094 95.0636 2.00094H88.3028V7.60966H94.4573C95.003 7.60966 95.4578 8.06442 95.4578 8.61014C95.4578 9.15585 95.003 9.61063 94.4573 9.61063H88.3028V15.189H95.3971C95.9428 15.189 96.3976 15.6438 96.3976 16.1895C96.3976 16.7352 95.9731 17.19 95.4274 17.19Z" fill="#201600"/>
<path d="M107.527 17.3115C106.951 17.3115 106.496 16.8567 106.496 16.2807V9.61085C106.496 8.12529 106.102 7.06417 104.283 7.06417C102.949 7.06417 101.979 7.64021 101.403 8.54974V16.2807C101.403 16.8567 100.948 17.3115 100.403 17.3115C99.8265 17.3115 99.3717 16.8567 99.3717 16.2807V8.30718C99.3717 7.36734 99.0989 7.06418 98.6441 6.82164C98.3713 6.67005 98.25 6.45783 98.25 6.12434C98.25 5.51799 98.6744 5.21482 99.2505 5.21482C99.6143 5.21482 100.16 5.39672 100.524 5.69989C100.766 5.94243 100.948 6.18496 101.039 6.48814C101.858 5.57861 103.07 5.06323 104.738 5.06323C107.709 5.06323 108.588 6.91259 108.588 9.39862L108.619 16.2503C108.588 16.887 108.103 17.3115 107.527 17.3115Z" fill="#201600"/>
<path d="M120.773 11.0352C120.773 11.5203 120.409 11.8235 119.985 11.8235H113.527V12.4601C113.527 14.3398 114.346 15.5525 116.256 15.5525C117.256 15.5525 117.923 15.4009 118.348 15.219C118.894 15.0371 119.166 14.7946 119.561 14.7946C120.046 14.7946 120.349 15.1584 120.349 15.6435C120.349 16.1286 119.864 16.5227 119.136 16.7955C118.318 17.129 117.165 17.2806 116.135 17.2806C112.739 17.2806 111.496 14.9765 111.496 12.2782V10.0954C111.496 7.42746 112.83 5.09302 116.135 5.09302C119.561 5.09302 120.773 7.30619 120.773 10.0954V11.0352ZM116.165 6.79079C114.316 6.79079 113.558 8.00348 113.558 9.82253V10.2167H118.772V9.79222C118.772 7.97317 118.105 6.79079 116.165 6.79079Z" fill="#201600"/>
<path d="M130.051 7.27588C129.656 7.27588 129.444 7.12429 128.595 7.12429C127.595 7.12429 126.352 7.42746 125.958 9.24651V16.2802C125.958 16.8562 125.503 17.3109 124.957 17.3109C124.381 17.3109 123.926 16.8562 123.926 16.2802V8.30666C123.926 7.36682 123.654 7.06365 123.199 6.82111C122.926 6.66953 122.805 6.45731 122.805 6.12382C122.805 5.54779 123.168 5.21429 123.835 5.21429C124.745 5.21429 125.442 5.94191 125.715 6.66953C126.716 5.24461 128.11 5.09302 128.959 5.09302C129.929 5.09302 131.051 5.3962 131.051 6.21477C131.021 6.82111 130.687 7.27588 130.051 7.27588Z" fill="#201600"/>
<path d="M139.451 15.7648C138.541 16.3711 137.389 16.6743 136.54 16.6743C133.418 16.6743 132.387 14.7643 132.387 11.7022V10.156C132.387 7.12429 133.508 5.09302 136.601 5.09302C137.541 5.09302 138.571 5.45683 139.451 6.15413C139.451 5.5781 139.845 5.12333 140.481 5.12333C141.118 5.12333 141.512 5.5781 141.512 6.15413V16.3105C141.512 19.4332 139.966 21.4947 136.54 21.4947C135.722 21.4947 134.691 21.3735 133.933 21.0703C133.357 20.8278 132.963 20.4943 132.963 20.0395C132.963 19.5544 133.327 19.1603 133.842 19.1603C134.115 19.1603 134.357 19.3119 134.782 19.4332C135.267 19.6151 135.691 19.7363 136.449 19.7363C138.571 19.7363 139.451 18.5843 139.451 16.3711V15.7648ZM139.451 13.8851V8.06412C138.662 7.24555 137.632 6.91206 136.934 6.91206C135.176 6.91206 134.448 8.00349 134.448 9.94381V11.9751C134.448 13.8851 135.055 14.8855 136.874 14.8855C137.541 14.8552 138.693 14.6127 139.451 13.8851Z" fill="#201600"/>
<path d="M150.243 15.5234C148.849 19.5253 147.272 21.3746 144.423 21.4959C143.695 21.5566 143.301 21.0108 143.301 20.4954C143.301 20.0104 143.574 19.5556 144.241 19.495C145.514 19.4647 146.575 18.9796 147.606 17.0999C146.029 13.2193 144.544 9.24768 143.634 6.39785C143.392 5.60959 143.998 5.12451 144.604 5.12451C144.999 5.12451 145.393 5.33675 145.514 5.82183C146.302 8.2169 147.333 11.2183 148.576 14.5229L151.517 5.82183C151.668 5.33675 152.093 5.12451 152.426 5.12451C153.093 5.12451 153.669 5.70054 153.427 6.4888L150.243 15.5234Z" fill="#201600"/>
<path d="M164.129 17.3115C163.553 17.3115 163.098 16.8567 163.098 16.2807V9.61085C163.098 8.12529 162.704 7.06417 160.885 7.06417C159.551 7.06417 158.581 7.64021 158.005 8.54974V16.2807C158.005 16.8567 157.55 17.3115 157.004 17.3115C156.428 17.3115 155.973 16.8567 155.973 16.2807V8.30718C155.973 7.36734 155.7 7.06418 155.246 6.82164C154.973 6.67005 154.852 6.45783 154.852 6.12434C154.852 5.51799 155.276 5.21482 155.852 5.21482C156.216 5.21482 156.762 5.39672 157.125 5.69989C157.368 5.94243 157.55 6.18496 157.641 6.48814C158.459 5.57861 159.672 5.06323 161.339 5.06323C164.311 5.06323 165.19 6.91259 165.19 9.39862L165.22 16.2503C165.19 16.887 164.705 17.3115 164.129 17.3115Z" fill="#201600"/>
<path d="M177.375 11.0352C177.375 11.5203 177.011 11.8235 176.587 11.8235H170.129V12.4601C170.129 14.3398 170.947 15.5525 172.857 15.5525C173.858 15.5525 174.525 15.4009 174.949 15.219C175.495 15.0371 175.768 14.7946 176.162 14.7946C176.647 14.7946 176.95 15.1584 176.95 15.6435C176.95 16.1286 176.465 16.5227 175.738 16.7955C174.919 17.129 173.767 17.2806 172.736 17.2806C169.341 17.2806 168.098 14.9765 168.098 12.2782V10.0954C168.098 7.42746 169.432 5.09302 172.736 5.09302C176.162 5.09302 177.375 7.30619 177.375 10.0954V11.0352ZM172.767 6.79079C170.917 6.79079 170.159 8.00348 170.159 9.82253V10.2167H175.374V9.79222C175.374 7.97317 174.707 6.79079 172.767 6.79079Z" fill="#201600"/>
<path d="M185.259 17.1903H184.562C181.288 17.1903 180.439 15.1591 180.439 12.0667V7.03399H179.742C179.256 7.03399 178.832 6.63986 178.832 6.15478C178.832 5.6697 179.226 5.24526 179.742 5.24526H180.439V2.81986C180.439 2.24383 180.894 1.78906 181.47 1.78906C182.046 1.78906 182.47 2.27415 182.47 2.81986V5.24526H184.653C185.138 5.24526 185.563 5.63938 185.563 6.15478C185.563 6.63986 185.168 7.03399 184.653 7.03399H182.47L182.5 12.0364C182.5 14.4011 182.864 15.3106 184.744 15.3106H185.229C185.744 15.3106 186.139 15.7351 186.139 16.2505C186.199 16.7659 185.805 17.1903 185.259 17.1903Z" fill="#201600"/>
<path d="M67.3117 67.0224C67.5186 67.102 67.6141 67.3407 67.5345 67.5477L67.5027 67.6432C67.4231 67.8501 67.1843 67.9456 66.9774 67.8501L61.2156 65.4308C61.0087 65.3512 60.9132 65.1124 60.9928 64.9055L61.0246 64.81C61.1042 64.6031 61.3429 64.5076 61.5658 64.6031L67.3117 67.0224Z" fill="#201600"/>
<path d="M57.3021 66.3059C57.5249 66.3377 57.6682 66.5446 57.6364 66.7675L57.6204 66.863C57.5886 67.0858 57.3658 67.229 57.1429 67.1972L50.9832 66.1467C50.7604 66.1149 50.6171 65.908 50.6489 65.6851L50.6649 65.5896C50.6967 65.3668 50.9195 65.2236 51.1424 65.2554L57.3021 66.3059Z" fill="#201600"/>
<path d="M47.2078 65.7965C47.4307 65.7965 47.6217 65.9875 47.6217 66.1944V66.2899C47.6217 66.5128 47.4307 66.6879 47.2078 66.6879L40.9685 66.6401C40.7457 66.6401 40.5547 66.4491 40.5547 66.2422V66.1467C40.5547 65.9239 40.7457 65.7488 40.9685 65.7488L47.2078 65.7965Z" fill="#201600"/>
<path d="M37.0851 65.4311C37.308 65.3992 37.5149 65.5584 37.5308 65.7812L37.5467 65.8767C37.5785 66.0996 37.4035 66.2906 37.1806 66.3224L30.9731 67.0227C30.7503 67.0546 30.5434 66.8954 30.5275 66.6726L30.5116 66.5771C30.4797 66.3542 30.6548 66.1632 30.8776 66.1314L37.0851 65.4311Z" fill="#201600"/>
<path d="M26.725 65.1767C26.9478 65.1289 27.1547 65.2722 27.2025 65.495L27.2184 65.5905C27.2661 65.8133 27.1229 66.0202 26.9 66.068L20.7721 67.2936C20.5493 67.3413 20.3424 67.1981 20.2946 66.9752L20.2787 66.8797C20.231 66.6569 20.3742 66.45 20.597 66.4022L26.725 65.1767Z" fill="#201600"/>
<path d="M16.4592 64.8098C16.6661 64.7303 16.9048 64.8576 16.9685 65.0645L17.0003 65.16C17.064 65.3669 16.9526 65.6057 16.7457 65.6693L10.8247 67.6589C10.6178 67.7385 10.379 67.6112 10.3153 67.4043L10.2835 67.3088C10.2198 67.1018 10.3313 66.8631 10.5382 66.7994L16.4592 64.8098Z" fill="#201600"/>
<path d="M6.19224 64.5403C6.39915 64.4448 6.63791 64.5403 6.73341 64.7473L6.78115 64.8427C6.87665 65.0497 6.78116 65.2884 6.57424 65.3839L0.876083 67.9465C0.669166 68.042 0.430413 67.9465 0.334913 67.7555L0.287165 67.66C0.191665 67.4531 0.287163 67.2143 0.494079 67.1188L6.19224 64.5403Z" fill="#201600"/>
<path d="M67.0741 57.2018C67.2651 57.3132 67.3287 57.5679 67.2173 57.7589L67.1696 57.8385C67.0581 58.0295 66.8035 58.0932 66.6125 57.9817L61.2645 54.7825C61.0735 54.6711 61.0098 54.4164 61.1212 54.2254L61.169 54.1458C61.2804 53.9548 61.5351 53.8912 61.7261 54.0026L67.0741 57.2018Z" fill="#201600"/>
<path d="M57.1902 56.6441C57.3971 56.7237 57.5085 56.9624 57.429 57.1693L57.3971 57.2648C57.3176 57.4718 57.0788 57.5832 56.8719 57.5036L51.0145 55.3389C50.8076 55.2593 50.6962 55.0206 50.7758 54.8137L50.8076 54.7182C50.8872 54.5113 51.126 54.3998 51.3329 54.4794L57.1902 56.6441Z" fill="#201600"/>
<path d="M47.1461 56.3107C47.3689 56.3585 47.4962 56.5813 47.4485 56.8042L47.4166 56.8997C47.3689 57.1225 47.1461 57.2498 46.9232 57.1862L40.8749 55.6582C40.6521 55.5945 40.5247 55.3876 40.5725 55.1647L40.6043 55.0693C40.6521 54.8464 40.8749 54.7191 41.0977 54.7827L47.1461 56.3107Z" fill="#201600"/>
<path d="M37.1353 55.9128C37.3581 55.9446 37.5173 56.1356 37.4855 56.3584L37.4696 56.4539C37.4377 56.6768 37.2467 56.8359 37.008 56.8041L30.8164 56.056C30.5936 56.0242 30.4344 55.8332 30.4503 55.6104L30.4662 55.5149C30.4981 55.292 30.6891 55.1329 30.9278 55.1647L37.1353 55.9128Z" fill="#201600"/>
<path d="M26.9149 55.5142C27.1377 55.5142 27.3287 55.6892 27.3287 55.9121V56.0076C27.3287 56.2304 27.1536 56.4055 26.9149 56.4055L20.6755 56.4373C20.4527 56.4373 20.2617 56.2622 20.2617 56.0394V55.9439C20.2617 55.7211 20.4368 55.546 20.6755 55.5301L26.9149 55.5142Z" fill="#201600"/>
<path d="M17.0338 55.1176C17.2566 55.0857 17.4635 55.2449 17.4954 55.4677L17.5113 55.5632C17.5431 55.7861 17.384 55.993 17.1611 56.0248L10.9855 56.8843C10.7626 56.9162 10.5557 56.757 10.5239 56.5342L10.508 56.4387C10.4761 56.2158 10.6353 56.0089 10.8581 55.9771L17.0338 55.1176Z" fill="#201600"/>
<path d="M6.59185 54.9106C6.81468 54.8628 7.0216 55.0061 7.06934 55.2289L7.08527 55.3244C7.13302 55.5472 6.98977 55.7541 6.76693 55.8019L0.654939 57.0752C0.432106 57.123 0.22519 56.9797 0.17744 56.7569L0.161527 56.6614C0.113777 56.4385 0.257027 56.2316 0.47986 56.1839L6.59185 54.9106Z" fill="#201600"/>
<path d="M67.0271 47.3977C67.2022 47.541 67.2499 47.7957 67.1067 47.9707L67.043 48.0503C66.9157 48.2254 66.661 48.2572 66.47 48.1299L61.4881 44.3736C61.313 44.2303 61.2653 43.9757 61.4085 43.8006L61.4722 43.721C61.5995 43.5459 61.8542 43.5141 62.0452 43.6414L67.0271 47.3977Z" fill="#201600"/>
<path d="M57.0768 46.9366C57.2837 47.048 57.3474 47.2868 57.2519 47.4778L57.2041 47.5733C57.1086 47.7643 56.854 47.8439 56.647 47.7324L51.124 44.8356C50.9171 44.7242 50.8375 44.4854 50.9489 44.2944L50.9966 44.1989C51.0921 44.0079 51.3468 43.9284 51.5537 44.0239L57.0768 46.9366Z" fill="#201600"/>
<path d="M47.1474 46.5045C47.3543 46.5841 47.4658 46.807 47.4021 47.0139L47.3702 47.1094C47.2907 47.3163 47.0678 47.4277 46.845 47.3481L40.9718 45.2471C40.7648 45.1675 40.6534 44.9447 40.7171 44.7219L40.7489 44.6264C40.8285 44.4195 41.0513 44.308 41.2742 44.3876L47.1474 46.5045Z" fill="#201600"/>
<path d="M37.0872 46.1242C37.3101 46.1719 37.4533 46.3948 37.3897 46.6017L37.3737 46.6972C37.326 46.92 37.1032 47.0473 36.8803 46.9996L30.8002 45.6308C30.5773 45.583 30.4341 45.3602 30.4818 45.1533L30.4978 45.0578C30.5455 44.8349 30.7683 44.7076 30.9912 44.7553L37.0872 46.1242Z" fill="#201600"/>
<path d="M26.8846 45.6137C27.1075 45.6296 27.2826 45.8206 27.2666 46.0435V46.139C27.2507 46.3618 27.0597 46.5369 26.8369 46.521L20.6135 46.139C20.3906 46.123 20.2156 45.9321 20.2315 45.7092V45.6137C20.2474 45.3909 20.4384 45.2158 20.6612 45.2317L26.8846 45.6137Z" fill="#201600"/>
<path d="M16.8563 45.44C17.0791 45.44 17.2701 45.631 17.2701 45.8379V45.9335C17.2701 46.1563 17.0791 46.3314 16.8563 46.3314L10.617 46.2995C10.3941 46.2995 10.2031 46.1244 10.2031 45.9016V45.8061C10.2031 45.5833 10.3941 45.4082 10.617 45.4082L16.8563 45.44Z" fill="#201600"/>
<path d="M6.60801 45.0102C6.83084 44.9783 7.03775 45.1375 7.06958 45.3603L7.08551 45.4558C7.11734 45.6787 6.95817 45.8856 6.73534 45.9174L0.55968 46.7769C0.336847 46.8087 0.129927 46.6496 0.0980938 46.4267L0.0821811 46.3312C0.0503478 46.1084 0.209516 45.9015 0.432349 45.8697L6.60801 45.0102Z" fill="#201600"/>
<path d="M66.8192 37.4809C66.9784 37.64 66.9943 37.8947 66.8351 38.0539L66.7714 38.1335C66.6123 38.2926 66.3576 38.2926 66.1984 38.1335L61.694 33.8201C61.5349 33.6609 61.5189 33.4062 61.6781 33.2471L61.7418 33.1675C61.901 33.0083 62.1556 33.0083 62.3148 33.1675L66.8192 37.4809Z" fill="#201600"/>
<path d="M57.0327 37.0195C57.2237 37.1468 57.2714 37.4015 57.1441 37.5765L57.0805 37.6561C56.9531 37.8471 56.6985 37.8949 56.5234 37.7675L51.3505 34.2818C51.1595 34.1545 51.1117 33.8998 51.239 33.7247L51.3027 33.6451C51.43 33.4541 51.6847 33.4064 51.8757 33.5337L57.0327 37.0195Z" fill="#201600"/>
<path d="M46.9694 36.6372C47.1763 36.7327 47.2559 36.9874 47.1604 37.1784L47.1126 37.2739C47.0171 37.4649 46.7625 37.5445 46.5715 37.449L41.0006 34.6476C40.7937 34.5521 40.7141 34.2975 40.8096 34.1065L40.8574 34.011C40.9529 33.8041 41.2075 33.7404 41.3985 33.8359L46.9694 36.6372Z" fill="#201600"/>
<path d="M37.0057 36.3523C37.2127 36.4319 37.3241 36.6706 37.2445 36.8776L37.2127 36.9731C37.1331 37.18 36.8943 37.2755 36.6874 37.1959L30.8778 34.9357C30.6709 34.8561 30.5595 34.6174 30.6391 34.4105L30.6709 34.315C30.7505 34.1081 30.9893 34.0126 31.1962 34.0921L37.0057 36.3523Z" fill="#201600"/>
<path d="M26.9175 36.0322C27.1403 36.0959 27.2677 36.3187 27.204 36.5256L27.1722 36.6211C27.1085 36.828 26.8857 36.9554 26.6788 36.9076L20.6623 35.2523C20.4394 35.1886 20.3121 34.9658 20.3758 34.7589L20.4076 34.6634C20.4713 34.4405 20.6941 34.3291 20.901 34.3769L26.9175 36.0322Z" fill="#201600"/>
<path d="M16.9058 36.0336C17.1286 36.0973 17.256 36.3201 17.1923 36.527L17.1605 36.6225C17.0968 36.8295 16.874 36.9568 16.667 36.909L10.6505 35.2696C10.4277 35.206 10.3004 34.9831 10.364 34.7762L10.3959 34.6807C10.4595 34.4579 10.6824 34.3465 10.8893 34.3942L16.9058 36.0336Z" fill="#201600"/>
<path d="M6.67016 35.5076C6.893 35.5235 7.05217 35.7304 7.03625 35.9533L7.02033 36.0488C7.00442 36.2716 6.7975 36.4308 6.57467 36.4148L0.367177 35.7941C0.144344 35.7782 -0.0148207 35.5713 0.00109594 35.3484L0.0170087 35.2529C0.0329253 35.0301 0.23984 34.8709 0.462673 34.8868L6.67016 35.5076Z" fill="#201600"/>
<path d="M66.5788 27.7561C66.7221 27.9311 66.7062 28.1858 66.547 28.3291L66.4674 28.3927C66.2924 28.536 66.0377 28.5201 65.8944 28.3609L61.7561 23.6814C61.6128 23.5063 61.6129 23.2516 61.7879 23.1084L61.8675 23.0447C62.0426 22.9015 62.2973 22.9174 62.4405 23.0766L66.5788 27.7561Z" fill="#201600"/>
<path d="M56.9057 27.3266C57.0808 27.4698 57.1126 27.7245 56.9693 27.8996L56.9057 27.9791C56.7624 28.1542 56.5078 28.1701 56.3327 28.0428L51.4781 24.1114C51.303 23.9681 51.2712 23.7135 51.4144 23.5384L51.4781 23.4588C51.6214 23.2837 51.876 23.2519 52.0511 23.3951L56.9057 27.3266Z" fill="#201600"/>
<path d="M46.8899 26.9767C47.0809 27.0881 47.1445 27.3427 47.0172 27.5337L46.9695 27.6133C46.858 27.8043 46.6034 27.868 46.4124 27.7407L41.1121 24.4618C40.9211 24.3345 40.8575 24.0958 40.9689 23.9048L41.0166 23.8252C41.1281 23.6342 41.3827 23.5705 41.5737 23.6978L46.8899 26.9767Z" fill="#201600"/>
<path d="M36.9766 26.5783C37.1835 26.6738 37.279 26.9125 37.1835 27.1195L37.1357 27.215C37.0402 27.4219 36.8015 27.5015 36.5946 27.4219L30.8964 24.8593C30.6895 24.7638 30.594 24.525 30.6895 24.3181L30.7373 24.2226C30.8328 24.0157 31.0715 23.9361 31.2784 24.0157L36.9766 26.5783Z" fill="#201600"/>
<path d="M26.9487 26.2753C27.1556 26.3549 27.283 26.5777 27.2034 26.7846L27.1716 26.8801C27.1079 27.087 26.8692 27.1984 26.6622 27.1348L20.7412 25.1452C20.5184 25.0656 20.407 24.8428 20.4866 24.6359L20.5184 24.5404C20.5821 24.3334 20.8208 24.222 21.0277 24.2857L26.9487 26.2753Z" fill="#201600"/>
<path d="M16.7769 26.1005C16.9997 26.1642 17.127 26.387 17.0634 26.5939L17.0315 26.6894C16.9679 26.9123 16.745 27.0237 16.5381 26.9759L10.5216 25.3365C10.2988 25.2729 10.1715 25.05 10.2351 24.8431L10.267 24.7476C10.3306 24.5248 10.5535 24.4134 10.7604 24.4611L16.7769 26.1005Z" fill="#201600"/>
<path d="M6.73541 25.815C6.95824 25.8468 7.10149 26.0696 7.06965 26.2766L7.05374 26.3721C7.02191 26.5949 6.79907 26.7381 6.57624 26.7063L0.432421 25.6399C0.209588 25.6081 0.066332 25.3852 0.0981653 25.1783L0.114088 25.0828C0.145921 24.86 0.368754 24.7167 0.591587 24.7486L6.73541 25.815Z" fill="#201600"/>
<path d="M66.5496 17.7278C66.6929 17.9029 66.677 18.1575 66.5019 18.3008L66.4223 18.3645C66.2472 18.5077 65.9925 18.4759 65.8493 18.3008L61.8701 13.494C61.7269 13.3189 61.7428 13.0642 61.9179 12.921L61.9975 12.8573C62.1725 12.7141 62.4272 12.7459 62.5705 12.921L66.5496 17.7278Z" fill="#201600"/>
<path d="M66.5496 7.71754C66.6929 7.89263 66.677 8.14729 66.5019 8.29054L66.4223 8.35421C66.2472 8.49746 65.9925 8.46563 65.8493 8.29054L61.8701 3.48372C61.7269 3.30863 61.7428 3.05397 61.9179 2.91072L61.9975 2.84705C62.1725 2.7038 62.4272 2.73563 62.5705 2.91072L66.5496 7.71754Z" fill="#201600"/>
<path d="M56.777 17.2987C56.9521 17.4419 56.968 17.6966 56.8248 17.8717L56.7611 17.9513C56.6179 18.1264 56.3632 18.1423 56.1881 17.9831L51.4609 13.9244C51.2858 13.7811 51.2698 13.5264 51.4131 13.3514L51.4768 13.2718C51.62 13.0967 51.8747 13.0808 52.0498 13.2399L56.777 17.2987Z" fill="#201600"/>
<path d="M56.6786 7.16015C56.8377 7.31931 56.8537 7.57398 56.6945 7.73315L56.6308 7.81273C56.4717 7.9719 56.217 7.9719 56.0578 7.82865L51.5534 3.51524C51.3942 3.35607 51.3783 3.1014 51.5375 2.94224L51.6012 2.86265C51.7603 2.70349 52.015 2.70349 52.1742 2.84674L56.6786 7.16015Z" fill="#201600"/>
<path d="M46.7785 17.013C46.9695 17.1403 47.0172 17.395 46.8899 17.5701L46.8263 17.6496C46.6989 17.8406 46.4442 17.8725 46.2532 17.7451L41.1122 14.2116C40.9212 14.0843 40.8734 13.8296 41.0008 13.6546L41.0644 13.575C41.1918 13.384 41.4464 13.3521 41.6374 13.4795L46.7785 17.013Z" fill="#201600"/>
<path d="M46.7341 6.73038C46.9091 6.85771 46.9569 7.11238 46.8296 7.30338L46.7659 7.38296C46.6386 7.55804 46.3839 7.60579 46.1929 7.46254L41.1792 3.75396C41.0041 3.62663 40.9563 3.37196 41.0837 3.18096L41.1473 3.10138C41.2747 2.9263 41.5293 2.87855 41.7203 3.0218L46.7341 6.73038Z" fill="#201600"/>
<path d="M36.8815 16.6467C37.0884 16.7581 37.168 16.9969 37.0566 17.1879L37.0088 17.2834C36.9133 17.4744 36.6586 17.554 36.4676 17.4585L30.9287 14.5776C30.7217 14.4661 30.6422 14.2274 30.7536 14.0364L30.8013 13.9409C30.8968 13.7499 31.1515 13.6703 31.3584 13.7658L36.8815 16.6467Z" fill="#201600"/>
<path d="M36.7519 6.84227C36.9429 6.9696 36.9906 7.22426 36.8792 7.39935L36.8315 7.47893C36.7041 7.66993 36.4495 7.71768 36.2744 7.59035L31.0537 4.16827C30.8627 4.04094 30.815 3.78627 30.9264 3.61119L30.9741 3.53161C31.1015 3.34061 31.3402 3.29285 31.5312 3.42019L36.7519 6.84227Z" fill="#201600"/>
<path d="M26.82 16.4868C27.027 16.5823 27.1225 16.8211 27.027 17.028L26.9792 17.1235C26.8837 17.3304 26.645 17.41 26.438 17.3145L20.7558 14.736C20.5489 14.6405 20.4534 14.4018 20.5489 14.1948L20.5966 14.0993C20.6921 13.8924 20.9309 13.8128 21.1378 13.8924L26.82 16.4868Z" fill="#201600"/>
<path d="M26.79 6.22107C26.9969 6.31657 27.0765 6.57124 26.981 6.76224L26.9332 6.85774C26.8377 7.06465 26.5831 7.14424 26.3921 7.03282L20.8053 4.26332C20.5984 4.16782 20.5188 3.91316 20.6143 3.72216L20.6621 3.62666C20.7576 3.41974 21.0122 3.34016 21.2032 3.45158L26.79 6.22107Z" fill="#201600"/>
<path d="M16.6821 16.2965C16.889 16.3761 17.0004 16.6149 16.9209 16.8218L16.889 16.9173C16.8094 17.1242 16.5707 17.2356 16.3638 17.156L10.5224 14.9595C10.3155 14.8799 10.204 14.6412 10.2836 14.4343L10.3155 14.3388C10.395 14.1319 10.6338 14.0204 10.8407 14.1L16.6821 16.2965Z" fill="#201600"/>
<path d="M16.6328 6.17314C16.8397 6.26863 16.9352 6.50739 16.8397 6.7143L16.792 6.8098C16.6965 7.01672 16.4577 7.11222 16.2508 7.01672L10.5527 4.48597C10.3458 4.39047 10.2503 4.15172 10.3458 3.9448L10.3935 3.84931C10.489 3.64239 10.7278 3.54689 10.9347 3.64239L16.6328 6.17314Z" fill="#201600"/>
<path d="M6.62261 15.9615C6.84545 16.0251 6.97278 16.2321 6.92503 16.4549L6.8932 16.5504C6.82953 16.7732 6.62262 16.9006 6.39979 16.8369L0.351461 15.2771C0.128628 15.2134 0.00129119 15.0065 0.0490411 14.7836L0.0808764 14.6881C0.144543 14.4653 0.351455 14.338 0.574288 14.4016L6.62261 15.9615Z" fill="#201600"/>
<path d="M6.59129 5.83809C6.7982 5.91767 6.92554 6.14051 6.84596 6.34742L6.81413 6.44292C6.73454 6.64984 6.51171 6.76125 6.28888 6.68167L0.399719 4.62842C0.192803 4.54884 0.0654636 4.32601 0.145047 4.11909L0.176882 4.02359C0.256465 3.81668 0.479296 3.70526 0.702129 3.78484L6.59129 5.83809Z" fill="#201600"/>
<path d="M127.29 50.9637C127.29 50.8121 127.229 50.6908 127.078 50.5999C126.957 50.5392 126.866 50.4483 126.805 50.3573C126.744 50.2664 126.714 50.0845 126.714 49.8722V43.3843C126.714 43.2327 126.653 43.1114 126.562 43.0205C126.472 42.9295 126.35 42.8689 126.199 42.8689C126.047 42.8689 125.926 42.9295 125.835 43.0205C125.744 43.1114 125.683 43.2327 125.683 43.3843V50.0541C125.683 50.5089 125.835 50.8727 126.138 51.1456C126.35 51.2972 126.563 51.3881 126.744 51.3881C127.139 51.4184 127.29 51.2668 127.29 50.9637ZM122.803 49.3872C122.803 49.7813 122.682 50.0845 122.47 50.2967C122.257 50.5089 121.924 50.5999 121.53 50.5999C120.742 50.5999 120.317 50.2967 120.317 49.6903V49.5994C120.317 48.993 120.742 48.6899 121.56 48.6899H122.773V49.3872H122.803ZM124.349 50.9637C124.349 50.8121 124.289 50.6908 124.137 50.5999L123.895 50.3573C123.834 50.2664 123.804 50.0845 123.804 49.8722V47.6894C123.804 46.9011 123.652 46.2948 123.319 45.931C123.015 45.5672 122.439 45.3549 121.651 45.3549C121.105 45.3549 120.651 45.4459 120.287 45.5975C119.923 45.7491 119.711 45.931 119.711 46.1735L119.832 46.4767C119.923 46.5676 120.014 46.598 120.135 46.598L120.256 46.5676L120.378 46.5373L120.529 46.4767L120.681 46.3857C120.923 46.2948 121.227 46.2342 121.59 46.2342C122.045 46.2342 122.379 46.3554 122.53 46.5676C122.712 46.7799 122.773 47.1437 122.773 47.6287V47.9319H121.469C120.742 47.9319 120.226 48.0835 119.862 48.3867C119.499 48.6899 119.317 49.1143 119.317 49.6297V49.7207C119.317 50.2361 119.499 50.6605 119.832 50.9637C120.166 51.2972 120.681 51.4488 121.378 51.4488C122.106 51.4488 122.652 51.2365 123.015 50.8424C123.076 50.994 123.167 51.1456 123.319 51.2668C123.47 51.3881 123.652 51.4488 123.834 51.4488C124.167 51.4184 124.349 51.2668 124.349 50.9637ZM117.892 50.903V47.5075C117.892 46.0826 117.255 45.3549 115.982 45.3549C115.193 45.3549 114.587 45.5975 114.132 46.0522C114.072 45.931 114.011 45.7794 113.89 45.6581C113.678 45.5065 113.465 45.4156 113.253 45.4156C112.92 45.4156 112.738 45.5672 112.738 45.8703C112.738 46.0219 112.798 46.1432 112.95 46.2038C113.071 46.2645 113.162 46.3554 113.223 46.4464C113.283 46.5373 113.314 46.7192 113.314 46.9315V50.8727C113.314 51.0243 113.374 51.1456 113.465 51.2365C113.556 51.3275 113.678 51.3881 113.829 51.3881C113.981 51.3881 114.102 51.3275 114.193 51.2365C114.284 51.1456 114.345 51.0243 114.345 50.8727V47.0527C114.648 46.5676 115.133 46.3251 115.77 46.3251C116.194 46.3251 116.467 46.4464 116.649 46.6586C116.8 46.8708 116.891 47.174 116.891 47.5984V50.903C116.891 51.0546 116.952 51.1759 117.043 51.2668C117.134 51.3578 117.255 51.4184 117.407 51.4184C117.558 51.4184 117.679 51.3578 117.77 51.2668C117.831 51.1456 117.892 51.0243 117.892 50.903ZM110.585 48.993C110.585 49.9935 110.13 50.4786 109.251 50.4786C108.372 50.4786 107.917 49.9935 107.917 48.993V47.8107C107.917 46.8102 108.372 46.3251 109.251 46.3251C110.13 46.3251 110.585 46.8102 110.585 47.8107V48.993ZM111.586 48.993V47.7803C111.586 47.0527 111.404 46.4767 111.01 46.0219C110.616 45.5672 110.04 45.3549 109.251 45.3549C108.463 45.3549 107.887 45.5672 107.493 46.0219C107.099 46.4767 106.917 47.0527 106.917 47.7803V48.993C106.917 49.7206 107.099 50.2967 107.493 50.7514C107.887 51.2062 108.463 51.4184 109.251 51.4184C110.04 51.4184 110.646 51.2062 111.01 50.7514C111.404 50.2967 111.586 49.6903 111.586 48.993ZM105.31 50.903V45.8703C105.31 45.7188 105.249 45.5975 105.158 45.5065C105.067 45.4156 104.946 45.3549 104.795 45.3549C104.643 45.3549 104.522 45.4156 104.431 45.5065C104.34 45.5975 104.279 45.7188 104.279 45.8703V50.8727C104.279 51.0243 104.34 51.1456 104.431 51.2365C104.522 51.3275 104.643 51.3881 104.795 51.3881C104.946 51.3881 105.067 51.3275 105.158 51.2365C105.249 51.1456 105.31 51.0243 105.31 50.903ZM105.431 43.5359C105.431 43.354 105.371 43.2024 105.249 43.0811C105.128 42.9599 104.976 42.8992 104.795 42.8992C104.613 42.8992 104.461 42.9599 104.34 43.0811C104.219 43.2024 104.158 43.354 104.158 43.5359C104.158 43.7178 104.219 43.8391 104.34 43.9603C104.461 44.0816 104.613 44.1422 104.795 44.1422C104.976 44.1422 105.128 44.0816 105.249 43.9603C105.371 43.8694 105.431 43.7178 105.431 43.5359ZM103.006 50.8727C103.006 50.7514 102.976 50.6302 102.885 50.5392C102.794 50.4483 102.672 50.418 102.551 50.418H102.309C101.854 50.418 101.581 50.2967 101.429 50.0541C101.278 49.8116 101.217 49.3872 101.217 48.7808V46.2948H102.309C102.43 46.2948 102.551 46.2645 102.612 46.1735L102.733 45.8703C102.733 45.7491 102.703 45.6278 102.612 45.5672C102.521 45.4762 102.43 45.4459 102.309 45.4459H101.217V44.2332C101.217 44.0816 101.157 43.9604 101.066 43.8694C100.975 43.7784 100.853 43.7178 100.702 43.7178C100.55 43.7178 100.429 43.7784 100.338 43.8694C100.247 43.9604 100.186 44.0816 100.186 44.2332V45.4459H99.8529C99.7316 45.4459 99.6103 45.4762 99.5497 45.5672C99.4587 45.6581 99.4284 45.7491 99.4284 45.8703L99.5497 46.1735C99.6406 46.2645 99.7316 46.2948 99.8529 46.2948H100.186V48.7808C100.186 49.6297 100.338 50.236 100.641 50.6605C100.944 51.0849 101.46 51.2972 102.218 51.2972H102.581C102.703 51.2972 102.824 51.2668 102.915 51.1759C102.976 51.1153 103.006 50.994 103.006 50.8727ZM97.1243 49.3872C97.1243 49.7813 97.003 50.0845 96.7908 50.2967C96.5786 50.5089 96.2451 50.5999 95.851 50.5999C95.0627 50.5999 94.6383 50.2967 94.6383 49.6903V49.5994C94.6383 48.993 95.0627 48.6899 95.8813 48.6899H97.094V49.3872H97.1243ZM98.6705 50.9637C98.6705 50.8121 98.6098 50.6908 98.4582 50.5999L98.2157 50.3573C98.1551 50.2664 98.1248 50.0845 98.1248 49.8722V47.6894C98.1248 46.9011 97.9732 46.2948 97.6397 45.931C97.3365 45.5672 96.7605 45.3549 95.9722 45.3549C95.4265 45.3549 94.9718 45.4459 94.6079 45.5975C94.2441 45.7491 94.0319 45.931 94.0319 46.1735L94.1532 46.4767C94.2441 46.5676 94.3351 46.598 94.4564 46.598L94.5776 46.5676L94.6989 46.5373L94.8505 46.4767L95.0021 46.3857C95.2446 46.2948 95.5478 46.2342 95.9116 46.2342C96.3664 46.2342 96.6998 46.3554 96.8514 46.5676C97.0333 46.7799 97.094 47.1437 97.094 47.6287V47.9319H95.76C95.0324 47.9319 94.517 48.0835 94.1532 48.3867C93.7894 48.6899 93.6075 49.1143 93.6075 49.6297V49.7207C93.6075 50.2361 93.7894 50.6605 94.1229 50.9637C94.4563 51.2972 94.9718 51.4488 95.6691 51.4488C96.3967 51.4488 96.9424 51.2365 97.3062 50.8424C97.3668 50.994 97.4578 51.1456 97.6094 51.2668C97.7609 51.3881 97.9429 51.4488 98.1248 51.4488C98.4886 51.4184 98.6705 51.2668 98.6705 50.9637ZM92.031 50.9334V43.1721C92.031 43.0508 91.9703 42.9296 91.8794 42.8386C91.7884 42.7476 91.6671 42.687 91.5459 42.687C91.4246 42.687 91.3033 42.7476 91.2124 42.8386C91.1214 42.9296 91.0608 43.0508 91.0608 43.1721V49.2356L87.2105 42.9902C87.0892 42.8083 86.9376 42.687 86.6951 42.687C86.5435 42.687 86.4222 42.7476 86.3313 42.8386C86.2403 42.9296 86.1797 43.0508 86.1797 43.2024V50.9637C86.1797 51.0849 86.2403 51.2062 86.3313 51.2972C86.4222 51.3881 86.5435 51.4488 86.6648 51.4488C86.786 51.4488 86.9073 51.3881 86.9983 51.2972C87.0892 51.2062 87.1498 51.0849 87.1498 50.9637V44.9002L91.0305 51.2062C91.1214 51.3881 91.3033 51.4488 91.5459 51.4488C91.6975 51.4488 91.8187 51.3881 91.9097 51.2972C92.0006 51.2062 92.031 51.0849 92.031 50.9334Z" fill="#201600"/>
<path d="M188.137 62.6063V62.8185H185.56V62.6063C185.56 61.6058 185.985 61.1207 186.864 61.1207C187.713 61.1207 188.137 61.6058 188.137 62.6063ZM189.138 62.7579C189.138 61.9999 188.956 61.4239 188.592 60.9691C188.228 60.5144 187.652 60.3022 186.834 60.3022C186.076 60.3022 185.5 60.5447 185.106 60.9995C184.712 61.4542 184.53 62.0606 184.53 62.7882V63.8796C184.53 64.6072 184.712 65.2136 185.106 65.6683C185.47 66.1231 186.046 66.3656 186.834 66.3656C187.41 66.3656 187.925 66.2747 188.319 66.1231C188.713 65.9715 188.926 65.7896 188.926 65.5471C188.926 65.4258 188.895 65.3349 188.835 65.2439L188.562 65.1226L188.41 65.1529L188.198 65.2439L187.986 65.3349C187.683 65.4561 187.349 65.4864 186.955 65.4864C186.5 65.4864 186.167 65.3652 185.955 65.0923C185.742 64.8195 185.621 64.4556 185.621 63.9706V63.6674H188.804L189.077 63.5461L189.199 63.2733V62.7579H189.138ZM183.499 60.9388C183.56 60.7569 183.529 60.6053 183.438 60.4841C183.317 60.3628 183.196 60.3022 183.044 60.3022C182.832 60.3022 182.68 60.4234 182.589 60.6357C182.104 62.1515 181.589 63.6068 181.043 65.0014C180.497 63.4855 179.982 62.0303 179.527 60.6357C179.467 60.4234 179.315 60.3022 179.103 60.3022C178.951 60.3022 178.83 60.3628 178.709 60.4841C178.618 60.6053 178.587 60.7569 178.618 60.9388C179.103 62.4244 179.679 64.0615 180.376 65.8503C180.497 66.1837 180.74 66.3656 181.043 66.3656C181.346 66.3656 181.559 66.1837 181.71 65.8503C182.317 64.3041 182.923 62.6972 183.499 60.9388ZM177.223 65.8199V60.8176C177.223 60.666 177.163 60.5447 177.072 60.4537C176.981 60.3628 176.859 60.3022 176.708 60.3022C176.556 60.3022 176.435 60.3628 176.344 60.4537C176.253 60.5447 176.192 60.666 176.192 60.8176V65.8199C176.192 65.9715 176.253 66.0928 176.344 66.1837C176.435 66.2747 176.556 66.3353 176.708 66.3353C176.859 66.3353 176.981 66.2747 177.072 66.1837C177.163 66.0928 177.223 65.9715 177.223 65.8199ZM177.344 58.4528C177.344 58.2709 177.284 58.1193 177.163 57.998C177.041 57.8768 176.89 57.8161 176.708 57.8161C176.526 57.8161 176.374 57.8768 176.253 57.998C176.132 58.1193 176.071 58.2709 176.071 58.4528C176.071 58.6347 176.132 58.756 176.253 58.8772C176.374 58.9985 176.526 59.0591 176.708 59.0591C176.89 59.0591 177.041 58.9985 177.163 58.8772C177.284 58.7863 177.344 58.6347 177.344 58.4528ZM174.919 65.7896C174.919 65.6683 174.889 65.5471 174.798 65.4561C174.707 65.3652 174.586 65.3349 174.464 65.3349H174.222C173.767 65.3349 173.494 65.2136 173.343 64.971C173.191 64.7285 173.13 64.3041 173.13 63.6977V61.2117H174.222C174.343 61.2117 174.464 61.1814 174.525 61.0904L174.646 60.7872C174.646 60.666 174.616 60.5447 174.525 60.4841C174.434 60.4234 174.343 60.3628 174.222 60.3628H173.13V59.1501C173.13 58.9985 173.07 58.8772 172.979 58.7863C172.888 58.6953 172.767 58.6347 172.615 58.6347C172.463 58.6347 172.342 58.6953 172.251 58.7863C172.16 58.8772 172.1 58.9985 172.1 59.1501V60.3628H171.766C171.645 60.3628 171.524 60.3931 171.463 60.4841C171.372 60.575 171.342 60.666 171.342 60.7872L171.463 61.0904C171.554 61.1814 171.645 61.2117 171.766 61.2117H172.1V63.6977C172.1 64.5466 172.251 65.1529 172.554 65.5774C172.857 66.0018 173.373 66.214 174.131 66.214H174.495C174.616 66.214 174.737 66.1837 174.828 66.0928C174.858 66.0322 174.919 65.9109 174.919 65.7896ZM169.037 64.3041C169.037 64.6982 168.916 65.0014 168.704 65.2136C168.492 65.4258 168.158 65.5168 167.764 65.5168C166.976 65.5168 166.551 65.2136 166.551 64.6072V64.5163C166.551 63.9099 166.976 63.6068 167.794 63.6068H169.007V64.3041H169.037ZM170.584 65.8806C170.584 65.729 170.523 65.6077 170.371 65.5168L170.129 65.2742C170.068 65.1833 170.038 65.0014 170.038 64.7891V62.6063C170.038 61.818 169.886 61.2117 169.553 60.8479C169.25 60.4841 168.674 60.2718 167.885 60.2718C167.34 60.2718 166.885 60.3628 166.521 60.5144C166.157 60.666 165.945 60.8479 165.945 61.0904L166.066 61.3936C166.157 61.4845 166.248 61.5148 166.37 61.5148L166.491 61.4845L166.612 61.4542L166.764 61.3936L166.915 61.3026C167.158 61.2117 167.461 61.1511 167.825 61.1511C168.28 61.1511 168.613 61.2723 168.765 61.4845C168.947 61.6968 169.007 62.0606 169.007 62.5456V62.8488H167.673C166.946 62.8488 166.43 63.0004 166.066 63.3036C165.703 63.6068 165.521 64.0312 165.521 64.5466V64.6376C165.521 65.153 165.703 65.5774 166.036 65.8806C166.37 66.2141 166.885 66.3656 167.582 66.3656C168.31 66.3656 168.856 66.1534 169.219 65.7593C169.28 65.9109 169.371 66.0625 169.523 66.1837C169.674 66.305 169.856 66.3656 170.038 66.3656C170.402 66.3353 170.584 66.1837 170.584 65.8806ZM164.126 65.8199V60.8176C164.126 60.666 164.065 60.5447 163.974 60.4537C163.884 60.3628 163.762 60.3022 163.611 60.3022C163.459 60.3022 163.338 60.3628 163.247 60.4537C163.156 60.5447 163.095 60.666 163.095 60.8176V65.8199C163.095 65.9715 163.156 66.0928 163.247 66.1837C163.338 66.2747 163.459 66.3353 163.611 66.3353C163.762 66.3353 163.884 66.2747 163.974 66.1837C164.065 66.0928 164.126 65.9715 164.126 65.8199ZM164.247 58.4528C164.247 58.2709 164.187 58.1193 164.065 57.998C163.944 57.8768 163.793 57.8161 163.611 57.8161C163.429 57.8161 163.277 57.8768 163.156 57.998C163.035 58.1193 162.974 58.2709 162.974 58.4528C162.974 58.6347 163.035 58.756 163.156 58.8772C163.277 58.9985 163.429 59.0591 163.611 59.0591C163.793 59.0591 163.944 58.9985 164.065 58.8772C164.187 58.7863 164.247 58.6347 164.247 58.4528ZM161.822 65.7896C161.822 65.6683 161.792 65.5471 161.701 65.4561C161.61 65.3652 161.488 65.3349 161.367 65.3349H161.125C160.67 65.3349 160.397 65.2136 160.245 64.971C160.094 64.7285 160.033 64.3041 160.033 63.6977V61.2117H161.125C161.246 61.2117 161.367 61.1814 161.428 61.0904L161.549 60.7872C161.549 60.666 161.519 60.5447 161.428 60.4841C161.337 60.4234 161.246 60.3628 161.125 60.3628H160.033V59.1501C160.033 58.9985 159.973 58.8772 159.882 58.7863C159.791 58.6953 159.669 58.6347 159.518 58.6347C159.366 58.6347 159.245 58.6953 159.154 58.7863C159.063 58.8772 159.002 58.9985 159.002 59.1501V60.3628H158.669C158.548 60.3628 158.426 60.3931 158.366 60.4841C158.305 60.575 158.244 60.666 158.244 60.7872L158.366 61.0904C158.457 61.1814 158.548 61.2117 158.669 61.2117H159.002V63.6977C159.002 64.5466 159.154 65.1529 159.457 65.5774C159.76 66.0018 160.276 66.214 161.034 66.214H161.398C161.519 66.214 161.64 66.1837 161.731 66.0928C161.761 66.0322 161.822 65.9109 161.822 65.7896ZM156.88 65.8199V60.8176C156.88 60.666 156.82 60.5447 156.729 60.4537C156.638 60.3628 156.516 60.3022 156.365 60.3022C156.213 60.3022 156.092 60.3628 156.001 60.4537C155.91 60.5447 155.849 60.666 155.849 60.8176V65.8199C155.849 65.9715 155.91 66.0928 156.001 66.1837C156.092 66.2747 156.213 66.3353 156.365 66.3353C156.516 66.3353 156.638 66.2747 156.729 66.1837C156.82 66.0928 156.88 65.9715 156.88 65.8199ZM157.001 58.4528C157.001 58.2709 156.941 58.1193 156.82 57.998C156.698 57.8768 156.547 57.8161 156.365 57.8161C156.183 57.8161 156.031 57.8768 155.91 57.998C155.789 58.1193 155.728 58.2709 155.728 58.4528C155.728 58.6347 155.789 58.756 155.91 58.8772C156.031 58.9985 156.183 59.0591 156.365 59.0591C156.547 59.0591 156.698 58.9985 156.82 58.8772C156.941 58.7863 157.001 58.6347 157.001 58.4528ZM154.121 65.8199V62.4244C154.121 60.9995 153.485 60.2718 152.211 60.2718C151.423 60.2718 150.817 60.5144 150.362 60.9691C150.301 60.8479 150.241 60.6963 150.119 60.575C149.907 60.4234 149.695 60.3325 149.483 60.3325C149.149 60.3325 148.967 60.4841 148.967 60.7872C148.967 60.9388 149.028 61.0601 149.18 61.1207C149.301 61.1814 149.392 61.2723 149.452 61.3633C149.513 61.4542 149.543 61.6361 149.543 61.8484V65.7896C149.543 65.9412 149.604 66.0625 149.695 66.1534C149.786 66.2444 149.907 66.305 150.059 66.305C150.21 66.305 150.332 66.2444 150.423 66.1534C150.514 66.0625 150.574 65.9412 150.574 65.7896V61.9696C150.877 61.4845 151.362 61.242 151.999 61.242C152.424 61.242 152.696 61.3633 152.878 61.5755C153.03 61.7877 153.121 62.0909 153.121 62.5153V65.8199C153.121 65.9715 153.181 66.0928 153.272 66.1837C153.363 66.2747 153.485 66.3353 153.636 66.3353C153.788 66.3353 153.909 66.2747 154 66.1837C154.061 66.0928 154.121 65.9715 154.121 65.8199ZM147.391 65.8503V58.1799C147.391 58.0283 147.33 57.9071 147.239 57.8161C147.148 57.7252 147.027 57.6646 146.875 57.6646C146.724 57.6646 146.603 57.7252 146.512 57.8161C146.421 57.9071 146.36 58.0587 146.36 58.1799V65.8503C146.36 66.0018 146.421 66.1231 146.512 66.214C146.603 66.305 146.724 66.3656 146.875 66.3656C147.027 66.3656 147.148 66.305 147.239 66.214C147.33 66.1231 147.391 66.0018 147.391 65.8503ZM141.661 60.9691C141.721 60.7872 141.691 60.6357 141.6 60.4841C141.479 60.3628 141.358 60.2718 141.176 60.2718C140.933 60.2718 140.782 60.3931 140.721 60.6053L139.266 64.9104C138.75 63.5158 138.235 62.0909 137.75 60.6053C137.689 60.3628 137.538 60.2415 137.295 60.2415C137.144 60.2415 136.992 60.3022 136.901 60.4234C136.81 60.5447 136.78 60.6963 136.81 60.8782C137.265 62.3031 137.901 64.0615 138.781 66.1837C138.538 66.6385 138.296 66.9417 138.023 67.0933C137.75 67.2752 137.447 67.3661 137.113 67.3661C136.962 67.3661 136.84 67.4268 136.749 67.5177C136.658 67.6087 136.628 67.7299 136.628 67.8512C136.628 68.0028 136.689 68.1241 136.78 68.215C136.871 68.306 137.022 68.3666 137.174 68.3363C137.871 68.306 138.447 68.0634 138.872 67.6087C139.326 67.1539 139.721 66.396 140.054 65.3955L141.661 60.9691ZM133.172 65.1226C132.748 65.1226 132.414 65.0014 132.232 64.7588C132.05 64.5163 131.959 64.1525 131.959 63.6674V62.6669C131.959 61.6665 132.384 61.1814 133.172 61.1814C133.627 61.1814 134.051 61.3633 134.415 61.7574V64.6376C134.112 64.9407 133.687 65.1226 133.172 65.1226ZM134.445 65.8806C134.445 66.4263 134.324 66.8507 134.081 67.1236C133.839 67.3964 133.475 67.548 132.96 67.548C132.657 67.548 132.384 67.4874 132.141 67.3964C131.868 67.3055 131.717 67.2448 131.686 67.2448C131.565 67.2448 131.444 67.2752 131.383 67.3661L131.262 67.6693C131.262 67.8815 131.414 68.0634 131.747 68.1847C132.111 68.3363 132.535 68.3969 133.051 68.3969C133.869 68.3969 134.506 68.1544 134.9 67.6996C135.294 67.2448 135.506 66.6082 135.506 65.8199V60.7872C135.506 60.6357 135.446 60.5144 135.355 60.4234C135.264 60.3325 135.143 60.2718 134.991 60.2718C134.839 60.2718 134.718 60.3325 134.627 60.4234C134.536 60.5144 134.476 60.6357 134.476 60.7872C134.051 60.4234 133.566 60.2718 133.051 60.2718C131.656 60.2718 130.959 61.0904 130.959 62.7579V63.5158C130.959 64.3041 131.11 64.9104 131.444 65.3349C131.747 65.7593 132.293 65.9715 133.02 65.9715C133.536 65.9715 134.021 65.8199 134.445 65.5168V65.8806ZM128.473 63.9099C128.473 64.9104 128.018 65.3955 127.139 65.3955C126.26 65.3955 125.805 64.9104 125.805 63.9099V62.7275C125.805 61.7271 126.26 61.242 127.139 61.242C128.018 61.242 128.473 61.7271 128.473 62.7275V63.9099ZM129.504 63.9099V62.6972C129.504 61.9696 129.322 61.3936 128.928 60.9388C128.533 60.4841 127.957 60.2718 127.169 60.2718C126.381 60.2718 125.805 60.4841 125.411 60.9388C125.017 61.3936 124.835 61.9696 124.835 62.6972V63.9099C124.835 64.6376 125.017 65.2136 125.411 65.6683C125.805 66.1231 126.381 66.3353 127.169 66.3353C127.957 66.3353 128.564 66.1231 128.928 65.6683C129.322 65.2136 129.504 64.6376 129.504 63.9099ZM123.683 65.8806C123.683 65.729 123.622 65.6077 123.47 65.5168C123.349 65.4561 123.258 65.3652 123.198 65.2742C123.137 65.1833 123.107 65.0014 123.107 64.7891V58.3012C123.107 58.1496 123.046 58.0283 122.955 57.9374C122.864 57.8464 122.743 57.7858 122.591 57.7858C122.44 57.7858 122.318 57.8464 122.227 57.9374C122.136 58.0283 122.076 58.1496 122.076 58.3012V64.971C122.076 65.4258 122.227 65.7896 122.531 66.0625C122.743 66.214 122.955 66.305 123.137 66.305C123.501 66.3353 123.683 66.1837 123.683 65.8806ZM119.469 63.9099C119.469 64.9104 119.014 65.3955 118.135 65.3955C117.922 65.3955 117.74 65.3652 117.559 65.3045L119.135 61.7574C119.347 61.9696 119.438 62.2728 119.438 62.7275V63.9099H119.469ZM118.711 61.333L117.134 64.8801C116.922 64.6679 116.831 64.3647 116.831 63.9402V62.7579C116.831 61.7574 117.286 61.2723 118.165 61.2723C118.377 61.242 118.559 61.2723 118.711 61.333ZM120.499 63.9099V62.6972C120.499 61.7877 120.226 61.1207 119.62 60.6963L119.832 60.2415C119.893 60.0596 119.863 59.908 119.681 59.8474C119.499 59.7868 119.347 59.8171 119.287 59.999L119.105 60.4234C118.832 60.3325 118.498 60.2718 118.135 60.2718C117.346 60.2718 116.77 60.4841 116.376 60.9388C115.982 61.3936 115.8 61.9696 115.8 62.6972V63.9099C115.8 64.8195 116.103 65.4864 116.679 65.9109L116.467 66.3656V66.5779L116.619 66.7294C116.801 66.8204 116.922 66.7598 117.013 66.5779L117.225 66.1534C117.498 66.2444 117.831 66.305 118.165 66.305C118.953 66.305 119.559 66.0928 119.923 65.638C120.287 65.2136 120.499 64.6376 120.499 63.9099ZM114.224 65.8199V62.4244C114.224 60.9995 113.587 60.2718 112.314 60.2718C111.525 60.2718 110.919 60.5144 110.464 60.9691C110.404 60.8479 110.343 60.6963 110.222 60.575C110.009 60.4234 109.797 60.3325 109.585 60.3325C109.252 60.3325 109.07 60.4841 109.07 60.7872C109.07 60.9388 109.13 61.0601 109.282 61.1207C109.403 61.1814 109.494 61.2723 109.555 61.3633C109.615 61.4542 109.646 61.6361 109.646 61.8484V65.7896C109.646 65.9412 109.706 66.0625 109.797 66.1534C109.888 66.2444 110.009 66.305 110.161 66.305C110.313 66.305 110.434 66.2444 110.525 66.1534C110.616 66.0625 110.676 65.9412 110.676 65.7896V61.9696C110.98 61.4845 111.465 61.242 112.101 61.242C112.526 61.242 112.799 61.3633 112.981 61.5755C113.132 61.7877 113.223 62.0909 113.223 62.5153V65.8199C113.223 65.9715 113.284 66.0928 113.375 66.1837C113.466 66.2747 113.587 66.3353 113.739 66.3353C113.89 66.3353 114.011 66.2747 114.102 66.1837C114.163 66.0928 114.224 65.9715 114.224 65.8199ZM107.766 65.8199V62.4244C107.766 60.9995 107.129 60.2718 105.856 60.2718C105.189 60.2718 104.643 60.4537 104.219 60.8176V58.3012C104.219 58.1496 104.158 58.0283 104.067 57.9374C103.976 57.8464 103.855 57.7858 103.703 57.7858C103.552 57.7858 103.431 57.8464 103.34 57.9374C103.249 58.0283 103.188 58.1496 103.188 58.3012V65.7896C103.188 65.9412 103.249 66.0625 103.34 66.1534C103.431 66.2444 103.552 66.305 103.703 66.305C103.855 66.305 103.976 66.2444 104.067 66.1534C104.158 66.0625 104.219 65.9412 104.219 65.7896V61.9696C104.522 61.4845 104.977 61.242 105.644 61.242C106.068 61.242 106.341 61.3633 106.523 61.5755C106.675 61.7877 106.766 62.0909 106.766 62.5153V65.8199C106.766 65.9715 106.826 66.0928 106.917 66.1837C107.008 66.2747 107.129 66.3353 107.281 66.3353C107.432 66.3353 107.554 66.2747 107.645 66.1837C107.705 66.0928 107.766 65.9715 107.766 65.8199ZM101.763 61.2117C101.884 60.9691 101.824 60.7872 101.581 60.6357C101.217 60.4234 100.732 60.3022 100.126 60.3022C99.3984 60.3022 98.8223 60.5447 98.4282 61.0601C98.0341 61.5452 97.8219 62.1818 97.8219 62.9398V63.7583C97.8219 64.5466 98.0038 65.1833 98.3979 65.638C98.792 66.1231 99.3681 66.3353 100.126 66.3353C100.702 66.3353 101.187 66.2141 101.581 66.0018L101.793 65.7593C101.824 65.6683 101.824 65.5471 101.793 65.4258L101.551 65.2136H101.217C100.884 65.3652 100.55 65.4561 100.156 65.4561C99.7016 65.4561 99.3681 65.3045 99.1558 65.0317C98.9436 64.7285 98.8223 64.3344 98.8223 63.7887V62.8488C98.8223 62.3334 98.9436 61.9393 99.1862 61.6361C99.4287 61.333 99.7622 61.1814 100.187 61.1814C100.581 61.1814 100.914 61.2723 101.187 61.4239L101.521 61.4542L101.763 61.2117ZM95.3965 62.6063V62.8185H92.8195V62.6063C92.8195 61.6058 93.2439 61.1207 94.1231 61.1207C94.972 61.1207 95.3965 61.6058 95.3965 62.6063ZM96.3969 62.7579C96.3969 61.9999 96.215 61.4239 95.8512 60.9691C95.4874 60.5144 94.9114 60.3022 94.0928 60.3022C93.3349 60.3022 92.7589 60.5447 92.3647 60.9995C91.9706 61.4542 91.7887 62.0606 91.7887 62.7882V63.8796C91.7887 64.6072 91.9706 65.2136 92.3647 65.6683C92.7285 66.1231 93.3046 66.3656 94.0928 66.3656C94.6689 66.3656 95.1842 66.2747 95.5784 66.1231C95.9725 65.9715 96.1847 65.7896 96.1847 65.5471C96.1847 65.4258 96.1544 65.3349 96.0938 65.2439L95.8209 65.1226L95.6693 65.1529L95.4571 65.2439L95.2449 65.3349C94.9417 65.4561 94.6082 65.4864 94.2141 65.4864C93.7593 65.4864 93.4258 65.3652 93.2136 65.0923C93.0014 64.8195 92.8801 64.4556 92.8801 63.9706V63.6674H96.0028L96.2757 63.5461L96.3969 63.2733V62.7579ZM91.7887 58.2406C91.7887 58.089 91.7281 57.9677 91.6371 57.8768C91.5462 57.7858 91.4249 57.7252 91.2733 57.7252H85.8162C85.6646 57.7252 85.5433 57.7858 85.4524 57.8768C85.3614 57.9677 85.3008 58.089 85.3008 58.2406C85.3008 58.3922 85.3614 58.5134 85.4524 58.6044C85.5433 58.6953 85.6646 58.756 85.8162 58.756H88.0293V65.8503C88.0293 66.0018 88.09 66.1231 88.1809 66.214C88.2719 66.305 88.4235 66.3656 88.5447 66.3656C88.6963 66.3656 88.8176 66.305 88.9085 66.214C88.9995 66.1231 89.0601 66.0018 89.0601 65.8503V58.756H91.2733C91.4249 58.756 91.5462 58.6953 91.6371 58.6044C91.7584 58.5134 91.7887 58.3922 91.7887 58.2406Z" fill="#201600"/>
<path d="M138.358 31.3481H85.7266V32.5305H138.358V31.3481Z" fill="#D14A43"/>
</svg>
