<svg width="97" height="75" viewBox="0 0 97 75" fill="none" xmlns="http://www.w3.org/2000/svg">
<path fill-rule="evenodd" clip-rule="evenodd" d="M0 1.91524H12.3356V4.90193L0 19.8536V1.91524ZM0 25.8087L12.3356 10.8389V49.7022H0V25.8087ZM53.4908 30.6165L53.3088 31.1265L53.0905 31.6182L52.854 32.1099L52.6174 32.5652L52.3445 33.0387L52.0716 33.494L51.7623 33.931L51.1073 34.7688L50.7616 35.1694L50.3978 35.5701L50.0339 35.9343L49.6154 36.2985L49.2151 36.6445L48.7967 36.9906L47.9234 37.6098L47.4685 37.8829L46.9773 38.1561L46.5042 38.3928L46.013 38.6478L45.5217 38.8663L44.9941 39.0485L44.4847 39.2306L43.9388 39.3945L43.4112 39.522L42.8654 39.6494L42.3014 39.7405L41.7555 39.8133L41.1733 39.868L40.6093 39.9044L40.0271 39.9226L39.2993 39.9044L38.5716 39.8498L37.8802 39.7587L37.1706 39.6312L36.4792 39.4855L35.8243 39.2852L35.1693 39.0667L34.5143 38.8117L33.8957 38.5385L33.2771 38.2289L32.6767 37.9011L32.1127 37.5369L31.5486 37.1363L31.0028 36.7174L30.4752 36.2803L29.9839 35.825L29.5291 35.3333L29.0742 34.8234L28.6558 34.2953L28.2555 33.7489L27.8916 33.2026L27.5277 32.6198L27.2184 32.0006L26.9273 31.3996L26.6726 30.7622L26.4543 30.1248L26.2541 29.451L26.0904 28.7772L25.9812 28.1034L25.8903 27.4113L25.8175 26.7193L25.7993 26.009L25.8175 25.2806L25.8903 24.5885L25.9812 23.8783L26.0904 23.1863L26.2541 22.5124L26.4543 21.8568L26.6726 21.2194L26.9273 20.582L27.2184 19.9628L27.5277 19.3436L27.8916 18.7609L28.2555 18.1963L28.6558 17.65L29.0742 17.1218L29.5291 16.6119L29.9839 16.1384L30.4752 15.6649L31.0028 15.2278L31.5486 14.809L32.1127 14.4265L32.6767 14.0623L33.2771 13.7345L33.8957 13.4067L34.5143 13.1335L35.1693 12.8786L35.8243 12.66L36.4792 12.4779L37.1706 12.314L37.8802 12.1865L38.5716 12.1137L39.2993 12.0408L40.0271 12.0226L40.5729 12.0408L41.6646 12.1137L42.2104 12.1865L42.738 12.2776L43.7933 12.5325L44.3027 12.6782L44.794 12.8603L45.2852 13.0242L45.7764 13.2428L46.2495 13.4613L46.7043 13.6981L47.1774 13.9348L47.6323 14.208L48.0689 14.4812L48.4874 14.7908L48.8876 15.1004L49.2879 15.4282L49.6882 15.7742L50.0703 16.1202L50.4341 16.4844L50.7798 16.8669L51.1073 17.2675L51.4348 17.65L51.7623 18.0688L52.0534 18.4877L52.3263 18.943L52.8358 19.8171L53.0723 20.2906L53.2906 20.7641H65.9901L65.7172 19.6714L65.4261 18.597L65.0622 17.5225L64.6802 16.4844L64.2435 15.4828L63.7523 14.4812L63.2428 13.516L62.6788 12.569L62.0784 11.6584L61.4416 10.7478L60.7502 9.89187L60.0407 9.05414L59.2947 8.25284L58.5305 7.46975L57.6936 6.74129L56.8567 6.03104L55.9834 5.339L55.0918 4.7016L54.1639 4.10062L53.1997 3.55428L52.2172 3.00793L51.1983 2.53443L50.1794 2.07915L49.1242 1.67849L48.0507 1.33247L46.9409 1.00467L45.8492 0.749707L44.703 0.512957L43.5568 0.349054L42.3923 0.221574L41.2097 0.130516L40.0271 0.112305L38.6625 0.148728L37.3162 0.257997L35.988 0.4219L34.6962 0.640438L33.4226 0.931822L32.1672 1.27784L30.93 1.67849L29.7292 2.15199L28.5648 2.66191L27.4186 3.24468L26.3087 3.86387L25.2353 4.5377L24.1982 5.24794L23.1975 6.03104L22.2332 6.83234L21.3053 7.70649L20.432 8.59886L19.5951 9.52764L18.8127 10.5111L18.0668 11.5309L17.3754 12.569L16.7386 13.6617L16.1564 14.7726L15.6288 15.9199L15.1557 17.1036L14.7373 18.3056L14.3734 19.5257L14.0823 20.7823L13.8457 22.0571L13.682 23.3502L13.5728 24.6796L13.5364 26.009L13.5728 27.3385L13.682 28.6315L13.8457 29.9245L14.0823 31.1993L14.3734 32.4377L14.7373 33.6579L15.1557 34.878L15.6288 36.0436L16.1564 37.1727L16.7386 38.2836L17.3754 39.3763L18.0668 40.4325L18.8127 41.4524L19.5951 42.4176L20.432 43.3646L21.3053 44.257L22.2332 45.0947L23.1975 45.9324L24.1982 46.6791L25.2353 47.4075L26.3087 48.0996L27.4186 48.7188L28.5648 49.2833L29.7292 49.8115L30.93 50.2667L32.1672 50.6674L33.4226 51.0134L34.6962 51.3048L35.988 51.5415L37.3162 51.7054L38.6625 51.7965L40.0271 51.8329L41.2279 51.8147L42.4287 51.7419L43.6295 51.5962L44.7758 51.4141L45.9402 51.1955L47.0682 50.9224L49.2515 50.2303L50.3432 49.8115L51.3802 49.338L52.3809 48.828L53.3816 48.2999L54.3459 47.7171L55.292 47.0979L56.2017 46.4423L57.0932 45.7503L57.9301 45.0218L58.7671 44.257L59.5312 43.4556L60.2954 42.6179L61.0049 41.7802L61.6781 40.8696L62.3149 39.959L62.9153 39.012L63.4793 38.0468L63.9888 37.0452L64.4618 36.0436L64.8985 35.0055L65.2806 33.931L65.6081 32.8383L65.8992 31.7457L66.1539 30.6165H53.4908ZM66.6451 1.91524H78.908V38.1925H95.8103L86.4403 49.7568H66.6451V1.91524Z" fill="#FF0000"/>
<path d="M7.89794 65.4888V65.1199C7.89794 62.6887 6.60687 61.4479 4.30977 61.4479C2.21388 61.4479 0.738375 62.5881 0.738375 64.5834C0.738375 65.8912 1.34199 66.914 2.54923 67.7021L4.59482 69.0435C5.44994 69.5968 5.85235 70.0663 5.85235 70.8543C5.85235 71.6088 5.3661 72.2124 4.49421 72.2124C3.62232 72.2124 2.8175 71.7765 2.8175 70.083V69.6135H0.621005V70.083C0.621005 72.5646 1.92884 74.0568 4.49421 74.0568C6.90868 74.0568 8.21652 72.7825 8.21652 70.6531C8.21652 68.8423 7.42846 68.1045 6.15416 67.2494L3.80676 65.69C3.32051 65.3715 3.03547 65.0361 3.03547 64.3151C3.03547 63.6444 3.60555 63.2923 4.25947 63.2923C5.1649 63.2923 5.70145 63.8792 5.70145 65.3547V65.4888H7.89794Z" fill="#FF0000"/>
<path d="M14.3103 61.6659V73.7718H20.7824V71.9274H16.6074V68.1716H20.4136V66.3272H16.6074V63.5103H20.7824V61.6659H14.3103Z" fill="#FF0000"/>
<path d="M29.2109 68.641H30.8876C31.944 68.641 32.2626 69.4794 32.2626 70.4016V71.7933C32.2626 72.5646 32.3632 73.4029 32.8159 73.7718H35.113V73.4029C34.5764 73.4029 34.5596 72.4807 34.5596 71.3741V69.8315C34.5596 68.9596 34.2243 67.9368 32.8997 67.6686C33.9728 67.5176 34.7273 66.5955 34.7273 64.8014C34.7273 63.0576 33.5536 61.6659 31.6925 61.6659H26.9138V73.7718H29.2109V68.641ZM29.2109 63.46H30.7032C31.726 63.46 32.3799 63.8121 32.3799 65.1367C32.3799 66.5116 31.5751 66.914 30.7535 66.914H29.2109V63.46Z" fill="#FF0000"/>
<path d="M40.3702 61.6659L42.9356 73.7718H46.2387L48.6029 61.6659H46.2387L44.5956 71.743H44.562L42.8015 61.6659H40.3702Z" fill="#FF0000"/>
<path d="M56.7431 61.6659H54.446V73.7718H56.7431V61.6659Z" fill="#FF0000"/>
<path d="M70.4302 65.6062V65.0026C70.4302 62.7725 69.1559 61.4479 66.8085 61.4479C64.3102 61.4479 63.0359 62.7725 63.0359 65.6062V70.016C63.0359 72.1621 63.7569 74.0568 66.7749 74.0568C69.6421 74.0568 70.4302 72.1789 70.4302 69.9824V69.4626H68.1331V70.1166C68.1331 71.6759 67.6804 72.2124 66.7582 72.2124C65.7857 72.2124 65.3833 71.6927 65.3833 70.1166V65.3379C65.3833 63.8121 65.8025 63.2923 66.7749 63.2923C67.7474 63.2923 68.1331 63.8121 68.1331 65.3379V65.6062H70.4302Z" fill="#FF0000"/>
<path d="M76.722 61.6659V73.7718H83.1942V71.9274H79.0191V68.1716H82.8253V66.3272H79.0191V63.5103H83.1942V61.6659H76.722Z" fill="#FF0000"/>
<path d="M96.3845 65.4888V65.1199C96.3845 62.6887 95.0934 61.4479 92.7963 61.4479C90.7005 61.4479 89.2249 62.5881 89.2249 64.5834C89.2249 65.8912 89.8286 66.914 91.0358 67.7021L93.0814 69.0435C93.9365 69.5968 94.3389 70.0663 94.3389 70.8543C94.3389 71.6088 93.8527 72.2124 92.9808 72.2124C92.1089 72.2124 91.3041 71.7765 91.3041 70.083V69.6135H89.1076V70.083C89.1076 72.5646 90.4154 74.0568 92.9808 74.0568C95.3953 74.0568 96.7031 72.7825 96.7031 70.6531C96.7031 68.8423 95.915 68.1045 94.6407 67.2494L92.2933 65.69C91.8071 65.3715 91.522 65.0361 91.522 64.3151C91.522 63.6444 92.0921 63.2923 92.746 63.2923C93.6515 63.2923 94.188 63.8792 94.188 65.3547V65.4888H96.3845Z" fill="#FF0000"/>
</svg>
