<svg width="149" height="44" viewBox="0 0 149 44" fill="none" xmlns="http://www.w3.org/2000/svg">
<path opacity="0.9" d="M0 5.59229V42.3727H3.77286V5.59229H0Z" fill="black"/>
<path opacity="0.9" d="M103.587 9.16824V5.59229H80.6914V42.3727H103.587V38.7969H84.4641V25.7705H100.486V22.1946H84.4641V9.16824H103.587Z" fill="black"/>
<path opacity="0.9" d="M145.021 42.3727H149L136.182 5.59229H131.118L118.301 42.3727H122.28L124.812 35.1188H142.488L145.021 42.3727ZM126.053 31.594L133.598 9.83226L141.247 31.594H126.053Z" fill="black"/>
<path d="M41.7076 6.20463C43.216 6.20463 44.4388 4.99603 44.4388 3.50514C44.4388 2.01426 43.216 0.805664 41.7076 0.805664C40.1993 0.805664 38.9766 2.01426 38.9766 3.50514C38.9766 4.99603 40.1993 6.20463 41.7076 6.20463Z" fill="#FFA800"/>
<path d="M37.3238 7.64404L21.8789 34.0852L25.0282 35.8824L40.4731 9.44126L37.3238 7.64404Z" fill="#FFA800"/>
<path d="M46.9149 7.64404L62.3598 34.0852L59.2105 35.8824L43.7656 9.44125L46.9149 7.64404Z" fill="#0099DC"/>
<path d="M57.6157 42.6943H26.668V39.0999H57.6157V42.6943Z" fill="#FF8282"/>
<path d="M19.8249 43.8152C21.3332 43.8152 22.556 42.6066 22.556 41.1158C22.556 39.6248 21.3332 38.4163 19.8249 38.4163C18.3165 38.4163 17.0938 39.6248 17.0938 41.1158C17.0938 42.6066 18.3165 43.8152 19.8249 43.8152Z" fill="#FF8282"/>
<path d="M63.5905 43.8152C65.0989 43.8152 66.3217 42.6066 66.3217 41.1158C66.3217 39.6248 65.0989 38.4163 63.5905 38.4163C62.0822 38.4163 60.8594 39.6248 60.8594 41.1158C60.8594 42.6066 62.0822 43.8152 63.5905 43.8152Z" fill="#0099DC"/>
</svg>
