<svg width="105" height="70" viewBox="0 0 105 70" fill="none" xmlns="http://www.w3.org/2000/svg">
<path d="M68.5062 20.9506H72.4789C71.7655 20.1321 71.0101 19.3552 70.1988 18.6338H65.5547C66.6038 19.3274 67.597 20.1043 68.5062 20.9506Z" fill="#00A5E1"/>
<path d="M73.8268 52.9358H70.1759C69.4485 53.7543 68.6791 54.5312 67.8398 55.2526H71.9384C72.6099 54.5173 73.2393 53.7404 73.8268 52.9358Z" fill="#00A5E1"/>
<path d="M34.9048 52.9358H31.2539C31.8414 53.7404 32.4709 54.5173 33.1423 55.2526H37.2269C36.4016 54.5312 35.6182 53.7543 34.9048 52.9358Z" fill="#00A5E1"/>
<path d="M27.7198 52.9358H24.3906C24.8243 53.7266 25.2999 54.5035 25.8034 55.2526H29.3285C28.769 54.5035 28.2234 53.7266 27.7198 52.9358Z" fill="#FF7319"/>
<path d="M81.1225 52.9358H77.8352C77.3316 53.7404 76.8001 54.5035 76.2266 55.2526H79.7096C80.2132 54.4896 80.6888 53.7266 81.1225 52.9358Z" fill="#FF7319"/>
<path d="M26.7929 18.6338C26.2194 19.3829 25.6738 20.146 25.1562 20.9506H28.6253C29.2128 20.146 29.8423 19.3691 30.5138 18.6338H26.7929Z" fill="#FF7319"/>
<path d="M20.3455 18.6338C19.8839 19.3829 19.4643 20.1598 19.0586 20.9506H22.3179C22.7655 20.1598 23.2411 19.3829 23.7587 18.6338H20.3455Z" fill="#FFCE2E"/>
<path d="M21.4683 52.9358H18.293C18.6427 53.7266 19.0343 54.4896 19.44 55.2526H22.7273C22.2656 54.4896 21.86 53.7127 21.4683 52.9358Z" fill="#FFCE2E"/>
<path d="M87.5062 52.9358H84.3309C83.9392 53.7266 83.5336 54.4896 83.0859 55.2526H86.3732C86.7649 54.4896 87.1565 53.7127 87.5062 52.9358Z" fill="#FFCE2E"/>
<path d="M81.5625 18.6338C82.0801 19.3829 82.5557 20.1598 83.0033 20.9506H86.2626C85.8569 20.1598 85.4233 19.3968 84.9756 18.6338H81.5625Z" fill="#FFCE2E"/>
<path d="M73.0852 54.4597C68.2313 60.3974 60.8455 64.1848 52.5644 64.1848C44.4092 64.1848 36.9395 60.5223 32.0156 54.4597H35.8624C40.1848 58.7881 46.1438 61.3408 52.5644 61.3408C59.069 61.3408 64.972 58.7049 69.2385 54.4597H73.0852Z" fill="#00A5E1"/>
<path d="M71.1572 19.6811C66.3592 14.8117 59.6728 11.7734 52.273 11.7734C46.4958 11.7734 40.9984 13.5908 36.3963 17.0314C35.7668 17.503 35.6409 18.3909 36.1165 19.0291C36.5921 19.6534 37.4874 19.7782 38.1308 19.3066C42.2294 16.2406 47.1253 14.6174 52.273 14.6174C57.7844 14.6174 62.8761 16.5042 66.8907 19.6811H71.1572Z" fill="#00A5E1"/>
<path d="M72.9672 54.0791C76.6321 49.5842 78.8422 43.8684 78.8422 37.6533C78.8422 30.5641 75.9746 24.1131 71.3445 19.3962H67.0781C72.5056 23.6692 75.9747 30.2589 75.9747 37.6533C75.9747 44.0627 73.3588 49.8616 69.1204 54.0791H72.9672Z" fill="url(#paint0_linear)"/>
<path d="M36.0286 53.7955C33.9024 51.659 32.1679 49.0925 30.9649 46.193C30.6711 45.4716 29.8318 45.1248 29.0905 45.4161C28.3631 45.7075 28.0134 46.5398 28.3071 47.2751C29.3003 49.6752 30.6152 51.8532 32.1819 53.7955H36.0286Z" fill="url(#paint1_linear)"/>
<path d="M80.1861 53.6985C78.0459 57.2223 75.2203 60.316 71.8072 62.8409C66.2398 66.9473 59.6094 69.1115 52.6572 69.1115C41.005 69.1115 30.7795 62.9241 25.1562 53.6985H28.5694C33.857 61.2871 42.6836 66.2675 52.6572 66.2675C62.5329 66.2675 71.4435 61.4397 76.787 53.6985H80.1861Z" fill="#FF7319"/>
<path d="M30.2747 19.2576C35.6462 12.7095 43.8293 8.51977 52.9916 8.51977C59.776 8.51977 66.3784 10.8643 71.5961 15.1373C72.2115 15.6367 73.1068 15.5535 73.6104 14.943C74.114 14.3326 74.03 13.4447 73.4145 12.9453C67.6933 8.25618 60.4334 5.67578 52.9916 5.67578C42.1228 5.67578 32.4988 11.0586 26.6797 19.2714L30.2747 19.2576Z" fill="#FF7319"/>
<path d="M80.4053 53.9526C81.6922 51.83 82.7274 49.5687 83.4967 47.1686C83.7345 46.4195 83.3149 45.6148 82.5595 45.379C81.8042 45.1431 80.9928 45.5593 80.755 46.3085C79.8598 49.0831 78.5869 51.6497 76.9922 53.9665L80.4053 53.9526Z" fill="url(#paint2_linear)"/>
<path d="M28.6253 54.0791C25.366 49.4038 23.4636 43.7436 23.4636 37.6533C23.4636 30.7445 25.9116 24.3906 29.9961 19.3962H26.4012C22.7362 24.5709 20.582 30.8693 20.582 37.6533C20.582 43.6604 22.2746 49.279 25.1982 54.0791H28.6253Z" fill="url(#paint3_linear)"/>
<path d="M21.5306 54.08C18.8168 49.0996 17.3481 43.4532 17.3481 37.6543C17.3481 30.9674 19.2645 24.7106 22.5937 19.3972H19.2645C16.215 24.8077 14.4805 31.0229 14.4805 37.6543C14.4805 43.4255 15.8233 49.0302 18.3133 54.08H21.5306Z" fill="url(#paint4_linear)"/>
<path d="M85.6534 19.3962C88.7028 24.8068 90.4374 31.0219 90.4374 37.6533C90.4374 43.4245 89.0945 49.0293 86.6046 54.0791H83.3873C86.101 49.0986 87.5698 43.4523 87.5698 37.6533C87.5698 30.9664 85.6534 24.7097 82.3242 19.3962H85.6534Z" fill="url(#paint5_linear)"/>
<path d="M21.5103 54.4602C24.0561 59.1493 27.6931 63.2697 32.2113 66.4189C32.8548 66.8767 33.0086 67.7507 32.561 68.4027C32.2813 68.7912 31.8336 69.0131 31.386 69.0131C31.1062 69.0131 30.8125 68.9299 30.5607 68.7495C25.2451 65.0454 21.0626 60.1066 18.293 54.4741L21.5103 54.4602Z" fill="#FFCE2E"/>
<path d="M22.3839 19.6096C28.5667 9.7597 39.5895 3.18384 52.123 3.18384C64.6565 3.18384 75.6933 9.7597 81.8621 19.6096H85.1913C78.7147 8.12267 66.3211 0.339844 52.123 0.339844C37.9249 0.339844 25.5313 8.12267 19.0547 19.6096H22.3839Z" fill="#FFCE2E"/>
<path d="M86.1443 54.4741C83.3886 60.0927 79.2061 65.0177 73.9186 68.7218C73.2751 69.1796 72.3798 69.027 71.9182 68.375C71.4566 67.7368 71.6105 66.8489 72.2679 66.3911C76.7722 63.2419 80.3811 59.1355 82.927 54.4602L86.1443 54.4741Z" fill="#FFCE2E"/>
<path d="M3.28725 46.621H0V27.7812H3.28725V46.621Z" fill="black"/>
<path d="M21.9287 46.6207H18.6274L10.1645 33.2609V46.6207H6.86328V27.781H10.1645L18.6554 41.1963V27.781H21.9287V46.6207Z" fill="black"/>
<path d="M36.1091 38.6437H28.4575V46.6207H25.1562V27.781H37.2281V30.4169H28.4575V36.0216H36.1091V38.6437Z" fill="black"/>
<path d="M54.6258 37.9639C54.6258 39.809 54.3041 41.4322 53.6606 42.8195C53.0172 44.2068 52.094 45.2889 50.9049 46.0242C49.702 46.7733 48.3311 47.1479 46.7784 47.1479C45.2397 47.1479 43.8688 46.7733 42.6658 46.0242C41.4628 45.275 40.5256 44.2207 39.8682 42.8334C39.2107 41.4599 38.875 39.8645 38.875 38.061V37.0066C38.875 35.1754 39.1967 33.5522 39.8542 32.1372C40.5116 30.736 41.4349 29.6539 42.6379 28.9047C43.8408 28.1556 45.2117 27.781 46.7504 27.781C48.3031 27.781 49.674 28.1556 50.863 28.8909C52.066 29.6261 52.9892 30.6944 53.6327 32.0678C54.2901 33.4551 54.6119 35.0644 54.6258 36.8957V37.9639ZM51.3106 36.9928C51.3106 34.9118 50.9189 33.3025 50.1216 32.1927C49.3243 31.0828 48.1912 30.5279 46.7364 30.5279C45.3096 30.5279 44.1906 31.0828 43.3932 32.1927C42.5819 33.3025 42.1762 34.8702 42.1623 36.8957V37.9778C42.1623 40.0449 42.5679 41.6541 43.3792 42.7779C44.1906 43.9016 45.3236 44.4704 46.7644 44.4704C48.2332 44.4704 49.3522 43.9155 50.1356 42.8195C50.9189 41.7096 51.3106 40.1003 51.3106 37.9778V36.9928Z" fill="black"/>
<path d="M60.4731 39.6287V46.6207H57.1719V27.781H64.4458C66.572 27.781 68.2506 28.3359 69.5095 29.4319C70.7545 30.5279 71.384 31.9846 71.384 33.7881C71.384 35.6332 70.7685 37.076 69.5515 38.1026C68.3345 39.1292 66.614 39.6425 64.4178 39.6425H60.4731V39.6287ZM60.4731 36.9928H64.4458C65.6208 36.9928 66.516 36.7153 67.1315 36.1743C67.747 35.6332 68.0548 34.8286 68.0548 33.8019C68.0548 32.7892 67.747 31.9707 67.1175 31.3603C66.4881 30.7499 65.6348 30.4446 64.5297 30.4169H60.4731V36.9928Z" fill="black"/>
<path d="M80.9216 39.3789H77.2426V46.6207H73.9414V27.781H80.6138C82.81 27.781 84.5026 28.2666 85.6916 29.2377C86.8806 30.2088 87.4821 31.6239 87.4821 33.469C87.4821 34.7314 87.1743 35.7858 86.5588 36.6321C85.9434 37.4783 85.0901 38.1304 83.999 38.5882L88.2654 46.4265V46.593H84.7264L80.9216 39.3789ZM77.2287 36.7292H80.6278C81.7469 36.7292 82.6141 36.4517 83.2436 35.8968C83.8731 35.3419 84.1808 34.5788 84.1808 33.6077C84.1808 32.595 83.8871 31.8181 83.3136 31.2632C82.74 30.7082 81.8728 30.4308 80.7257 30.403H77.2426V36.7292H77.2287Z" fill="black"/>
<path d="M104.938 37.9639C104.938 39.809 104.617 41.4322 103.973 42.8195C103.33 44.2068 102.406 45.2889 101.217 46.0242C100.014 46.7733 98.6436 47.1479 97.0909 47.1479C95.5522 47.1479 94.1813 46.7733 92.9783 46.0242C91.7753 45.275 90.8381 44.2207 90.1807 42.8334C89.5232 41.4599 89.1875 39.8645 89.1875 38.061V37.0066C89.1875 35.1754 89.5092 33.5522 90.1667 32.1372C90.8241 30.736 91.7474 29.6539 92.9503 28.9047C94.1533 28.1556 95.5242 27.781 97.0629 27.781C98.6156 27.781 99.9864 28.1556 101.175 28.8909C102.378 29.6261 103.302 30.6944 103.945 32.0678C104.603 33.4551 104.924 35.0644 104.938 36.8957V37.9639ZM101.637 36.9928C101.637 34.9118 101.245 33.3025 100.448 32.1927C99.6507 31.0828 98.5177 30.5279 97.0629 30.5279C95.6361 30.5279 94.517 31.0828 93.7197 32.1927C92.9084 33.3025 92.5027 34.8702 92.4887 36.8957V37.9778C92.4887 40.0449 92.8944 41.6541 93.7057 42.7779C94.517 43.9016 95.6501 44.4704 97.0909 44.4704C98.5596 44.4704 99.6787 43.9155 100.462 42.8195C101.245 41.7096 101.637 40.1003 101.637 37.9778V36.9928Z" fill="black"/>
<defs>
<linearGradient id="paint0_linear" x1="72.9459" y1="54.0831" x2="72.9459" y2="19.4006" gradientUnits="userSpaceOnUse">
<stop offset="0.05" stop-color="#00A5E1"/>
<stop offset="0.4" stop-color="#00A5E1" stop-opacity="0"/>
<stop offset="0.6" stop-color="#00A5E1" stop-opacity="0"/>
<stop offset="0.95" stop-color="#00A5E1"/>
</linearGradient>
<linearGradient id="paint1_linear" x1="32.11" y1="53.7987" x2="32.11" y2="45.313" gradientUnits="userSpaceOnUse">
<stop offset="0.2" stop-color="#00A5E1"/>
<stop offset="1" stop-color="#00A5E1" stop-opacity="0"/>
</linearGradient>
<linearGradient id="paint2_linear" x1="80.2871" y1="53.9566" x2="80.2871" y2="45.3129" gradientUnits="userSpaceOnUse">
<stop offset="0.2" stop-color="#FF7319" stop-opacity="0.95"/>
<stop offset="1" stop-color="#FF7319" stop-opacity="0.2"/>
</linearGradient>
<linearGradient id="paint3_linear" x1="25.2948" y1="54.0821" x2="25.2948" y2="19.401" gradientUnits="userSpaceOnUse">
<stop offset="0.05" stop-color="#FF7319"/>
<stop offset="0.4" stop-color="#FF7319" stop-opacity="0"/>
<stop offset="0.6" stop-color="#FF7319" stop-opacity="0"/>
<stop offset="0.95" stop-color="#FF7319"/>
</linearGradient>
<linearGradient id="paint4_linear" x1="18.5336" y1="54.0842" x2="18.5336" y2="19.4011" gradientUnits="userSpaceOnUse">
<stop offset="0.05" stop-color="#FFCE2E"/>
<stop offset="0.4" stop-color="#FFCE2E" stop-opacity="0"/>
<stop offset="0.6" stop-color="#FFCE2E" stop-opacity="0"/>
<stop offset="0.95" stop-color="#FFCE2E"/>
</linearGradient>
<linearGradient id="paint5_linear" x1="86.3843" y1="54.083" x2="86.3843" y2="19.4001" gradientUnits="userSpaceOnUse">
<stop offset="0.05" stop-color="#FFCE2E"/>
<stop offset="0.4" stop-color="#FFCE2E" stop-opacity="0"/>
<stop offset="0.6" stop-color="#FFCE2E" stop-opacity="0"/>
<stop offset="0.95" stop-color="#FFCE2E"/>
</linearGradient>
</defs>
</svg>
