<svg width="191" height="51" viewBox="0 0 191 51" fill="none" xmlns="http://www.w3.org/2000/svg">
<path d="M79.1719 12.5028C77.977 14.2829 76.6603 16.0508 75.2215 17.8065C73.8072 19.5623 72.2709 21.318 70.6128 23.0737C71.3931 23.7321 72.2222 24.5002 73.1 25.3781C73.9779 26.2559 74.8314 27.2192 75.6605 28.2677C76.5139 29.2919 77.3065 30.3892 78.038 31.5597C78.7939 32.7302 79.428 33.925 79.94 35.1443H76.5383C75.9287 34.0226 75.2703 32.9252 74.5631 31.8523C73.856 30.7794 73.1 29.7796 72.2953 28.853C71.515 27.9263 70.6981 27.085 69.8446 26.3291C69.0155 25.5488 68.1743 24.8782 67.3208 24.3173V35.1443H64.3214V12.5028H67.3208V22.5982C68.9058 20.9644 70.4177 19.2574 71.8564 17.4773C73.3195 15.6972 74.5997 14.039 75.697 12.5028H79.1719ZM97.0949 26.6583C97.0949 27.9995 96.8998 29.2187 96.5097 30.3161C96.1439 31.389 95.6196 32.3156 94.9368 33.0959C94.2541 33.8763 93.4372 34.4859 92.4861 34.9248C91.5351 35.3394 90.4988 35.5466 89.377 35.5466C88.2797 35.5466 87.2555 35.3394 86.3045 34.9248C85.3779 34.4859 84.5732 33.8763 83.8904 33.0959C83.2076 32.3156 82.6712 31.389 82.281 30.3161C81.9152 29.2187 81.7323 27.9995 81.7323 26.6583C81.7323 25.3171 81.9152 24.0979 82.281 23.0005C82.6712 21.9032 83.2076 20.9766 83.8904 20.2207C84.5732 19.4403 85.3779 18.8429 86.3045 18.4284C87.2555 17.9894 88.2797 17.77 89.377 17.77C90.4988 17.77 91.5351 17.9894 92.4861 18.4284C93.4372 18.8429 94.2541 19.4403 94.9368 20.2207C95.6196 20.9766 96.1439 21.9032 96.5097 23.0005C96.8998 24.0979 97.0949 25.3171 97.0949 26.6583ZM93.9858 26.6583C93.9858 24.7319 93.5713 23.22 92.7422 22.1227C91.9131 21.001 90.7914 20.4401 89.377 20.4401C87.9871 20.4401 86.8776 21.001 86.0485 22.1227C85.2438 23.22 84.8414 24.7319 84.8414 26.6583C84.8414 28.5603 85.2438 30.0722 86.0485 31.1939C86.8776 32.2912 87.9871 32.8399 89.377 32.8399C90.7914 32.8399 91.9131 32.2912 92.7422 31.1939C93.5713 30.0722 93.9858 28.5603 93.9858 26.6583ZM100.058 18.6478C101.521 18.087 102.899 17.8065 104.191 17.8065C104.898 17.8065 105.557 17.9163 106.166 18.1357C106.8 18.3308 107.337 18.6478 107.776 19.0867C108.824 18.2333 109.946 17.8065 111.141 17.8065C111.726 17.8065 112.275 17.9163 112.787 18.1357C113.323 18.3552 113.786 18.6844 114.177 19.1233C114.591 19.5623 114.92 20.1109 115.164 20.7693C115.408 21.4277 115.53 22.1958 115.53 23.0737V35.1443H112.787V23.0005C112.787 22.1227 112.592 21.4521 112.201 20.9888C111.811 20.5255 111.324 20.2938 110.738 20.2938C110.446 20.2938 110.141 20.367 109.824 20.5133C109.507 20.6596 109.214 20.8912 108.946 21.2082C109.092 21.7691 109.165 22.3909 109.165 23.0737V28.5969H106.422V23.0371C106.422 22.1836 106.288 21.5131 106.02 21.0254C105.752 20.5377 105.227 20.2938 104.447 20.2938C103.959 20.2938 103.411 20.4035 102.801 20.623V35.1443H100.058V18.6478ZM130.563 26.6949C130.563 24.7197 130.1 23.1956 129.173 22.1227C128.247 21.0254 127.04 20.4767 125.552 20.4767C124.723 20.4767 124.065 20.5133 123.577 20.5864C123.114 20.6596 122.748 20.7449 122.48 20.8425V31.5597C122.821 31.8767 123.321 32.1693 123.979 32.4375C124.638 32.7058 125.321 32.8399 126.028 32.8399C126.832 32.8399 127.515 32.6814 128.076 32.3644C128.661 32.0474 129.137 31.6207 129.503 31.0842C129.868 30.5233 130.137 29.8771 130.307 29.1456C130.478 28.3896 130.563 27.5727 130.563 26.6949ZM133.672 26.6949C133.672 27.9873 133.502 29.1821 133.16 30.2795C132.843 31.3524 132.368 32.279 131.734 33.0594C131.124 33.8397 130.368 34.4493 129.466 34.8882C128.564 35.3272 127.54 35.5466 126.394 35.5466C125.491 35.5466 124.699 35.4369 124.016 35.2174C123.333 34.998 122.821 34.7541 122.48 34.4859V41.1796H119.444V18.6844C120.102 18.4893 120.943 18.2942 121.968 18.0992C123.016 17.9041 124.211 17.8065 125.552 17.8065C126.771 17.8065 127.881 18.0138 128.881 18.4284C129.881 18.8429 130.734 19.4403 131.441 20.2207C132.148 20.9766 132.697 21.9032 133.087 23.0005C133.477 24.0979 133.672 25.3293 133.672 26.6949ZM144.463 32.9862C145.219 32.9862 145.889 32.9618 146.475 32.9131C147.084 32.8643 147.584 32.8033 147.974 32.7302V27.6825C147.584 27.5605 147.109 27.463 146.548 27.3898C146.011 27.3167 145.438 27.2801 144.829 27.2801C144.268 27.2801 143.719 27.3289 143.183 27.4264C142.646 27.4996 142.171 27.6459 141.756 27.8654C141.342 28.0848 141 28.3774 140.732 28.7432C140.464 29.0846 140.33 29.5235 140.33 30.06C140.33 31.1573 140.695 31.9255 141.427 32.3644C142.183 32.7789 143.195 32.9862 144.463 32.9862ZM144.17 17.77C145.438 17.77 146.499 17.9285 147.352 18.2455C148.23 18.5625 148.937 19.0014 149.474 19.5623C150.01 20.1231 150.388 20.8059 150.608 21.6106C150.827 22.4153 150.937 23.2932 150.937 24.2442V34.8517C150.23 34.9736 149.291 35.1199 148.121 35.2906C146.974 35.4613 145.792 35.5466 144.573 35.5466C143.646 35.5466 142.744 35.4613 141.866 35.2906C140.988 35.1443 140.208 34.8761 139.525 34.4859C138.842 34.0713 138.293 33.5105 137.879 32.8033C137.464 32.0962 137.257 31.1939 137.257 30.0966C137.257 29.1212 137.464 28.3043 137.879 27.6459C138.318 26.9631 138.866 26.4144 139.525 25.9999C140.208 25.5854 140.976 25.2927 141.829 25.122C142.707 24.927 143.585 24.8294 144.463 24.8294C145.658 24.8294 146.828 24.9635 147.974 25.2318V24.3905C147.974 23.8784 147.913 23.3907 147.791 22.9274C147.694 22.4397 147.487 22.0008 147.17 21.6106C146.877 21.2204 146.462 20.9156 145.926 20.6962C145.414 20.4523 144.743 20.3304 143.914 20.3304C142.866 20.3304 141.951 20.4035 141.171 20.5498C140.391 20.6962 139.793 20.8425 139.379 20.9888L139.013 18.5015C139.427 18.3064 140.11 18.1357 141.061 17.9894C142.037 17.8431 143.073 17.77 144.17 17.77ZM156.021 18.6478C157.119 18.3796 158.204 18.1723 159.277 18.026C160.374 17.8797 161.398 17.8065 162.349 17.8065C164.617 17.8065 166.324 18.3918 167.47 19.5623C168.641 20.7327 169.226 22.6104 169.226 25.1952V35.1443H166.226V25.7439C166.226 24.6465 166.129 23.7565 165.934 23.0737C165.739 22.3909 165.458 21.8666 165.093 21.5009C164.751 21.1107 164.324 20.8425 163.812 20.6962C163.325 20.5498 162.788 20.4767 162.203 20.4767C161.715 20.4767 161.191 20.5133 160.63 20.5864C160.094 20.6352 159.569 20.7084 159.057 20.8059V35.1443H156.021V18.6478ZM173.579 38.3265C173.798 38.4485 174.103 38.546 174.493 38.6192C174.908 38.6923 175.285 38.7289 175.627 38.7289C176.822 38.7289 177.748 38.4607 178.407 37.9242C179.09 37.4121 179.711 36.5586 180.272 35.3638C178.907 32.7789 177.626 30.0112 176.432 27.0607C175.237 24.0857 174.249 21.1229 173.469 18.1723H176.761C177.005 19.1477 177.285 20.2085 177.602 21.3546C177.943 22.4763 178.321 23.6346 178.736 24.8294C179.151 26.0243 179.589 27.2313 180.053 28.4506C180.54 29.6455 181.053 30.7916 181.589 31.8889C181.979 30.7672 182.345 29.6577 182.686 28.5603C183.028 27.463 183.345 26.3657 183.637 25.2684C183.93 24.1466 184.223 23.0127 184.515 21.8666C184.808 20.6962 185.113 19.4647 185.43 18.1723H188.575C187.795 21.3424 186.917 24.4149 185.942 27.3898C184.991 30.3648 183.967 33.1203 182.869 35.6564C182.455 36.6318 182.004 37.4731 181.516 38.1802C181.053 38.8874 180.54 39.4726 179.98 39.9359C179.419 40.3993 178.785 40.7407 178.078 40.9601C177.37 41.1796 176.566 41.2893 175.663 41.2893C175.2 41.2893 174.688 41.2284 174.127 41.1064C173.591 40.9845 173.225 40.8748 173.03 40.7772L173.579 38.3265Z" fill="#37352F"/>
<g clip-path="url(#clip0)">
<path d="M45.7219 3.12817H0V46.818H45.7219V3.12817Z" fill="white"/>
<g style="mix-blend-mode:multiply">
<g style="mix-blend-mode:multiply">
<path d="M14.8198 -18.2087H-35.5625V50.2047H14.8198V-18.2087Z" fill="#FF00FE"/>
</g>
</g>
<g style="mix-blend-mode:multiply">
<g style="mix-blend-mode:multiply">
<path d="M84.7378 16.3677L49.7891 -18.209L14.8403 16.3677L49.7891 50.9443L84.7378 16.3677Z" fill="#FF00FE"/>
</g>
</g>
<g style="mix-blend-mode:multiply">
<g style="mix-blend-mode:multiply">
<path d="M7.7065 -18.2078H-42.6758V50.2057H7.7065V-18.2078Z" fill="#FFFF00"/>
</g>
</g>
<g style="mix-blend-mode:multiply">
<g style="mix-blend-mode:multiply">
<path d="M77.6245 16.3679L42.6758 -18.2087L7.72702 16.3679L42.6758 50.9445L77.6245 16.3679Z" fill="#FFFF00"/>
</g>
</g>
<g style="mix-blend-mode:multiply">
<g style="mix-blend-mode:multiply">
<path d="M31.0776 -18.2087H-19.3047V50.2047H31.0776V-18.2087Z" fill="#00FFFF"/>
</g>
</g>
<g style="mix-blend-mode:multiply">
<g style="mix-blend-mode:multiply">
<path d="M99.9761 16.3679L65.0273 -18.2087L30.0785 16.3679L65.0273 50.9445L99.9761 16.3679Z" fill="#00FFFF"/>
</g>
</g>
</g>
<defs>
<clipPath id="clip0">
<rect width="45.7219" height="43.6898" fill="white" transform="translate(0 3.12793)"/>
</clipPath>
</defs>
</svg>
