<svg width="160" height="60" viewBox="0 0 160 60" fill="none" xmlns="http://www.w3.org/2000/svg">
<path fill-rule="evenodd" clip-rule="evenodd" d="M145.156 52.9742L160 49.7427L146.526 45.4871L145.156 52.9742Z" fill="#0071BB"/>
<path fill-rule="evenodd" clip-rule="evenodd" d="M143.992 46.7206H39.2933C36.7847 46.7206 35.6921 49.5328 34.6396 52.2491C34.2729 53.1955 33.694 54.684 33.2517 55.2994C32.4501 54.4908 31.8637 50.6335 31.6336 49.115L31.5044 48.2764C30.6969 43.0579 29.9695 37.5504 29.2659 32.2271C26.1857 8.9495 24.728 0.798997 20.4409 0.713644C15.0731 0.614814 13.1671 10.2223 7.49646 38.7558L6.75424 42.4844C5.91256 46.7221 4.00208 46.7221 3.18563 46.7221H0.632375L0 50.3923H3.18563C5.31432 50.3923 9.07891 49.458 10.3199 43.2046L11.0591 39.4761C14.5521 21.8888 17.8549 5.29727 20.1885 4.4662C22.2133 6.64496 24.201 21.6567 25.6631 32.7122C26.3713 38.0535 27.1001 43.579 27.9166 48.8395L28.0412 49.666C28.6736 53.8768 29.4633 59.1118 33.3733 59.1118C35.8821 59.1118 36.9701 56.3027 38.0226 53.5863C38.4294 52.5487 39.0825 50.864 39.5368 50.3909H143.362L143.992 46.7206Z" fill="#0071BB"/>
<path fill-rule="evenodd" clip-rule="evenodd" d="M46.7883 18.7664H60.4942L60.9425 31.8763H61.1162L66.8106 18.7664H80.4823L75.5807 42.7252H67.2945L71.1615 23.9025H70.9566L62.3246 42.7252H54.6232L53.8662 23.9025H53.6257L49.7543 42.7252H41.8867L46.7883 18.7664Z" fill="#0071BB"/>
<path fill-rule="evenodd" clip-rule="evenodd" d="M93.5597 18.7664L88.4183 42.7252H78.7148L83.8555 18.7664H93.5597Z" fill="#0071BB"/>
<path fill-rule="evenodd" clip-rule="evenodd" d="M111.631 18.7664C116.713 18.7664 119.919 21.8121 119.919 25.8836C119.919 30.3699 116.333 35.9164 107.801 35.9164H102.44L101.048 42.7252H91.7148L96.6583 18.7664H111.631ZM103.59 30.7458H105.991C109.759 30.7458 111.013 28.8186 111.013 27.1729C111.013 26.4003 110.607 24.756 107.613 24.756H104.845L103.59 30.7458Z" fill="#0071BB"/>
<path fill-rule="evenodd" clip-rule="evenodd" d="M146.595 18.7664L145.161 25.8492H137.098L133.68 42.7252H124.524L127.939 25.8492H119.875L121.309 18.7664H146.595Z" fill="#0071BB"/>
</svg>
