<svg width="183" height="68" viewBox="0 0 183 68" fill="none" xmlns="http://www.w3.org/2000/svg">
<g clip-path="url(#clip0)">
<path fill-rule="evenodd" clip-rule="evenodd" d="M165.688 60.6917L182.632 56.9903L167.251 52.116L165.688 60.6917Z" fill="#0071BB"/>
<path fill-rule="evenodd" clip-rule="evenodd" d="M164.361 53.5289H44.8519C41.9884 53.5289 40.7413 56.7499 39.5399 59.8612C39.1213 60.9452 38.4605 62.6501 37.9556 63.3549C37.0406 62.4288 36.3713 58.0106 36.1086 56.2714L35.9612 55.3109C35.0394 49.3336 34.2091 43.0254 33.406 36.9281C29.89 10.2662 28.2261 0.930657 23.3325 0.832894C17.2054 0.719695 15.0298 11.7241 8.55694 44.4061L7.70972 48.6767C6.74897 53.5306 4.56823 53.5306 3.63628 53.5306H0.721834L0 57.7344H3.63628C6.06611 57.7344 10.3633 56.6642 11.7797 49.5017L12.6236 45.2311C16.6107 25.0867 20.3808 6.08294 23.0445 5.13104C25.3556 7.62657 27.6245 24.8209 29.2935 37.4838C30.1018 43.6017 30.9338 49.9305 31.8658 55.9558L32.0081 56.9026C32.7298 61.7256 33.6313 67.7217 38.0945 67.7217C40.9581 67.7217 42.2001 64.5041 43.4015 61.3928C43.8658 60.2043 44.6113 58.2747 45.1298 57.7328H163.643L164.361 53.5289Z" fill="#0071BB"/>
<path fill-rule="evenodd" clip-rule="evenodd" d="M53.4075 21.511H69.0523L69.564 36.527H69.7623L76.2622 21.511H91.868L86.273 48.9532H76.8146L81.2286 27.3939H80.9948L71.1416 48.9532H62.3508L61.4866 27.3939H61.2121L56.793 48.9532H47.8125L53.4075 21.511Z" fill="#0071BB"/>
<path fill-rule="evenodd" clip-rule="evenodd" d="M106.796 21.511L100.928 48.9532H89.8516L95.7194 21.511H106.796Z" fill="#0071BB"/>
<path fill-rule="evenodd" clip-rule="evenodd" d="M127.421 21.511C133.222 21.511 136.882 24.9995 136.882 29.663C136.882 34.8016 132.788 41.1545 123.05 41.1545H116.93L115.34 48.9532H104.688L110.33 21.511H127.421ZM118.243 35.2321H120.983C125.284 35.2321 126.716 33.0247 126.716 31.1398C126.716 30.2548 126.252 28.3715 122.835 28.3715H119.675L118.243 35.2321Z" fill="#0071BB"/>
<path fill-rule="evenodd" clip-rule="evenodd" d="M167.336 21.511L165.699 29.6236H156.495L152.594 48.9532H142.143L146.04 29.6236H136.836L138.473 21.511H167.336Z" fill="#0071BB"/>
</g>
<defs>
<clipPath id="clip0">
<rect width="183" height="67" fill="white" transform="translate(0 0.832031)"/>
</clipPath>
</defs>
</svg>
