<svg width="235" height="35" viewBox="0 0 235 35" fill="none" xmlns="http://www.w3.org/2000/svg">
<path fill-rule="evenodd" clip-rule="evenodd" d="M226.916 34.6229C219.701 34.8519 214.862 30.2142 214.688 23.8572V23.8008V17.3875H197.447V32.1602C197.447 33.5354 196.288 34.6229 194.781 34.6229H192V17.3875L186.204 17.3587L186.175 14.7533C186.175 13.3505 187.392 12.1467 188.957 12.1467H192V10.8302V10.8014C192.173 4.41679 197.013 -0.220883 204.198 0.00812316H212.312V2.47084C212.312 3.84367 211.182 4.96113 209.037 4.96113L206.458 4.93235C200.663 4.96113 197.62 5.7057 197.447 11.7175V12.1467H214.688V0.00812316H217.47C218.977 0.00812316 220.165 1.12437 220.165 2.49841V12.1467H226.743V14.7809C226.743 16.1849 225.554 17.3875 223.96 17.3875H220.165V22.9412C220.309 28.9253 223.352 29.6987 229.147 29.6987L231.726 29.6699C233.871 29.6699 234.971 30.8149 235 32.1602V34.6229H226.916ZM172.758 34.6229H166.239C159.603 34.6229 154.127 30.1567 154.127 24.6881V22.4832C154.127 17.0146 158.126 12.5484 165.63 12.5484H172.932C179.829 12.5484 184.697 17.415 184.697 22.4832V24.6881C184.697 30.1567 179.8 34.8807 172.758 34.6229ZM177.337 18.9617C176.235 18.1033 174.353 17.5014 172.932 17.5014H165.63C164.297 17.5014 162.443 18.0457 161.371 18.8191C158.445 20.994 158.474 26.206 161.4 28.3522C162.501 29.1255 164.268 29.7562 165.63 29.7562H172.932C174.497 29.7562 176.525 29.2406 177.656 28.2383C180.148 26.0334 180.031 21.0228 177.337 18.9617ZM140.711 34.6229C133.206 34.6229 125.991 34.6229 118.544 34.6229L118.515 32.3616C118.515 30.9588 119.703 29.7562 121.238 29.7562L140.42 29.7274C141.985 29.7274 143.492 29.1255 144.623 28.1232C147.143 25.8907 146.998 21.0516 144.333 18.9617C143.202 18.0745 141.811 17.6165 140.334 17.6165H129.178C123.383 17.6165 118.225 14.4955 118.225 8.76911V8.11087C118.225 2.29818 123.324 0.00812316 129.004 0.00812316C133.698 0.00812316 141.406 0.00812316 146.1 0.00812316L146.071 2.44206C146.071 3.84367 144.854 5.01868 143.318 5.01868C138.624 5.01868 133.902 5.01868 129.206 5.01868C122.021 5.01868 122.137 12.4333 129.294 12.4333H140.711C146.738 12.4333 151.693 16.987 151.693 22.5407V24.7744C151.693 30.2993 146.738 34.6229 140.711 34.6229ZM114.631 5.04626H103.215V32.2465C103.215 33.5918 101.969 34.6229 100.491 34.6229H97.7965L97.7677 5.04626C93.0737 5.04626 88.4372 5.04626 83.8007 5.04626V2.52719C83.8007 1.15315 84.9601 0.00812316 86.4948 0.00812316H117.356L117.327 2.52719C117.327 3.87365 116.139 5.01868 114.631 5.04626ZM84.1772 29.8413H84.206L84.1772 29.8701C84.8438 30.7286 84.8151 31.9312 84.0609 32.7908L82.3811 34.7668L58.8222 17.1297L58.5908 16.9007C56.8523 15.6405 57.2 12.7774 60.1843 12.462H71.4272C78.2662 12.462 78.295 5.10381 71.8912 5.13258H54.5347L54.5047 32.0463C54.5047 33.4491 53.2877 34.4514 51.8106 34.6229H49.0289V0.00812316L71.8624 0.0357002C78.2374 0.00812316 82.3224 3.24298 82.3224 8.59765V8.76911C82.3224 14.3804 77.3094 17.5589 71.5147 17.5589H67.6612C72.9919 21.4808 78.295 25.519 83.6844 29.3557C83.8583 29.4984 84.0321 29.6699 84.1772 29.8413ZM28.3392 34.6229H0V30.472H28.1078C28.5706 30.472 29.0059 30.4144 29.4399 30.2993C28.4843 30.243 27.5863 30.014 26.7746 29.6411C25.3837 29.0116 24.2243 27.9805 23.5289 26.7216C23.0361 25.8043 22.7759 24.802 22.7759 23.7433C22.7759 23.1426 22.8623 22.5407 23.0361 21.9976C23.0361 22.4556 23.2399 22.8836 23.5289 23.199C23.9054 23.6006 24.4857 23.8572 25.0936 23.8572C25.7602 23.8572 26.3693 23.5718 26.7746 23.1138C27.0359 22.7697 27.1798 22.3693 27.1798 21.94C27.1798 21.5096 27.0359 21.0803 26.7746 20.7662C26.3693 20.307 25.789 20.0216 25.1235 20.0216C24.4857 20.0216 23.9054 20.2794 23.5289 20.6799C23.3838 20.8226 23.2687 20.994 23.1812 21.1954H0V12.8349L19.9943 17.1297C20.8923 17.1297 28.7745 17.1009 29.7876 17.1297C31.1496 17.1297 32.4829 17.5589 33.5548 18.1596L29.1509 0.0357002H38.1913V25.8331C38.1913 30.8437 33.7574 34.6229 28.3392 34.6229ZM22.1968 0.0357002H26.717L31.2947 16.0698L22.1968 0.0357002ZM14.2859 0.0357002H19.5878L29.3823 15.9271L14.2859 0.0357002ZM5.911 0.78027H5.93978C7.12797 0.294681 8.46124 0.0357002 9.85207 0.0357002H10.9539H11.0403H11.069L27.3249 15.9835C27.3249 15.9835 7.91091 2.09795 5.911 0.78027ZM1.10187 4.96113C1.13064 4.93235 1.15942 4.90358 1.15942 4.8748C1.79728 3.78732 2.69532 2.81375 3.70966 2.0404C6.60641 3.90123 24.8622 15.9271 24.8622 15.9271L1.10187 4.96113ZM0 10.6012V9.14079C0 8.39622 0.116302 7.65285 0.290155 6.96463L22.5146 16.1849L0 10.6012Z" fill="#325598"/>
</svg>
