<svg width="147" height="41" viewBox="0 0 147 41" fill="none" xmlns="http://www.w3.org/2000/svg">
<path fill-rule="evenodd" clip-rule="evenodd" d="M13.5062 7.10194L10.0373 1.35317C9.85181 1.04829 9.59042 0.796372 9.27864 0.621812C8.96673 0.447252 8.615 0.355971 8.2575 0.356808H5.63615H0L11.3753 26.2744H15.7583L27.1335 0.344727H21.5337H18.888C18.5345 0.350314 18.1883 0.445866 17.882 0.622348C17.5758 0.79883 17.3199 1.05039 17.1386 1.35317L13.5062 7.10194ZM8.95973 8.07406L13.5062 15.6767L18.1192 8.07406L13.5062 18.5149L8.95973 8.07406Z" fill="#2F2C82"/>
<path fill-rule="evenodd" clip-rule="evenodd" d="M47.8987 5.44208C46.0013 5.43754 44.1608 6.08924 42.691 7.28625C41.2212 8.48339 40.2129 10.1517 39.8378 12.007C39.4629 13.8624 39.7442 15.7901 40.6341 17.4618C41.5241 19.1334 42.9674 20.4456 44.7185 21.1749C46.4694 21.9041 48.4197 22.0053 50.2371 21.4612C52.0545 20.9172 53.6266 19.7613 54.6856 18.1909C55.7447 16.6204 56.225 14.7321 56.045 12.848C55.8651 10.9639 55.0357 9.20016 53.6983 7.8575C52.94 7.09199 52.037 6.48422 51.0414 6.06961C50.0458 5.65487 48.9775 5.44166 47.8987 5.44208ZM47.8987 26.9152C44.8177 26.9129 41.8329 25.8451 39.4526 23.8937C37.0724 21.9423 35.4441 19.2283 34.845 16.2137C34.2458 13.1992 34.713 10.0706 36.1669 7.36107C37.6209 4.65158 39.9717 2.52874 42.8187 1.35413C45.6658 0.179506 48.8331 0.0257997 51.7809 0.919206C54.7289 1.81261 57.2751 3.69785 58.9859 6.25385C60.6966 8.80972 61.4661 11.8782 61.1632 14.9365C60.8602 17.9949 59.5037 20.8539 57.3246 23.0264C56.0884 24.263 54.6192 25.2433 53.0014 25.9108C51.3836 26.5782 49.6494 26.9196 47.8987 26.9152ZM128.252 26.5892V21.4746H138.434C139.14 21.4746 139.815 21.1952 140.314 20.6981C140.812 20.2009 141.092 19.5266 141.092 18.8235C141.089 18.122 140.808 17.4503 140.309 16.9547C139.812 16.4592 139.138 16.1802 138.434 16.1787H135.293C134.252 16.2075 133.217 16.0282 132.247 15.6511C131.277 15.274 130.393 14.7069 129.648 13.9832C128.901 13.2595 128.308 12.394 127.904 11.4378C127.499 10.4816 127.29 9.454 127.29 8.41598C127.29 7.37795 127.499 6.3505 127.904 5.3943C128.308 4.4381 128.901 3.57251 129.648 2.84888C130.393 2.1252 131.277 1.55804 132.247 1.18096C133.217 0.803859 134.252 0.624494 135.293 0.653434H144.725V5.76813H135.293C134.933 5.75097 134.574 5.80685 134.237 5.93219C133.899 6.05753 133.592 6.24973 133.331 6.4974C133.072 6.74493 132.864 7.04256 132.723 7.37246C132.582 7.70222 132.507 8.05725 132.507 8.41598C132.507 8.77485 132.582 9.12987 132.723 9.45963C132.864 9.78953 133.072 10.0872 133.331 10.3347C133.592 10.5824 133.899 10.7746 134.237 10.8999C134.574 11.0252 134.933 11.0811 135.293 11.064H138.434C140.46 11.1204 142.385 11.9629 143.798 13.4125C145.212 14.8621 146.003 16.8045 146.003 18.8266C146.003 20.8487 145.212 22.791 143.798 24.2406C142.385 25.6902 140.46 26.5327 138.434 26.5892H128.252ZM105.247 26.5892V5.76813H97.8129V0.653434H117.851V5.76813H110.399V26.5892H105.247ZM71.2122 26.5892V0.653434H76.3399V21.4746H89.9186V26.5892H71.2122ZM47.8746 5.45416C49.772 5.44963 51.6123 6.10133 53.0823 7.29833C54.5521 8.49547 55.5603 10.1638 55.9354 12.0191C56.3104 13.8745 56.029 15.8021 55.1391 17.4737C54.2492 19.1455 52.8058 20.4577 51.0548 21.1869C49.3039 21.9162 47.3536 22.0174 45.536 21.4733C43.7186 20.9292 42.1466 19.7734 41.0875 18.2029C40.0286 16.6324 39.5481 14.7442 39.7283 12.8601C39.9082 10.976 40.7376 9.21224 42.0749 7.86958C42.8331 7.10407 43.7363 6.4963 44.7318 6.08169C45.7274 5.66695 46.7956 5.45374 47.8746 5.45416ZM47.8746 26.9273C44.7936 26.925 41.8087 25.8572 39.4284 23.9058C37.0481 21.9544 35.4198 19.2403 34.8207 16.2258C34.2215 13.2113 34.6887 10.0826 36.1427 7.37315C37.5967 4.66366 39.9474 2.54082 42.7945 1.3662C45.6416 0.191587 48.8088 0.0378816 51.7568 0.931288C54.7047 1.82469 57.251 3.70993 58.9617 6.26579C60.6724 8.8218 61.4419 11.8903 61.1389 14.9486C60.8361 18.007 59.4795 20.866 57.3004 23.0385C56.0662 24.27 54.6004 25.2465 52.987 25.9117C51.3736 26.5769 49.6445 26.918 47.8987 26.9152L47.8746 26.9273Z" fill="#2B2522"/>
<path d="M32.5724 37.0018C32.6693 36.9474 32.7359 36.9655 32.7721 37.032L33.0749 37.5876C33.0857 37.6193 33.0857 37.6537 33.0747 37.6855C33.0637 37.7172 33.0425 37.7444 33.0143 37.7626C32.5665 38.0301 32.053 38.168 31.5311 38.1612C31.2425 38.1708 30.9549 38.1223 30.6855 38.0185C30.4162 37.9147 30.1704 37.758 29.9631 37.5574C29.59 37.1546 29.3828 36.6263 29.3828 36.0778C29.3828 35.5295 29.59 35.0012 29.9631 34.5984C30.154 34.4131 30.3807 34.2688 30.6295 34.1742C30.8784 34.0798 31.1441 34.0371 31.41 34.0489C31.7014 34.0301 31.993 34.0829 32.2591 34.2029C32.5252 34.323 32.7575 34.5066 32.9357 34.7374C33.2163 35.2085 33.3431 35.7551 33.2989 36.3013C33.3008 36.3184 33.2988 36.3358 33.2931 36.352C33.2874 36.3683 33.278 36.383 33.2658 36.3952C33.2536 36.4075 33.2389 36.4167 33.2226 36.4224C33.2062 36.4281 33.1889 36.43 33.1718 36.4281H30.617C30.6463 36.6249 30.7349 36.8082 30.8713 36.9535C30.9741 37.0494 31.0951 37.1238 31.227 37.1726C31.3591 37.2213 31.4995 37.2433 31.6401 37.2372C31.9664 37.2438 32.2885 37.1624 32.5724 37.0018ZM32.1971 35.7155C32.192 35.5276 32.1237 35.3469 32.0033 35.2022C31.9249 35.1227 31.8304 35.0611 31.7259 35.0214C31.6213 34.9819 31.5095 34.9653 31.3979 34.9728C31.2868 34.969 31.1761 34.9872 31.072 35.0266C30.9681 35.066 30.8731 35.1258 30.7926 35.2022C30.6721 35.349 30.5966 35.5272 30.5746 35.7155H32.1971Z" fill="#2B2522"/>
<path d="M37.4211 34.5178C37.579 34.3597 37.7682 34.2362 37.9767 34.155C38.1851 34.0739 38.4084 34.0371 38.6319 34.0469C39.052 34.0281 39.4641 34.1659 39.7881 34.4333C39.9436 34.5922 40.0644 34.7816 40.1426 34.9895C40.2207 35.1975 40.2547 35.4193 40.2422 35.641V37.8934C40.2431 37.9102 40.2403 37.9271 40.2343 37.9429C40.2282 37.9587 40.2189 37.973 40.207 37.9849C40.1949 37.9969 40.1806 38.0062 40.1647 38.0123C40.1489 38.0184 40.132 38.021 40.1151 38.0202H39.1949C39.1616 38.0187 39.1302 38.0048 39.1066 37.9814C39.0831 37.9579 39.0693 37.9266 39.0677 37.8934V35.955C39.0919 35.6916 39.0211 35.4282 38.868 35.2123C38.801 35.1431 38.7197 35.0896 38.6298 35.0551C38.5399 35.0206 38.4434 35.0062 38.3473 35.013C37.6754 35.013 37.4272 35.6169 37.4272 36.2207V37.9356C37.4193 37.9634 37.4026 37.9877 37.3797 38.0051C37.3567 38.0226 37.3289 38.032 37.3 38.0323H36.4162C36.3824 38.0323 36.35 38.019 36.3263 37.9951C36.3024 37.9713 36.2891 37.9391 36.2891 37.9054V34.2521C36.2891 34.2185 36.3024 34.1862 36.3263 34.1625C36.35 34.1387 36.3824 34.1253 36.4162 34.1253H37.2637C37.2974 34.1253 37.3297 34.1387 37.3536 34.1625C37.3775 34.1862 37.3908 34.2185 37.3908 34.2521V34.5178H37.4211Z" fill="#2B2522"/>
<path d="M47.2615 37.0007C47.3585 36.9464 47.425 36.9645 47.4613 37.0309L47.764 37.5864C47.7749 37.6183 47.7749 37.6527 47.7639 37.6844C47.7529 37.7161 47.7316 37.7433 47.7035 37.7616C47.2556 38.029 46.7422 38.167 46.2204 38.1601C45.9308 38.1699 45.6422 38.1214 45.3718 38.0176C45.1015 37.914 44.8546 37.7571 44.6462 37.5563C44.2757 37.1522 44.0703 36.6244 44.0703 36.0768C44.0703 35.5292 44.2757 35.0014 44.6462 34.5974C44.8386 34.4125 45.0665 34.2685 45.3162 34.174C45.566 34.0796 45.8324 34.0366 46.0993 34.0478C46.3902 34.032 46.6808 34.0864 46.9463 34.2063C47.2118 34.326 47.4445 34.5079 47.6248 34.7362C47.9054 35.2075 48.0323 35.754 47.9881 36.3003C47.989 36.3177 47.9861 36.3352 47.9797 36.3514C47.9732 36.3676 47.9634 36.3823 47.9507 36.3943C47.9381 36.4063 47.923 36.4155 47.9064 36.4211C47.8899 36.4269 47.8722 36.4288 47.8549 36.427H45.2758C45.3045 36.6254 45.3957 36.8094 45.5363 36.9524C45.6384 37.0492 45.7594 37.1242 45.8914 37.173C46.0236 37.2218 46.1643 37.2433 46.3051 37.2362C46.6395 37.2472 46.9706 37.1656 47.2615 37.0007ZM46.8802 35.7145C46.8848 35.6132 46.8678 35.5119 46.83 35.4177C46.7923 35.3234 46.7349 35.2383 46.6616 35.168C46.5882 35.0975 46.5006 35.0437 46.4046 35.0099C46.3088 34.976 46.2066 34.963 46.1053 34.9718C45.881 34.9653 45.6632 35.0478 45.4999 35.2012C45.3788 35.347 45.3049 35.526 45.288 35.7145H46.8802Z" fill="#2B2522"/>
<path d="M52.1187 36.1172V37.9287C52.1114 37.9631 52.0909 37.9932 52.0613 38.0126C52.0318 38.0318 51.9958 38.0385 51.9614 38.0314H51.1077C51.0909 38.0322 51.074 38.0296 51.0582 38.0236C51.0423 38.0175 51.028 38.0082 51.0159 37.9962C51.0039 37.9843 50.9946 37.9699 50.9886 37.9541C50.9825 37.9383 50.9798 37.9214 50.9806 37.9045V34.2512C50.9798 34.2343 50.9825 34.2174 50.9886 34.2018C50.9946 34.186 51.0039 34.1716 51.0159 34.1596C51.028 34.1477 51.0423 34.1383 51.0582 34.1323C51.074 34.1263 51.0909 34.1235 51.1077 34.1245H51.9614C51.9952 34.1245 52.0274 34.1378 52.0513 34.1615C52.0751 34.1853 52.0885 34.2176 52.0885 34.2512V34.4868C52.2056 34.3445 52.3538 34.2309 52.5217 34.1544C52.6896 34.0781 52.8727 34.0409 53.0571 34.046C53.407 34.0344 53.7493 34.1503 54.0197 34.372C54.048 34.3916 54.0679 34.421 54.0757 34.4545C54.0836 34.4879 54.0788 34.5232 54.062 34.5532L53.7776 35.2295C53.7673 35.2454 53.7537 35.2592 53.7379 35.2696C53.7221 35.2802 53.7042 35.2873 53.6856 35.2907C53.6668 35.2942 53.6475 35.2936 53.629 35.2894C53.6105 35.2851 53.593 35.277 53.5778 35.2657C53.3727 35.1249 53.1305 35.0472 52.8816 35.0422C52.2822 35.0422 52.1187 35.5797 52.1187 36.1172Z" fill="#2B2522"/>
<path d="M58.8143 38.9369C58.9712 38.7522 59.0514 38.5146 59.0383 38.2727V37.8922C58.7441 38.0472 58.4142 38.1222 58.0817 38.1096C57.8417 38.1174 57.6027 38.0776 57.3782 37.9926C57.1538 37.9076 56.9484 37.7791 56.7741 37.6145C56.5757 37.4108 56.42 37.1697 56.3161 36.9053C56.2121 36.6409 56.162 36.3585 56.1688 36.0746C56.1541 35.5294 56.3465 34.9988 56.7075 34.5891C56.8814 34.412 57.0898 34.2725 57.3199 34.1791C57.5501 34.0856 57.797 34.0401 58.0455 34.0456C58.3953 34.0521 58.7349 34.1635 59.0201 34.3658V34.251C59.0201 34.2338 59.0235 34.2168 59.0304 34.201C59.0371 34.1852 59.047 34.171 59.0595 34.1591C59.072 34.1472 59.0866 34.138 59.1027 34.132C59.1189 34.1261 59.1361 34.1233 59.1532 34.1241H59.9948C60.012 34.1233 60.0291 34.1261 60.0453 34.132C60.0614 34.138 60.0762 34.1472 60.0886 34.1591C60.1011 34.171 60.1109 34.1852 60.1177 34.201C60.1245 34.2168 60.128 34.2338 60.128 34.251V38.1277C60.147 38.4121 60.1027 38.6973 59.9981 38.9625C59.8933 39.2278 59.7309 39.4665 59.5225 39.6616C59.1057 39.9638 58.596 40.1112 58.0817 40.0783C57.5372 40.0872 57.0015 39.9406 56.5381 39.6556C56.5106 39.6365 56.49 39.6093 56.479 39.5779C56.4682 39.5463 56.4676 39.5122 56.4775 39.4804L56.8165 38.8343C56.8246 38.8169 56.8368 38.8015 56.852 38.7898C56.8673 38.778 56.885 38.7699 56.9041 38.7664C56.923 38.7629 56.9425 38.7639 56.9609 38.7694C56.9794 38.7749 56.9963 38.7847 57.0102 38.7981C57.3306 39.0191 57.7103 39.1391 58.1 39.1422C58.2267 39.158 58.3555 39.1479 58.4782 39.1126C58.6009 39.0773 58.7153 39.0176 58.8143 38.9369ZM59.0383 36.9321V35.3137C58.8117 35.1336 58.5345 35.028 58.2452 35.0118C58.132 35.0085 58.0194 35.0294 57.9149 35.0732C57.8106 35.117 57.7167 35.1825 57.6398 35.2654C57.4547 35.5006 57.3601 35.7941 57.3734 36.0927C57.3515 36.3953 57.4444 36.6948 57.6337 36.9321C57.7109 37.0143 57.8049 37.079 57.9094 37.1217C58.0139 37.1644 58.1263 37.1841 58.2392 37.1797C58.5242 37.1778 58.8023 37.0917 59.0383 36.9321Z" fill="#2B2522"/>
<path d="M66.1272 38.2021C65.9723 38.6836 65.6973 39.1178 65.328 39.4642C65.0918 39.6696 64.8154 39.8237 64.5163 39.9174C64.2173 40.0109 63.902 40.0416 63.5905 40.0077C63.5632 40.0077 63.5371 39.9968 63.5178 39.9776C63.4986 39.9584 63.4877 39.9322 63.4877 39.905V39.0354C63.4867 39.0217 63.4888 39.008 63.4936 38.9952C63.4986 38.9823 63.5061 38.9706 63.5159 38.9609C63.5256 38.9511 63.5373 38.9436 63.5502 38.9388C63.5631 38.934 63.5768 38.9319 63.5905 38.9327C63.6571 38.9327 63.7237 38.9327 63.8569 38.9327C64.0899 38.9391 64.3182 38.8667 64.5047 38.7275C64.6644 38.5919 64.7978 38.4281 64.8982 38.2444L63.082 34.2287C63.082 34.1502 63.082 34.0475 63.191 34.0475H64.2505C64.2967 34.0401 64.3442 34.0503 64.3835 34.076C64.4226 34.1016 64.4508 34.141 64.4623 34.1865L65.4733 36.8314L66.3209 34.1865C66.3209 34.0838 66.4116 34.0475 66.5327 34.0475H67.5075C67.6406 34.0475 67.6406 34.1502 67.6103 34.2287L66.1272 38.2021Z" fill="#2B2522"/>
<path d="M76.2395 36.9398C76.2395 36.7525 76.0882 36.6862 75.8702 36.5896C75.6524 36.4929 75.3194 36.3842 75.0409 36.2514C74.8404 36.1665 74.6716 36.0215 74.5576 35.8364C74.4437 35.6514 74.3904 35.4354 74.4053 35.2188C74.4053 34.5002 74.9622 34.0473 75.9792 34.0473C76.4441 34.0286 76.9056 34.1327 77.3171 34.3492C77.333 34.3555 77.3473 34.3651 77.359 34.3775C77.3706 34.3898 77.3793 34.4047 77.3845 34.4209C77.3897 34.4371 77.3914 34.4542 77.389 34.4711C77.3868 34.4879 77.3809 34.5041 77.3716 34.5183L77.0568 35.1221C77.0266 35.1886 76.9721 35.2006 76.9055 35.1644C76.6352 35.0068 76.3286 34.9215 76.0156 34.9169C75.7855 34.9169 75.6099 34.9954 75.6099 35.1886C75.6099 35.3819 75.7916 35.4483 75.9913 35.5267C76.1911 35.6052 76.5181 35.714 76.7905 35.8529C76.9876 35.9311 77.1556 36.0683 77.2717 36.2457C77.3877 36.4229 77.4457 36.6316 77.4382 36.8431C77.4382 37.5617 76.8329 38.0992 75.8097 38.0992C75.3144 38.1251 74.8215 38.0121 74.3871 37.7731C74.3083 37.7308 74.2902 37.6704 74.3266 37.6161L74.6414 36.9519C74.6482 36.9365 74.6583 36.9229 74.671 36.9119C74.6837 36.9009 74.6986 36.8928 74.7148 36.8883C74.7309 36.8836 74.7479 36.8827 74.7645 36.8853C74.7811 36.8879 74.7969 36.8942 74.8108 36.9035C75.0988 37.0993 75.4371 37.2083 75.7855 37.2175C76.07 37.2477 76.2395 37.145 76.2395 36.9398Z" fill="#2B2522"/>
<path d="M82.0644 36.46C82.0562 36.6135 82.0853 36.7669 82.1492 36.9069C82.1881 36.9765 82.2467 37.0332 82.3178 37.0697C82.389 37.1062 82.4693 37.1211 82.5488 37.1122C82.7541 37.1065 82.951 37.0296 83.1057 36.8948C83.1844 36.8344 83.2631 36.8465 83.2874 36.8948L83.5899 37.4986C83.6049 37.5283 83.6076 37.5627 83.5974 37.5943C83.5872 37.6259 83.5649 37.6522 83.5356 37.6678C83.1527 37.9172 82.7032 38.0457 82.246 38.0361C82.0603 38.0527 81.873 38.0277 81.6981 37.9629C81.5232 37.8981 81.3651 37.7952 81.2351 37.6617C81.0116 37.3425 80.9028 36.9573 80.9263 36.5686V34.9684H80.4964C80.4612 34.9684 80.4273 34.9544 80.4023 34.9296C80.3773 34.9046 80.3633 34.8708 80.3633 34.8357V34.2317C80.3633 34.2146 80.3667 34.1976 80.3736 34.1818C80.3803 34.166 80.3902 34.1517 80.4027 34.1399C80.415 34.128 80.4299 34.1188 80.4459 34.1129C80.4621 34.1068 80.4793 34.1041 80.4964 34.1049H80.9263V33.3138C80.9255 33.2967 80.9282 33.2795 80.9341 33.2635C80.9402 33.2474 80.9495 33.2327 80.9613 33.2204C80.9732 33.2079 80.9875 33.198 81.0033 33.1912C81.0192 33.1845 81.0363 33.181 81.0534 33.1811H81.9312C81.9489 33.1801 81.9667 33.183 81.9833 33.1893C81.9997 33.1958 82.0148 33.2055 82.0273 33.218C82.0398 33.2305 82.0497 33.2455 82.056 33.2621C82.0625 33.2786 82.0654 33.2963 82.0644 33.3138V34.0807H83.148C83.1653 34.0799 83.1825 34.0826 83.1985 34.0887C83.2147 34.0946 83.2294 34.1039 83.2419 34.1157C83.2544 34.1275 83.2643 34.1418 83.271 34.1576C83.2777 34.1734 83.2813 34.1904 83.2813 34.2076V34.8115C83.2821 34.8291 83.2792 34.8468 83.2729 34.8633C83.2665 34.8799 83.2567 34.8948 83.2442 34.9073C83.2316 34.9198 83.2166 34.9296 83.2 34.936C83.1836 34.9423 83.1659 34.9452 83.148 34.9443H82.0644V36.46Z" fill="#2B2522"/>
<path d="M88.5418 34.0492C88.9423 34.0658 89.329 34.1993 89.6541 34.4331C89.9791 34.667 90.2281 34.9909 90.3703 35.3647C90.5124 35.7384 90.5414 36.1456 90.4537 36.5356C90.3658 36.9257 90.1652 37.2814 89.8765 37.5587C89.5878 37.836 89.2238 38.0226 88.8298 38.0955C88.4358 38.1682 88.029 38.124 87.6599 37.9684C87.2908 37.8125 86.9756 37.5522 86.7536 37.2193C86.5317 36.8865 86.4124 36.4961 86.4108 36.0963C86.4036 35.8189 86.4544 35.5428 86.5599 35.2859C86.6655 35.029 86.8235 34.7969 87.024 34.6043C87.2245 34.4117 87.463 34.2629 87.7244 34.1673C87.9857 34.0717 88.2641 34.0315 88.5418 34.0492ZM88.5418 37.1834C88.7616 37.2004 88.9815 37.1508 89.1726 37.0413C89.3637 36.9317 89.5172 36.7671 89.6132 36.5691C89.7092 36.3712 89.7429 36.1489 89.7102 35.9314C89.6776 35.714 89.5798 35.5115 89.4299 35.3502C89.28 35.189 89.0848 35.0767 88.8698 35.0278C88.6548 34.9791 88.4302 34.9961 88.2251 35.0767C88.0198 35.1573 87.844 35.2977 87.7201 35.4796C87.5963 35.6615 87.5303 35.8765 87.5308 36.0963C87.5171 36.2358 87.5332 36.3767 87.5781 36.5094C87.623 36.6423 87.6956 36.7641 87.7911 36.8668C87.8867 36.9696 88.003 37.0509 88.1324 37.1055C88.2619 37.16 88.4014 37.1865 88.5418 37.1834Z" fill="#2B2522"/>
<path d="M94.4828 36.1171V37.9287C94.4755 37.9631 94.4549 37.9933 94.4254 38.0125C94.3959 38.0317 94.3599 38.0386 94.3254 38.0313H93.4476C93.4306 38.0323 93.4137 38.0295 93.3979 38.0235C93.3821 38.0174 93.3677 38.0081 93.3558 37.9962C93.3437 37.9842 93.3344 37.9698 93.3283 37.9541C93.3223 37.9384 93.3195 37.9215 93.3205 37.9046V34.2512C93.3195 34.2344 93.3223 34.2175 93.3283 34.2017C93.3344 34.1859 93.3437 34.1716 93.3558 34.1595C93.3677 34.1476 93.3821 34.1384 93.3979 34.1322C93.4137 34.1262 93.4306 34.1236 93.4476 34.1244H94.3254C94.3591 34.1244 94.3915 34.1377 94.4152 34.1616C94.4391 34.1853 94.4526 34.2176 94.4526 34.2512V34.4867C94.5697 34.3445 94.7178 34.2308 94.8857 34.1545C95.0535 34.078 95.2366 34.0409 95.4211 34.0459C95.7727 34.035 96.1166 34.1508 96.3897 34.3719C96.416 34.3931 96.4346 34.4224 96.4423 34.4553C96.45 34.4881 96.4464 34.5225 96.4321 34.5531L96.1416 35.2294C96.1312 35.2453 96.1177 35.2591 96.1019 35.2696C96.086 35.2801 96.0683 35.2873 96.0495 35.2906C96.0308 35.2941 96.0116 35.2937 95.9931 35.2893C95.9745 35.285 95.9571 35.2769 95.9417 35.2657C95.7366 35.1248 95.4946 35.0471 95.2455 35.0423C94.6463 35.0423 94.4828 35.5796 94.4828 36.1171Z" fill="#2B2522"/>
<path d="M99.949 35.2324C99.8643 35.2807 99.8038 35.2807 99.7614 35.1902L99.5374 34.6527C99.5269 34.6387 99.5196 34.6224 99.5163 34.6052C99.513 34.5879 99.5138 34.5702 99.5185 34.5533C99.5232 34.5363 99.5317 34.5208 99.5434 34.5076C99.555 34.4946 99.5696 34.4843 99.5858 34.4776C100.072 34.1941 100.627 34.0459 101.19 34.0488C101.419 34.0337 101.648 34.0656 101.863 34.1424C102.079 34.2193 102.276 34.3396 102.443 34.4957C102.689 34.7865 102.813 35.1608 102.788 35.5404V37.9196C102.787 37.9538 102.772 37.9861 102.747 38.0097C102.722 38.0333 102.689 38.0465 102.655 38.0465H101.898C101.881 38.0472 101.863 38.0445 101.847 38.0386C101.831 38.0327 101.815 38.0235 101.802 38.0119C101.79 38.0001 101.779 37.9858 101.772 37.97C101.764 37.9542 101.76 37.937 101.759 37.9196V37.8532H101.723C101.41 38.0499 101.045 38.1468 100.676 38.1309C100.343 38.1413 100.017 38.0296 99.7614 37.8169C99.6326 37.7071 99.5303 37.5697 99.4622 37.4149C99.3941 37.2602 99.3619 37.0922 99.3679 36.9232C99.3701 36.7041 99.4407 36.4909 99.5698 36.3135C99.6989 36.136 99.8801 36.0031 100.088 35.9329C100.59 35.7501 101.117 35.6461 101.65 35.6249V35.5404C101.663 35.3819 101.62 35.2239 101.529 35.0936C101.466 35.0325 101.391 34.9858 101.309 34.9566C101.226 34.9275 101.138 34.9165 101.051 34.9244C100.663 34.9316 100.284 35.0376 99.949 35.2324ZM101.626 37.1346V36.3858C101.105 36.3858 100.415 36.4703 100.415 36.893C100.415 37.1648 100.682 37.2915 101.021 37.2915C101.233 37.293 101.441 37.2389 101.626 37.1346Z" fill="#2B2522"/>
<path d="M108.062 38.9374C108.219 38.7526 108.299 38.5149 108.286 38.2732V37.8927C107.992 38.0484 107.662 38.1235 107.33 38.1101C107.091 38.1171 106.853 38.0768 106.629 37.992C106.406 37.907 106.202 37.7788 106.028 37.6149C105.829 37.4118 105.673 37.1709 105.568 36.9063C105.465 36.6418 105.415 36.3591 105.423 36.0751C105.41 35.5291 105.605 34.9986 105.967 34.5896C106.14 34.4105 106.348 34.2695 106.578 34.1758C106.809 34.0822 107.057 34.038 107.305 34.0461C107.655 34.0524 107.995 34.164 108.28 34.3661V34.2515C108.28 34.2179 108.293 34.1856 108.317 34.1617C108.341 34.138 108.373 34.1246 108.407 34.1246H109.255C109.289 34.1246 109.321 34.138 109.345 34.1617C109.368 34.1856 109.382 34.2179 109.382 34.2515V38.1282C109.403 38.4128 109.359 38.6985 109.254 38.964C109.15 39.2294 108.986 39.468 108.776 39.662C108.36 39.9652 107.85 40.1127 107.336 40.0786C106.791 40.087 106.256 39.9404 105.792 39.6559C105.764 39.637 105.744 39.6098 105.733 39.5782C105.722 39.5468 105.722 39.5127 105.731 39.4809L106.07 38.8347C106.08 38.8181 106.093 38.8036 106.109 38.7925C106.125 38.7815 106.143 38.774 106.162 38.7706C106.181 38.767 106.2 38.7678 106.219 38.7726C106.238 38.7774 106.255 38.7862 106.27 38.7986C106.588 39.0195 106.966 39.1394 107.354 39.1427C107.48 39.1584 107.607 39.1482 107.729 39.1129C107.851 39.0775 107.964 39.0178 108.062 38.9374ZM108.286 36.9326V35.3142C108.06 35.133 107.783 35.0273 107.493 35.0123C107.38 35.009 107.267 35.0299 107.163 35.0737C107.058 35.1174 106.965 35.183 106.888 35.2659C106.703 35.5011 106.608 35.7946 106.621 36.0932C106.599 36.3956 106.692 36.6953 106.882 36.9326C106.959 37.0141 107.053 37.0784 107.158 37.1211C107.262 37.1636 107.374 37.1838 107.487 37.1801C107.766 37.1758 108.038 37.0898 108.268 36.9326H108.286Z" fill="#2B2522"/>
<path d="M116.39 37.0009C116.481 36.9467 116.554 36.9648 116.59 37.0311L116.887 37.5867C116.9 37.6182 116.901 37.6534 116.89 37.6858C116.879 37.7181 116.856 37.7451 116.826 37.7619C116.379 38.0307 115.865 38.1688 115.343 38.1604C115.055 38.1696 114.767 38.1209 114.498 38.0173C114.228 37.9135 113.983 37.7568 113.775 37.5565C113.405 37.1525 113.199 36.6246 113.199 36.0771C113.199 35.5295 113.405 35.0017 113.775 34.5976C113.967 34.4132 114.193 34.2693 114.442 34.1749C114.691 34.0804 114.956 34.0373 115.222 34.0482C115.514 34.0314 115.806 34.0852 116.072 34.2051C116.339 34.3249 116.573 34.5072 116.754 34.7365C117.032 35.2084 117.157 35.7549 117.111 36.3005C117.113 36.3176 117.111 36.3349 117.105 36.3513C117.099 36.3675 117.09 36.3823 117.078 36.3944C117.066 36.4066 117.051 36.4159 117.035 36.4216C117.018 36.4273 117.001 36.4293 116.984 36.4273H114.381C114.409 36.6256 114.5 36.8097 114.641 36.9527C114.742 37.049 114.862 37.1238 114.993 37.1725C115.124 37.2213 115.264 37.2431 115.404 37.2365C115.748 37.2531 116.091 37.1714 116.39 37.0009ZM116.009 35.7148C116.014 35.6134 115.997 35.5122 115.959 35.4179C115.921 35.3235 115.864 35.2384 115.791 35.1681C115.717 35.0978 115.629 35.0439 115.534 35.0101C115.438 34.9763 115.336 34.9633 115.234 34.972C115.01 34.9655 114.792 35.048 114.629 35.2015C114.508 35.3473 114.434 35.5262 114.417 35.7148H116.009Z" fill="#2B2522"/>
<path d="M47.8849 0.345459C45.2508 0.345459 42.6757 1.1246 40.4856 2.58437C38.2953 4.0442 36.5883 6.11901 35.5802 8.54651C34.5722 10.974 34.3084 13.6451 34.8224 16.2221C35.3362 18.7991 36.6046 21.1663 38.4673 23.0242C40.3299 24.8821 42.703 26.1473 45.2866 26.66C47.8701 27.1726 50.548 26.9096 52.9817 25.9041C55.4154 24.8985 57.4954 23.1957 58.9589 21.011C60.4223 18.8264 61.2034 16.2579 61.2034 13.6304C61.2034 10.107 59.8003 6.72787 57.3025 4.23653C54.8049 1.74511 51.4172 0.345459 47.8849 0.345459ZM47.8849 21.9274C46.2415 21.9239 44.636 21.4343 43.2714 20.5209C41.9068 19.6074 40.8442 18.3109 40.218 16.7952C39.5918 15.2796 39.4303 13.6129 39.7536 12.0056C40.0767 10.3984 40.8704 8.92268 42.0342 7.76521C43.198 6.60775 44.6797 5.82041 46.2918 5.50273C47.9041 5.18491 49.5746 5.35103 51.0923 5.98007C52.6099 6.60898 53.9066 7.67254 54.8184 9.03649C55.7302 10.4003 56.2163 12.0031 56.2151 13.6425C56.2142 14.7322 55.998 15.8112 55.5789 16.8176C55.1596 17.8239 54.5457 18.7381 53.7719 19.5076C52.9983 20.2771 52.0801 20.8868 51.07 21.3021C50.0598 21.7172 48.9774 21.9298 47.8849 21.9274Z" fill="#2B2522"/>
</svg>
