<svg width="176" height="41" viewBox="0 0 176 41" fill="none" xmlns="http://www.w3.org/2000/svg">
<path d="M16.7753 16.6189C18.3847 15.0245 20.7467 14.6302 22.7283 15.4361L21.3858 16.7662C20.1857 16.5311 18.8932 16.8744 17.9632 17.7957C17.0332 18.717 16.6868 19.9976 16.924 21.1865L15.5816 22.5165C14.7681 20.5533 15.166 18.2133 16.7753 16.6189Z" fill="#FC121B"/>
<path d="M15.5819 15.437C17.8598 13.1802 21.2905 12.7616 23.9961 14.181L23.3705 14.8007C21.0209 13.6892 18.1218 14.0974 16.1758 16.0253C14.2298 17.9533 13.8178 20.8254 14.9398 23.1532L14.3142 23.773C12.8814 21.0925 13.304 17.6937 15.5819 15.437Z" fill="#F85D1F"/>
<path d="M12.0077 11.8958C16.2697 7.67344 22.8974 7.22321 27.6639 10.5452L26.4551 11.7429C22.3643 9.05904 16.7993 9.50229 13.1956 13.0727C9.59171 16.643 9.1443 22.1563 11.8533 26.2091L10.6444 27.4067C7.29127 22.6845 7.74567 16.1183 12.0077 11.8958Z" fill="#F4C52E"/>
<path d="M10.8142 10.7144C15.7369 5.83747 23.4326 5.38229 28.8728 9.34884L28.2715 9.94455C23.1663 6.29882 16.002 6.75155 11.4081 11.3028C6.81424 15.854 6.35726 22.9517 10.0372 28.0097L9.43587 28.6053C5.43215 23.2156 5.89159 15.5913 10.8142 10.7144Z" fill="#8AB65A"/>
<path d="M8.12854 8.05264C1.83389 14.2889 1.3571 24.2176 6.75521 31.2555L4.63383 33.3572C-1.97559 25.3261 -1.50261 13.4813 6.05277 5.99615C13.6081 -1.48907 25.5639 -1.95766 33.6702 4.59039L31.5488 6.69211C24.445 1.34408 14.4232 1.81645 8.12854 8.05264Z" fill="#1AA5B8"/>
<path d="M51.2758 12.4893V40.2499H45.4883V0.454102L49.9578 0.510869L69.4979 28.4985V0.510869H75.2283V40.2499H70.6441L51.2758 12.4893Z" fill="black"/>
<path fill-rule="evenodd" clip-rule="evenodd" d="M81.5273 40.2501V0.567871H91.6964C104.819 0.567871 111.408 10.5026 111.408 20.4374C111.408 30.3721 104.819 40.2501 91.6964 40.2501H81.5273ZM87.3147 6.30166V34.5163H91.6964C100.979 34.5163 105.678 27.4768 105.678 20.4374C105.678 13.3979 100.979 6.30166 91.6964 6.30166H87.3147Z" fill="black"/>
<path d="M122.489 23.2759H140.654V17.4853H122.489V6.30166H141.055V0.567871H116.645V40.2501H141.113V34.5163H122.489V23.2759Z" fill="black"/>
<path d="M168.494 40.2497L153.882 22.8214V20.0964H160.643C165.514 20.0964 167.921 16.6334 167.921 13.1705C167.921 9.76425 165.514 6.3013 160.643 6.3013H151.762V40.2497H146.031V0.510742H160.643C169.353 0.510742 173.708 6.86897 173.708 13.1705C173.708 18.7907 170.212 24.1271 163.336 25.3192L176 40.2497H168.494Z" fill="black"/>
<path d="M35.2443 34.9172C27.6332 42.4577 15.582 43.0454 7.58594 36.3443L11.7788 32.1904C17.3767 36.5426 25.6849 36.1232 31.0733 30.7849C36.4617 25.4465 36.8849 17.2155 32.492 11.6695L36.6848 7.51562C43.4487 15.4374 42.8555 27.3768 35.2443 34.9172Z" fill="black"/>
</svg>
