<svg width="192" height="75" viewBox="0 0 192 75" fill="none" xmlns="http://www.w3.org/2000/svg">
<path d="M8.39961 37H2.75365V7.79946H8.39961V37ZM22.4452 19.4876C21.1377 19.4876 20.1208 19.897 19.3944 20.7158C18.6812 21.5347 18.2322 22.6441 18.0473 24.044H26.8233C26.7308 22.5516 26.2752 21.4224 25.4564 20.6564C24.6507 19.8772 23.647 19.4876 22.4452 19.4876ZM22.4452 14.8322C24.2413 14.8322 25.8592 15.1689 27.2987 15.8425C28.7383 16.516 29.9269 17.5792 30.8646 19.032C31.7099 20.313 32.2579 21.7988 32.5089 23.4893C32.6541 24.4798 32.7136 25.9062 32.6872 27.7684H17.9086C17.9878 29.9343 18.668 31.4531 19.9491 32.3247C20.7283 32.8662 21.666 33.137 22.7622 33.137C23.9244 33.137 24.8687 32.8068 25.595 32.1465C25.9913 31.7899 26.3412 31.2946 26.645 30.6607H32.4098C32.2645 31.9417 31.5976 33.2426 30.409 34.5633C28.56 36.6632 25.9714 37.7132 22.6433 37.7132C19.8962 37.7132 17.4728 36.8283 15.3729 35.0586C13.273 33.2889 12.223 30.4097 12.223 26.4212C12.223 22.6837 13.1673 19.8178 15.0559 17.8235C16.9577 15.8293 19.4208 14.8322 22.4452 14.8322ZM40.9085 30.106C41.0273 31.1097 41.2849 31.8229 41.6811 32.2455C42.3811 32.9983 43.6753 33.3747 45.5639 33.3747C46.6733 33.3747 47.5516 33.2096 48.1987 32.8794C48.8591 32.5493 49.1892 32.054 49.1892 31.3937C49.1892 30.7597 48.9251 30.2777 48.3968 29.9475C47.8685 29.6173 45.9073 29.0494 42.5131 28.2438C40.0698 27.6363 38.3463 26.8769 37.3426 25.9656C36.3389 25.0675 35.837 23.7733 35.837 22.0828C35.837 20.0885 36.6162 18.3782 38.1746 16.9519C39.7463 15.5123 41.9518 14.7925 44.7913 14.7925C47.4855 14.7925 49.6779 15.334 51.3684 16.417C53.0721 17.4868 54.0494 19.3423 54.3003 21.9837H48.6544C48.5751 21.2573 48.3704 20.6828 48.0402 20.2602C47.4195 19.4942 46.3629 19.1112 44.8706 19.1112C43.6423 19.1112 42.7641 19.3027 42.2358 19.6857C41.7207 20.0687 41.4632 20.5177 41.4632 21.0328C41.4632 21.68 41.7405 22.1488 42.2952 22.4394C42.8499 22.7431 44.8111 23.2648 48.1789 24.0044C50.4241 24.5327 52.108 25.3317 53.2306 26.4014C54.3399 27.4844 54.8946 28.8381 54.8946 30.4626C54.8946 32.6021 54.0956 34.352 52.4976 35.7123C50.9127 37.0594 48.4562 37.733 45.1281 37.733C41.7339 37.733 39.2246 37.0198 37.6001 35.5935C35.9889 34.1539 35.1833 32.3247 35.1833 30.106H40.9085ZM63.4923 30.106C63.6112 31.1097 63.8687 31.8229 64.265 32.2455C64.9649 32.9983 66.2592 33.3747 68.1478 33.3747C69.2572 33.3747 70.1354 33.2096 70.7826 32.8794C71.4429 32.5493 71.7731 32.054 71.7731 31.3937C71.7731 30.7597 71.509 30.2777 70.9807 29.9475C70.4524 29.6173 68.4912 29.0494 65.097 28.2438C62.6537 27.6363 60.9302 26.8769 59.9265 25.9656C58.9227 25.0675 58.4209 23.7733 58.4209 22.0828C58.4209 20.0885 59.2001 18.3782 60.7585 16.9519C62.3301 15.5123 64.5357 14.7925 67.3752 14.7925C70.0694 14.7925 72.2618 15.334 73.9522 16.417C75.6559 17.4868 76.6332 19.3423 76.8842 21.9837H71.2382C71.159 21.2573 70.9543 20.6828 70.6241 20.2602C70.0034 19.4942 68.9468 19.1112 67.4544 19.1112C66.2262 19.1112 65.3479 19.3027 64.8196 19.6857C64.3046 20.0687 64.047 20.5177 64.047 21.0328C64.047 21.68 64.3244 22.1488 64.8791 22.4394C65.4338 22.7431 67.395 23.2648 70.7628 24.0044C73.0079 24.5327 74.6918 25.3317 75.8144 26.4014C76.9238 27.4844 77.4785 28.8381 77.4785 30.4626C77.4785 32.6021 76.6795 34.352 75.0814 35.7123C73.4966 37.0594 71.0401 37.733 67.712 37.733C64.3178 37.733 61.8085 37.0198 60.184 35.5935C58.5728 34.1539 57.7671 32.3247 57.7671 30.106H63.4923Z" fill="black"/>
<path d="M83.8125 51.8786H85.4167V58.1755H89.2188V59.5557H83.8125V51.8786ZM91.6927 53.8786V57.3005C91.6927 57.6234 91.7309 57.8664 91.8073 58.0296C91.9427 58.3178 92.2083 58.4619 92.6042 58.4619C93.1111 58.4619 93.4583 58.2571 93.6458 57.8473C93.7431 57.6251 93.7917 57.3317 93.7917 56.9671V53.8786H95.2969V59.5557H93.8542V58.7536C93.8403 58.7709 93.8056 58.823 93.75 58.9098C93.6944 58.9966 93.6285 59.073 93.5521 59.139C93.3194 59.3473 93.0938 59.4897 92.875 59.5661C92.6597 59.6425 92.4063 59.6807 92.1146 59.6807C91.2743 59.6807 90.7083 59.3786 90.4167 58.7744C90.2535 58.4411 90.1719 57.9498 90.1719 57.3005V53.8786H91.6927ZM96.1771 59.5557L98.1146 56.6807L96.2604 53.889H98.0781L99.026 55.5348L99.9531 53.889H101.719L99.8542 56.6546L101.792 59.5557H99.9427L98.9635 57.8525L97.9792 59.5557H96.1771ZM104.911 54.9515C104.568 54.9515 104.3 55.0591 104.109 55.2744C103.922 55.4897 103.804 55.7814 103.755 56.1494H106.063C106.038 55.7571 105.918 55.4602 105.703 55.2588C105.491 55.0539 105.227 54.9515 104.911 54.9515ZM104.911 53.7275C105.384 53.7275 105.809 53.8161 106.188 53.9932C106.566 54.1702 106.878 54.4498 107.125 54.8317C107.347 55.1685 107.491 55.5591 107.557 56.0036C107.595 56.264 107.611 56.639 107.604 57.1286H103.719C103.74 57.698 103.918 58.0973 104.255 58.3265C104.46 58.4689 104.707 58.54 104.995 58.54C105.3 58.54 105.549 58.4532 105.74 58.2796C105.844 58.1859 105.936 58.0557 106.016 57.889H107.531C107.493 58.2258 107.318 58.5678 107.005 58.915C106.519 59.4671 105.839 59.7432 104.964 59.7432C104.241 59.7432 103.604 59.5105 103.052 59.0452C102.5 58.58 102.224 57.823 102.224 56.7744C102.224 55.7918 102.472 55.0383 102.969 54.514C103.469 53.9897 104.116 53.7275 104.911 53.7275ZM114.953 53.7536C115.203 53.7536 115.45 53.8022 115.693 53.8994C115.936 53.9966 116.156 54.1668 116.354 54.4098C116.514 54.6077 116.622 54.8508 116.677 55.139C116.712 55.33 116.729 55.6095 116.729 55.9775L116.719 59.5557H115.198V55.9411C115.198 55.7258 115.163 55.5487 115.094 55.4098C114.962 55.1459 114.719 55.014 114.365 55.014C113.955 55.014 113.672 55.1841 113.516 55.5244C113.436 55.705 113.396 55.922 113.396 56.1755V59.5557H111.901V56.1755C111.901 55.8387 111.866 55.5939 111.797 55.4411C111.672 55.1668 111.427 55.0296 111.063 55.0296C110.639 55.0296 110.354 55.1668 110.208 55.4411C110.128 55.5973 110.089 55.83 110.089 56.139V59.5557H108.583V53.889H110.026V54.7171C110.21 54.422 110.384 54.2119 110.547 54.0869C110.835 53.8647 111.208 53.7536 111.667 53.7536C112.101 53.7536 112.451 53.8491 112.719 54.04C112.934 54.2171 113.097 54.4446 113.208 54.7223C113.403 54.389 113.644 54.1442 113.932 53.988C114.238 53.8317 114.578 53.7536 114.953 53.7536ZM121.167 53.7536C121.913 53.7536 122.497 54.0227 122.917 54.5609C123.34 55.0991 123.552 55.7935 123.552 56.6442C123.552 57.5262 123.344 58.2571 122.927 58.8369C122.51 59.4168 121.929 59.7067 121.182 59.7067C120.714 59.7067 120.337 59.613 120.052 59.4255C119.882 59.3143 119.698 59.1199 119.5 58.8421V59.5557H118.047V51.889H119.526V54.6182C119.714 54.3543 119.92 54.1529 120.146 54.014C120.413 53.8404 120.753 53.7536 121.167 53.7536ZM120.786 58.4827C121.168 58.4827 121.465 58.3282 121.677 58.0192C121.889 57.7102 121.995 57.3039 121.995 56.8005C121.995 56.3977 121.943 56.0643 121.839 55.8005C121.641 55.3005 121.276 55.0505 120.745 55.0505C120.207 55.0505 119.837 55.2952 119.635 55.7848C119.531 56.0452 119.479 56.3821 119.479 56.7952C119.479 57.2814 119.587 57.6841 119.802 58.0036C120.017 58.323 120.345 58.4827 120.786 58.4827ZM127.167 58.5088C127.601 58.5088 127.934 58.3543 128.167 58.0452C128.399 57.7362 128.516 57.297 128.516 56.7275C128.516 56.1581 128.399 55.7206 128.167 55.415C127.934 55.106 127.601 54.9515 127.167 54.9515C126.733 54.9515 126.398 55.106 126.161 55.415C125.929 55.7206 125.813 56.1581 125.813 56.7275C125.813 57.297 125.929 57.7362 126.161 58.0452C126.398 58.3543 126.733 58.5088 127.167 58.5088ZM130.073 56.7275C130.073 57.5609 129.833 58.2744 129.354 58.8682C128.875 59.4584 128.148 59.7536 127.172 59.7536C126.196 59.7536 125.469 59.4584 124.99 58.8682C124.51 58.2744 124.271 57.5609 124.271 56.7275C124.271 55.9081 124.51 55.198 124.99 54.5973C125.469 53.9966 126.196 53.6963 127.172 53.6963C128.148 53.6963 128.875 53.9966 129.354 54.5973C129.833 55.198 130.073 55.9081 130.073 56.7275ZM132.62 53.8786V57.3005C132.62 57.6234 132.658 57.8664 132.734 58.0296C132.87 58.3178 133.135 58.4619 133.531 58.4619C134.038 58.4619 134.385 58.2571 134.573 57.8473C134.67 57.6251 134.719 57.3317 134.719 56.9671V53.8786H136.224V59.5557H134.781V58.7536C134.767 58.7709 134.733 58.823 134.677 58.9098C134.622 58.9966 134.556 59.073 134.479 59.139C134.247 59.3473 134.021 59.4897 133.802 59.5661C133.587 59.6425 133.333 59.6807 133.042 59.6807C132.201 59.6807 131.635 59.3786 131.344 58.7744C131.181 58.4411 131.099 57.9498 131.099 57.3005V53.8786H132.62ZM140.745 53.7432C140.773 53.7432 140.795 53.7449 140.813 53.7484C140.833 53.7484 140.877 53.7501 140.943 53.7536V55.2744C140.849 55.264 140.766 55.2571 140.693 55.2536C140.62 55.2501 140.561 55.2484 140.516 55.2484C139.918 55.2484 139.517 55.4428 139.313 55.8317C139.198 56.0505 139.141 56.3873 139.141 56.8421V59.5557H137.646V53.8786H139.063V54.8682C139.292 54.4897 139.491 54.231 139.661 54.0921C139.939 53.8595 140.3 53.7432 140.745 53.7432ZM144.255 58.3369C144.602 58.3369 144.896 58.2067 145.135 57.9463C145.375 57.6824 145.495 57.264 145.495 56.6911C145.495 56.1529 145.38 55.7432 145.151 55.4619C144.925 55.1807 144.622 55.04 144.24 55.04C143.719 55.04 143.359 55.2848 143.161 55.7744C143.057 56.0348 143.005 56.356 143.005 56.738C143.005 57.0678 143.061 57.3612 143.172 57.6182C143.373 58.0973 143.734 58.3369 144.255 58.3369ZM143.885 53.7432C144.17 53.7432 144.418 53.7866 144.63 53.8734C144.991 54.0227 145.283 54.297 145.505 54.6963V53.8786H146.948V59.264C146.948 59.9966 146.825 60.5487 146.578 60.9202C146.155 61.5591 145.342 61.8786 144.141 61.8786C143.415 61.8786 142.823 61.7362 142.365 61.4515C141.906 61.1668 141.653 60.7414 141.604 60.1755H143.219C143.26 60.3491 143.328 60.4741 143.422 60.5505C143.582 60.6859 143.851 60.7536 144.229 60.7536C144.764 60.7536 145.122 60.5748 145.302 60.2171C145.42 59.988 145.479 59.6025 145.479 59.0609V58.6963C145.337 58.9393 145.184 59.1216 145.021 59.2432C144.726 59.4689 144.342 59.5817 143.87 59.5817C143.141 59.5817 142.557 59.3265 142.12 58.8161C141.686 58.3022 141.469 57.6077 141.469 56.7327C141.469 55.889 141.679 55.1807 142.099 54.6077C142.519 54.0314 143.115 53.7432 143.885 53.7432ZM157.104 53.238H153.042V54.8682H156.771V56.2015H153.042V58.1755H157.292V59.5557H151.474V51.8786H157.104V53.238ZM160.859 58.3369C161.207 58.3369 161.5 58.2067 161.74 57.9463C161.979 57.6824 162.099 57.264 162.099 56.6911C162.099 56.1529 161.984 55.7432 161.755 55.4619C161.53 55.1807 161.226 55.04 160.844 55.04C160.323 55.04 159.964 55.2848 159.766 55.7744C159.661 56.0348 159.609 56.356 159.609 56.738C159.609 57.0678 159.665 57.3612 159.776 57.6182C159.977 58.0973 160.339 58.3369 160.859 58.3369ZM160.49 53.7432C160.774 53.7432 161.023 53.7866 161.234 53.8734C161.595 54.0227 161.887 54.297 162.109 54.6963V53.8786H163.552V59.264C163.552 59.9966 163.429 60.5487 163.182 60.9202C162.759 61.5591 161.946 61.8786 160.745 61.8786C160.019 61.8786 159.427 61.7362 158.969 61.4515C158.51 61.1668 158.257 60.7414 158.208 60.1755H159.823C159.865 60.3491 159.932 60.4741 160.026 60.5505C160.186 60.6859 160.455 60.7536 160.833 60.7536C161.368 60.7536 161.726 60.5748 161.906 60.2171C162.024 59.988 162.083 59.6025 162.083 59.0609V58.6963C161.941 58.9393 161.788 59.1216 161.625 59.2432C161.33 59.4689 160.946 59.5817 160.474 59.5817C159.745 59.5817 159.161 59.3265 158.724 58.8161C158.29 58.3022 158.073 57.6077 158.073 56.7327C158.073 55.889 158.283 55.1807 158.703 54.6077C159.123 54.0314 159.719 53.7432 160.49 53.7432ZM167.182 54.9515C166.839 54.9515 166.571 55.0591 166.38 55.2744C166.193 55.4897 166.075 55.7814 166.026 56.1494H168.333C168.309 55.7571 168.189 55.4602 167.974 55.2588C167.762 55.0539 167.498 54.9515 167.182 54.9515ZM167.182 53.7275C167.655 53.7275 168.08 53.8161 168.458 53.9932C168.837 54.1702 169.149 54.4498 169.396 54.8317C169.618 55.1685 169.762 55.5591 169.828 56.0036C169.866 56.264 169.882 56.639 169.875 57.1286H165.99C166.01 57.698 166.189 58.0973 166.526 58.3265C166.731 58.4689 166.977 58.54 167.266 58.54C167.571 58.54 167.819 58.4532 168.01 58.2796C168.115 58.1859 168.207 58.0557 168.286 57.889H169.802C169.764 58.2258 169.589 58.5678 169.276 58.915C168.79 59.4671 168.109 59.7432 167.234 59.7432C166.512 59.7432 165.875 59.5105 165.323 59.0452C164.771 58.58 164.495 57.823 164.495 56.7744C164.495 55.7918 164.743 55.0383 165.24 54.514C165.74 53.9897 166.387 53.7275 167.182 53.7275ZM173.964 53.7432C173.991 53.7432 174.014 53.7449 174.031 53.7484C174.052 53.7484 174.095 53.7501 174.161 53.7536V55.2744C174.068 55.264 173.984 55.2571 173.911 55.2536C173.839 55.2501 173.78 55.2484 173.734 55.2484C173.137 55.2484 172.736 55.4428 172.531 55.8317C172.417 56.0505 172.359 56.3873 172.359 56.8421V59.5557H170.865V53.8786H172.281V54.8682C172.51 54.4897 172.71 54.231 172.88 54.0921C173.158 53.8595 173.519 53.7432 173.964 53.7432ZM177.474 58.3369C177.821 58.3369 178.115 58.2067 178.354 57.9463C178.594 57.6824 178.714 57.264 178.714 56.6911C178.714 56.1529 178.599 55.7432 178.37 55.4619C178.144 55.1807 177.84 55.04 177.458 55.04C176.938 55.04 176.578 55.2848 176.38 55.7744C176.276 56.0348 176.224 56.356 176.224 56.738C176.224 57.0678 176.28 57.3612 176.391 57.6182C176.592 58.0973 176.953 58.3369 177.474 58.3369ZM177.104 53.7432C177.389 53.7432 177.637 53.7866 177.849 53.8734C178.21 54.0227 178.502 54.297 178.724 54.6963V53.8786H180.167V59.264C180.167 59.9966 180.043 60.5487 179.797 60.9202C179.373 61.5591 178.561 61.8786 177.359 61.8786C176.634 61.8786 176.042 61.7362 175.583 61.4515C175.125 61.1668 174.872 60.7414 174.823 60.1755H176.438C176.479 60.3491 176.547 60.4741 176.641 60.5505C176.8 60.6859 177.069 60.7536 177.448 60.7536C177.983 60.7536 178.34 60.5748 178.521 60.2171C178.639 59.988 178.698 59.6025 178.698 59.0609V58.6963C178.556 58.9393 178.403 59.1216 178.24 59.2432C177.944 59.4689 177.561 59.5817 177.089 59.5817C176.359 59.5817 175.776 59.3265 175.339 58.8161C174.905 58.3022 174.688 57.6077 174.688 56.7327C174.688 55.889 174.898 55.1807 175.318 54.6077C175.738 54.0314 176.333 53.7432 177.104 53.7432ZM181.786 60.6442L181.974 60.6546C182.12 60.6616 182.259 60.6564 182.391 60.639C182.523 60.6216 182.634 60.5817 182.724 60.5192C182.811 60.4602 182.891 60.3369 182.964 60.1494C183.04 59.9619 183.071 59.8473 183.057 59.8057L180.974 53.8786H182.625L183.865 58.0661L185.036 53.8786H186.615L184.667 59.4619C184.292 60.5383 183.995 61.205 183.776 61.4619C183.557 61.7223 183.12 61.8525 182.464 61.8525C182.332 61.8525 182.226 61.8508 182.146 61.8473C182.066 61.8473 181.946 61.8421 181.786 61.8317V60.6442ZM84.974 70.1859C85.0226 70.5366 85.1181 70.7987 85.2604 70.9723C85.5208 71.2883 85.967 71.4463 86.599 71.4463C86.9774 71.4463 87.2847 71.4046 87.5208 71.3213C87.9688 71.1616 88.1927 70.8647 88.1927 70.4307C88.1927 70.1772 88.0816 69.981 87.8594 69.8421C87.6372 69.7067 87.2882 69.5869 86.8125 69.4827L86 69.3005C85.2014 69.1199 84.6493 68.9237 84.3438 68.7119C83.8264 68.3577 83.5677 67.8039 83.5677 67.0505C83.5677 66.363 83.8177 65.7918 84.3177 65.3369C84.8177 64.8821 85.5521 64.6546 86.5208 64.6546C87.3299 64.6546 88.0191 64.8699 88.5885 65.3005C89.1615 65.7275 89.4618 66.3491 89.4896 67.165H87.9479C87.9201 66.7032 87.7188 66.3751 87.3438 66.1807C87.0938 66.0522 86.783 65.988 86.4115 65.988C85.9983 65.988 85.6684 66.0713 85.4219 66.238C85.1753 66.4046 85.0521 66.6373 85.0521 66.9359C85.0521 67.2102 85.1736 67.415 85.4167 67.5505C85.5729 67.6407 85.9063 67.7466 86.4167 67.8682L87.7396 68.1859C88.3194 68.3248 88.7569 68.5105 89.0521 68.7432C89.5104 69.1043 89.7396 69.6268 89.7396 70.3109C89.7396 71.0123 89.4705 71.5956 88.9323 72.0609C88.3976 72.5227 87.6406 72.7536 86.6615 72.7536C85.6615 72.7536 84.875 72.5262 84.3021 72.0713C83.7292 71.613 83.4427 70.9845 83.4427 70.1859H84.974ZM90.224 67.988V66.9307H91.0156V65.3473H92.4844V66.9307H93.4063V67.988H92.4844V70.988C92.4844 71.2206 92.5139 71.3664 92.5729 71.4255C92.6319 71.481 92.8125 71.5088 93.1146 71.5088C93.1597 71.5088 93.2066 71.5088 93.2552 71.5088C93.3073 71.5053 93.3576 71.5018 93.4063 71.4984V72.6077L92.7031 72.6338C92.0017 72.6581 91.5226 72.5366 91.2656 72.2692C91.099 72.0991 91.0156 71.8369 91.0156 71.4827V67.988H90.224ZM96.9063 71.5088C97.3403 71.5088 97.6736 71.3543 97.9063 71.0452C98.1389 70.7362 98.2552 70.297 98.2552 69.7275C98.2552 69.1581 98.1389 68.7206 97.9063 68.415C97.6736 68.106 97.3403 67.9515 96.9063 67.9515C96.4722 67.9515 96.1372 68.106 95.901 68.415C95.6684 68.7206 95.5521 69.1581 95.5521 69.7275C95.5521 70.297 95.6684 70.7362 95.901 71.0452C96.1372 71.3543 96.4722 71.5088 96.9063 71.5088ZM99.8125 69.7275C99.8125 70.5609 99.5729 71.2744 99.0938 71.8682C98.6146 72.4584 97.8872 72.7536 96.9115 72.7536C95.9358 72.7536 95.2083 72.4584 94.7292 71.8682C94.25 71.2744 94.0104 70.5609 94.0104 69.7275C94.0104 68.9081 94.25 68.198 94.7292 67.5973C95.2083 66.9966 95.9358 66.6963 96.9115 66.6963C97.8872 66.6963 98.6146 66.9966 99.0938 67.5973C99.5729 68.198 99.8125 68.9081 99.8125 69.7275ZM103.964 66.7432C103.991 66.7432 104.014 66.7449 104.031 66.7484C104.052 66.7484 104.095 66.7501 104.161 66.7536V68.2744C104.068 68.264 103.984 68.2571 103.911 68.2536C103.839 68.2501 103.78 68.2484 103.734 68.2484C103.137 68.2484 102.736 68.4428 102.531 68.8317C102.417 69.0505 102.359 69.3873 102.359 69.8421V72.5557H100.865V66.8786H102.281V67.8682C102.51 67.4897 102.71 67.231 102.88 67.0921C103.158 66.8595 103.519 66.7432 103.964 66.7432ZM108.167 69.7952C108.073 69.8543 107.977 69.9029 107.88 69.9411C107.786 69.9758 107.656 70.0088 107.49 70.04L107.156 70.1025C106.844 70.1581 106.62 70.2258 106.484 70.3057C106.255 70.4411 106.141 70.6512 106.141 70.9359C106.141 71.1893 106.21 71.3734 106.349 71.488C106.491 71.5991 106.663 71.6546 106.865 71.6546C107.184 71.6546 107.477 71.5609 107.745 71.3734C108.016 71.1859 108.156 70.8439 108.167 70.3473V69.7952ZM107.266 69.1025C107.54 69.0678 107.736 69.0244 107.854 68.9723C108.066 68.8821 108.172 68.7414 108.172 68.5505C108.172 68.3178 108.09 68.1581 107.927 68.0713C107.767 67.981 107.531 67.9359 107.219 67.9359C106.868 67.9359 106.62 68.0227 106.474 68.1963C106.37 68.3248 106.3 68.4984 106.266 68.7171H104.833C104.865 68.2206 105.003 67.8126 105.25 67.4932C105.642 66.9932 106.316 66.7432 107.271 66.7432C107.892 66.7432 108.444 66.8664 108.927 67.113C109.41 67.3595 109.651 67.8248 109.651 68.5088V71.113C109.651 71.2935 109.655 71.5123 109.661 71.7692C109.672 71.9637 109.701 72.0956 109.75 72.165C109.799 72.2345 109.872 72.2918 109.969 72.3369V72.5557H108.354C108.309 72.4411 108.278 72.3334 108.26 72.2327C108.243 72.1321 108.229 72.0175 108.219 71.889C108.014 72.1112 107.778 72.3005 107.51 72.4567C107.191 72.6407 106.83 72.7327 106.427 72.7327C105.913 72.7327 105.488 72.5869 105.151 72.2952C104.818 72.0001 104.651 71.5834 104.651 71.0452C104.651 70.3473 104.92 69.8421 105.458 69.5296C105.753 69.3595 106.188 69.238 106.76 69.165L107.266 69.1025ZM113.411 71.3369C113.759 71.3369 114.052 71.2067 114.292 70.9463C114.531 70.6824 114.651 70.264 114.651 69.6911C114.651 69.1529 114.536 68.7432 114.307 68.4619C114.082 68.1807 113.778 68.04 113.396 68.04C112.875 68.04 112.516 68.2848 112.318 68.7744C112.214 69.0348 112.161 69.356 112.161 69.738C112.161 70.0678 112.217 70.3612 112.328 70.6182C112.53 71.0973 112.891 71.3369 113.411 71.3369ZM113.042 66.7432C113.326 66.7432 113.575 66.7866 113.786 66.8734C114.148 67.0227 114.439 67.297 114.661 67.6963V66.8786H116.104V72.264C116.104 72.9966 115.981 73.5487 115.734 73.9202C115.311 74.5591 114.498 74.8786 113.297 74.8786C112.571 74.8786 111.979 74.7362 111.521 74.4515C111.063 74.1668 110.809 73.7414 110.76 73.1755H112.375C112.417 73.3491 112.484 73.4741 112.578 73.5505C112.738 73.6859 113.007 73.7536 113.385 73.7536C113.92 73.7536 114.278 73.5748 114.458 73.2171C114.576 72.988 114.635 72.6025 114.635 72.0609V71.6963C114.493 71.9393 114.34 72.1216 114.177 72.2432C113.882 72.4689 113.498 72.5817 113.026 72.5817C112.297 72.5817 111.714 72.3265 111.276 71.8161C110.842 71.3022 110.625 70.6077 110.625 69.7327C110.625 68.889 110.835 68.1807 111.255 67.6077C111.675 67.0314 112.271 66.7432 113.042 66.7432ZM119.734 67.9515C119.391 67.9515 119.123 68.0591 118.932 68.2744C118.745 68.4897 118.627 68.7814 118.578 69.1494H120.885C120.861 68.7571 120.741 68.4602 120.526 68.2588C120.314 68.0539 120.05 67.9515 119.734 67.9515ZM119.734 66.7275C120.207 66.7275 120.632 66.8161 121.01 66.9932C121.389 67.1702 121.701 67.4498 121.948 67.8317C122.17 68.1685 122.314 68.5591 122.38 69.0036C122.418 69.264 122.434 69.639 122.427 70.1286H118.542C118.563 70.698 118.741 71.0973 119.078 71.3265C119.283 71.4689 119.53 71.54 119.818 71.54C120.123 71.54 120.372 71.4532 120.563 71.2796C120.667 71.1859 120.759 71.0557 120.839 70.889H122.354C122.316 71.2258 122.141 71.5678 121.828 71.915C121.342 72.4671 120.661 72.7432 119.786 72.7432C119.064 72.7432 118.427 72.5105 117.875 72.0452C117.323 71.58 117.047 70.823 117.047 69.7744C117.047 68.7918 117.295 68.0383 117.792 67.514C118.292 66.9897 118.939 66.7275 119.734 66.7275ZM127.682 70.1859C127.731 70.5366 127.826 70.7987 127.969 70.9723C128.229 71.2883 128.675 71.4463 129.307 71.4463C129.686 71.4463 129.993 71.4046 130.229 71.3213C130.677 71.1616 130.901 70.8647 130.901 70.4307C130.901 70.1772 130.79 69.981 130.568 69.8421C130.345 69.7067 129.997 69.5869 129.521 69.4827L128.708 69.3005C127.91 69.1199 127.358 68.9237 127.052 68.7119C126.535 68.3577 126.276 67.8039 126.276 67.0505C126.276 66.363 126.526 65.7918 127.026 65.3369C127.526 64.8821 128.26 64.6546 129.229 64.6546C130.038 64.6546 130.727 64.8699 131.297 65.3005C131.87 65.7275 132.17 66.3491 132.198 67.165H130.656C130.628 66.7032 130.427 66.3751 130.052 66.1807C129.802 66.0522 129.491 65.988 129.12 65.988C128.707 65.988 128.377 66.0713 128.13 66.238C127.884 66.4046 127.76 66.6373 127.76 66.9359C127.76 67.2102 127.882 67.415 128.125 67.5505C128.281 67.6407 128.615 67.7466 129.125 67.8682L130.448 68.1859C131.028 68.3248 131.465 68.5105 131.76 68.7432C132.219 69.1043 132.448 69.6268 132.448 70.3109C132.448 71.0123 132.179 71.5956 131.641 72.0609C131.106 72.5227 130.349 72.7536 129.37 72.7536C128.37 72.7536 127.583 72.5262 127.01 72.0713C126.438 71.613 126.151 70.9845 126.151 70.1859H127.682ZM133.745 73.6442L133.932 73.6546C134.078 73.6616 134.217 73.6564 134.349 73.639C134.481 73.6216 134.592 73.5817 134.682 73.5192C134.769 73.4602 134.849 73.3369 134.922 73.1494C134.998 72.9619 135.03 72.8473 135.016 72.8057L132.932 66.8786H134.583L135.823 71.0661L136.995 66.8786H138.573L136.625 72.4619C136.25 73.5383 135.953 74.205 135.734 74.4619C135.516 74.7223 135.078 74.8525 134.422 74.8525C134.29 74.8525 134.184 74.8508 134.104 74.8473C134.024 74.8473 133.905 74.8421 133.745 74.8317V73.6442ZM140.609 70.7432C140.641 71.0071 140.708 71.1946 140.813 71.3057C140.997 71.5036 141.337 71.6025 141.833 71.6025C142.125 71.6025 142.356 71.5591 142.526 71.4723C142.7 71.3855 142.786 71.2553 142.786 71.0817C142.786 70.915 142.717 70.7883 142.578 70.7015C142.439 70.6147 141.924 70.4654 141.031 70.2536C140.389 70.0939 139.936 69.8942 139.672 69.6546C139.408 69.4185 139.276 69.0782 139.276 68.6338C139.276 68.1095 139.481 67.6598 139.891 67.2848C140.304 66.9064 140.884 66.7171 141.63 66.7171C142.339 66.7171 142.915 66.8595 143.359 67.1442C143.807 67.4255 144.064 67.9133 144.13 68.6077H142.646C142.625 68.4168 142.571 68.2657 142.484 68.1546C142.321 67.9532 142.043 67.8525 141.651 67.8525C141.328 67.8525 141.097 67.9029 140.958 68.0036C140.823 68.1043 140.755 68.2223 140.755 68.3577C140.755 68.5279 140.828 68.6512 140.974 68.7275C141.12 68.8074 141.635 68.9446 142.521 69.139C143.111 69.2779 143.554 69.488 143.849 69.7692C144.141 70.0539 144.286 70.4098 144.286 70.8369C144.286 71.3994 144.076 71.8595 143.656 72.2171C143.24 72.5713 142.594 72.7484 141.719 72.7484C140.826 72.7484 140.167 72.5609 139.74 72.1859C139.316 71.8074 139.104 71.3265 139.104 70.7432H140.609ZM144.807 67.988V66.9307H145.599V65.3473H147.068V66.9307H147.99V67.988H147.068V70.988C147.068 71.2206 147.097 71.3664 147.156 71.4255C147.215 71.481 147.396 71.5088 147.698 71.5088C147.743 71.5088 147.79 71.5088 147.839 71.5088C147.891 71.5053 147.941 71.5018 147.99 71.4984V72.6077L147.286 72.6338C146.585 72.6581 146.106 72.5366 145.849 72.2692C145.682 72.0991 145.599 71.8369 145.599 71.4827V67.988H144.807ZM151.182 67.9515C150.839 67.9515 150.571 68.0591 150.38 68.2744C150.193 68.4897 150.075 68.7814 150.026 69.1494H152.333C152.309 68.7571 152.189 68.4602 151.974 68.2588C151.762 68.0539 151.498 67.9515 151.182 67.9515ZM151.182 66.7275C151.655 66.7275 152.08 66.8161 152.458 66.9932C152.837 67.1702 153.149 67.4498 153.396 67.8317C153.618 68.1685 153.762 68.5591 153.828 69.0036C153.866 69.264 153.882 69.639 153.875 70.1286H149.99C150.01 70.698 150.189 71.0973 150.526 71.3265C150.731 71.4689 150.977 71.54 151.266 71.54C151.571 71.54 151.819 71.4532 152.01 71.2796C152.115 71.1859 152.207 71.0557 152.286 70.889H153.802C153.764 71.2258 153.589 71.5678 153.276 71.915C152.79 72.4671 152.109 72.7432 151.234 72.7432C150.512 72.7432 149.875 72.5105 149.323 72.0452C148.771 71.58 148.495 70.823 148.495 69.7744C148.495 68.7918 148.743 68.0383 149.24 67.514C149.74 66.9897 150.387 66.7275 151.182 66.7275ZM161.224 66.7536C161.474 66.7536 161.72 66.8022 161.964 66.8994C162.207 66.9966 162.427 67.1668 162.625 67.4098C162.785 67.6077 162.892 67.8508 162.948 68.139C162.983 68.33 163 68.6095 163 68.9775L162.99 72.5557H161.469V68.9411C161.469 68.7258 161.434 68.5487 161.365 68.4098C161.233 68.1459 160.99 68.014 160.635 68.014C160.226 68.014 159.943 68.1841 159.786 68.5244C159.707 68.705 159.667 68.922 159.667 69.1755V72.5557H158.172V69.1755C158.172 68.8387 158.137 68.5939 158.068 68.4411C157.943 68.1668 157.698 68.0296 157.333 68.0296C156.91 68.0296 156.625 68.1668 156.479 68.4411C156.399 68.5973 156.359 68.83 156.359 69.139V72.5557H154.854V66.889H156.297V67.7171C156.481 67.422 156.655 67.2119 156.818 67.0869C157.106 66.8647 157.479 66.7536 157.938 66.7536C158.372 66.7536 158.722 66.8491 158.99 67.04C159.205 67.2171 159.368 67.4446 159.479 67.7223C159.674 67.389 159.915 67.1442 160.203 66.988C160.509 66.8317 160.849 66.7536 161.224 66.7536ZM165.526 70.7432C165.557 71.0071 165.625 71.1946 165.729 71.3057C165.913 71.5036 166.253 71.6025 166.75 71.6025C167.042 71.6025 167.273 71.5591 167.443 71.4723C167.616 71.3855 167.703 71.2553 167.703 71.0817C167.703 70.915 167.634 70.7883 167.495 70.7015C167.356 70.6147 166.84 70.4654 165.948 70.2536C165.306 70.0939 164.852 69.8942 164.589 69.6546C164.325 69.4185 164.193 69.0782 164.193 68.6338C164.193 68.1095 164.398 67.6598 164.807 67.2848C165.22 66.9064 165.8 66.7171 166.547 66.7171C167.255 66.7171 167.832 66.8595 168.276 67.1442C168.724 67.4255 168.981 67.9133 169.047 68.6077H167.563C167.542 68.4168 167.488 68.2657 167.401 68.1546C167.238 67.9532 166.96 67.8525 166.568 67.8525C166.245 67.8525 166.014 67.9029 165.875 68.0036C165.74 68.1043 165.672 68.2223 165.672 68.3577C165.672 68.5279 165.745 68.6512 165.891 68.7275C166.036 68.8074 166.552 68.9446 167.438 69.139C168.028 69.2779 168.47 69.488 168.766 69.7692C169.057 70.0539 169.203 70.4098 169.203 70.8369C169.203 71.3994 168.993 71.8595 168.573 72.2171C168.156 72.5713 167.51 72.7484 166.635 72.7484C165.743 72.7484 165.083 72.5609 164.656 72.1859C164.233 71.8074 164.021 71.3265 164.021 70.7432H165.526Z" fill="black"/>
</svg>
